<svg width="1156" height="169" viewBox="0 0 1156 169" fill="none" xmlns="http://www.w3.org/2000/svg">
<g opacity="0.3" clip-path="url(#clip0_163_734)">
<path d="M1141.96 14.4292C1141.96 167.479 1082.83 314.259 977.577 422.481C872.322 530.703 729.567 591.501 580.714 591.501C431.86 591.501 289.109 530.703 183.855 422.481C78.5939 314.259 19.4644 167.479 19.4644 14.4292H1141.96Z" fill="white"/>
<path d="M1141.96 14.4292C1141.96 167.479 1082.83 314.259 977.577 422.481C872.322 530.703 729.567 591.501 580.714 591.501C431.86 591.501 289.109 530.703 183.855 422.481C78.5938 314.259 19.4644 167.479 19.4644 14.4292H1141.96Z" stroke="black" stroke-width="2" stroke-miterlimit="10"/>
<path d="M1141.96 14.4292C1141.96 167.479 1082.83 314.259 977.577 422.481C872.322 530.703 729.567 591.501 580.714 591.501C431.86 591.501 289.109 530.703 183.855 422.481C78.5938 314.259 19.4644 167.479 19.4644 14.4292H1141.96Z" stroke="black" stroke-opacity="0.2" stroke-width="2" stroke-miterlimit="10"/>
<path d="M1001.66 14.4292C1001.66 129.218 957.309 239.306 878.366 320.474C799.424 401.642 692.355 447.241 580.714 447.241C469.072 447.241 362.002 401.642 283.062 320.474C204.121 239.306 159.767 129.218 159.767 14.4292H1001.66Z" fill="white"/>
<path d="M1001.66 14.4292C1001.66 129.218 957.309 239.306 878.366 320.474C799.424 401.642 692.355 447.241 580.714 447.241C469.072 447.241 362.002 401.642 283.062 320.474C204.121 239.306 159.767 129.218 159.767 14.4292H1001.66Z" stroke="black" stroke-width="2" stroke-miterlimit="10"/>
<path d="M1001.66 14.4292C1001.66 129.218 957.309 239.306 878.366 320.474C799.424 401.642 692.355 447.241 580.714 447.241C469.072 447.241 362.002 401.642 283.062 320.474C204.121 239.306 159.767 129.218 159.767 14.4292H1001.66Z" stroke="black" stroke-opacity="0.2" stroke-width="2" stroke-miterlimit="10"/>
<path d="M861.324 14.4292C861.324 90.9493 831.76 164.336 779.135 218.443C726.511 272.551 655.137 302.949 580.715 302.949C506.294 302.949 434.92 272.551 382.297 218.443C329.67 164.336 300.105 90.9493 300.105 14.4292H861.324Z" fill="white"/>
<path d="M861.324 14.4292C861.324 90.9493 831.76 164.336 779.135 218.443C726.511 272.551 655.137 302.949 580.715 302.949C506.294 302.949 434.92 272.551 382.297 218.443C329.67 164.336 300.105 90.9493 300.105 14.4292H861.324Z" stroke="black" stroke-width="2" stroke-miterlimit="10"/>
<path d="M861.324 14.4292C861.324 90.9493 831.76 164.336 779.135 218.443C726.511 272.551 655.137 302.949 580.715 302.949C506.294 302.949 434.92 272.551 382.297 218.443C329.67 164.336 300.105 90.9493 300.105 14.4292H861.324Z" stroke="black" stroke-opacity="0.2" stroke-width="2" stroke-miterlimit="10"/>
<path d="M721.018 14.4292C721.018 52.6893 706.236 89.3824 679.923 116.436C653.611 143.49 617.925 158.689 580.714 158.689C543.502 158.689 507.816 143.49 481.504 116.436C455.191 89.3824 440.409 52.6893 440.409 14.4292H721.018Z" fill="white"/>
<path d="M721.018 14.4292C721.018 52.6893 706.236 89.3824 679.923 116.436C653.611 143.49 617.925 158.689 580.714 158.689C543.502 158.689 507.816 143.49 481.504 116.436C455.191 89.3824 440.409 52.6893 440.409 14.4292H721.018Z" stroke="black" stroke-width="2" stroke-miterlimit="10"/>
<path d="M721.018 14.4292C721.018 52.6893 706.236 89.3824 679.923 116.436C653.611 143.49 617.925 158.689 580.714 158.689C543.502 158.689 507.816 143.49 481.504 116.436C455.191 89.3824 440.409 52.6893 440.409 14.4292H721.018Z" stroke="black" stroke-opacity="0.2" stroke-width="2" stroke-miterlimit="10"/>
</g>
<defs>
<clipPath id="clip0_163_734">
<rect width="611" height="1156" fill="white" transform="matrix(0 1 -1 0 1156 0)"/>
</clipPath>
</defs>
</svg>
