<svg width="293" height="293" viewBox="0 0 293 293" fill="none" xmlns="http://www.w3.org/2000/svg">
<g clip-path="url(#clip0_111_5)" filter="url(#filter0_d_111_5)">
<path d="M63.2831 91.9242L40.7016 83.476L70.5569 77.527L65.6371 50.9822L25.0201 76.1004L18.9427 93.137L50.8839 100.585C50.8839 100.585 15.1812 107.202 13.339 107.543C11.4877 107.886 15.3467 139.002 15.3467 139.002L51.0403 132.387L63.2831 91.9242Z" fill="url(#paint0_linear_111_5)"/>
<path d="M43.7302 141.694L17.5753 146.541L61.9543 171.286L81.898 158.675L43.7302 141.694Z" fill="url(#paint1_linear_111_5)"/>
<path d="M222.869 135.546L238.287 139.697L217.521 140.997L221.371 120.551L265.109 109.265L240.825 81.2996L211.03 112.916L176.594 109.117L147.513 134.239L110.36 139.851L111.589 156.814L137.975 161.79L137.286 171.79L117.067 169.166L83.8968 161.946L72.8413 170.998L76.7195 191.923L98.1947 201.31L157.278 190.36L163.791 163.692L148.256 150.261L183.941 145.316L170.952 163.238L189.313 160.551L211.049 147.294L230.218 158.462L266.73 151.469L263.473 116.48L224.131 125.13L222.869 135.546Z" fill="url(#paint2_linear_111_5)"/>
<path d="M141.42 204.755L181.186 233.355L198.057 221.321L163.783 194.882C163.783 194.882 145.727 203.957 141.42 204.755Z" fill="url(#paint3_linear_111_5)"/>
<path d="M167.39 188.249L188.93 201.44L228.821 184.418L224.387 160.495L170.845 170.418L167.39 188.249Z" fill="url(#paint4_linear_111_5)"/>
<path d="M160.47 72.7618L164.195 100.59L175.396 102.553L186.945 75.5824L180.302 29.4935L148.606 30.2282L131.978 69.3229L160.47 72.7618Z" fill="url(#paint5_linear_111_5)"/>
<path d="M190.795 86.1097L193.875 102.726L211.11 99.5316L237.081 67.9801L200.275 41.0706L193.169 50.8249L198.301 71.6725L190.795 86.1097Z" fill="url(#paint6_linear_111_5)"/>
<path d="M74.674 94.5855L71.0531 106.397L80.3453 111.043L79.4417 120.753L63.0891 118.38L55.8527 139.447L84.5288 152.916L101.861 142.106L104.848 119.226L112.59 120.98L113.845 127.75L151.546 118.214L154.506 99.8438L150.972 80.778L119.718 77.0016L126.971 61.1853L135.465 40.0276L115.223 35.1869L75.4735 42.2111L82.0514 80.3238L117.337 93.3618L108.597 99.4386L74.674 94.5855Z" fill="url(#paint7_linear_111_5)"/>
</g>
<defs>
<filter id="filter0_d_111_5" x="-4" y="0" width="300.538" height="300.538" filterUnits="userSpaceOnUse" color-interpolation-filters="sRGB">
<feFlood flood-opacity="0" result="BackgroundImageFix"/>
<feColorMatrix in="SourceAlpha" type="matrix" values="0 0 0 0 0 0 0 0 0 0 0 0 0 0 0 0 0 0 127 0" result="hardAlpha"/>
<feOffset dy="4"/>
<feGaussianBlur stdDeviation="2"/>
<feComposite in2="hardAlpha" operator="out"/>
<feColorMatrix type="matrix" values="0 0 0 0 0 0 0 0 0 0 0 0 0 0 0 0 0 0 0.25 0"/>
<feBlend mode="normal" in2="BackgroundImageFix" result="effect1_dropShadow_111_5"/>
<feBlend mode="normal" in="SourceGraphic" in2="effect1_dropShadow_111_5" result="shape"/>
</filter>
<linearGradient id="paint0_linear_111_5" x1="33.4411" y1="56.9494" x2="47.5427" y2="133.035" gradientUnits="userSpaceOnUse">
<stop stop-color="#904BF6"/>
<stop offset="1" stop-color="#CFB2FA"/>
</linearGradient>
<linearGradient id="paint1_linear_111_5" x1="47.5815" y1="140.98" x2="53.4892" y2="172.855" gradientUnits="userSpaceOnUse">
<stop stop-color="#904BF6"/>
<stop offset="1" stop-color="#CFB2FA"/>
</linearGradient>
<linearGradient id="paint2_linear_111_5" x1="160.82" y1="96.1278" x2="177.587" y2="186.596" gradientUnits="userSpaceOnUse">
<stop stop-color="#904BF6"/>
<stop offset="1" stop-color="#CFB2FA"/>
</linearGradient>
<linearGradient id="paint3_linear_111_5" x1="166.288" y1="194.418" x2="173.759" y2="234.732" gradientUnits="userSpaceOnUse">
<stop stop-color="#904BF6"/>
<stop offset="1" stop-color="#CFB2FA"/>
</linearGradient>
<linearGradient id="paint4_linear_111_5" x1="194.348" y1="166.062" x2="200.507" y2="199.295" gradientUnits="userSpaceOnUse">
<stop stop-color="#904BF6"/>
<stop offset="1" stop-color="#CFB2FA"/>
</linearGradient>
<linearGradient id="paint5_linear_111_5" x1="152.453" y1="29.5153" x2="166.302" y2="104.238" gradientUnits="userSpaceOnUse">
<stop stop-color="#904BF6"/>
<stop offset="1" stop-color="#CFB2FA"/>
</linearGradient>
<linearGradient id="paint6_linear_111_5" x1="207.038" y1="39.817" x2="217.874" y2="98.278" gradientUnits="userSpaceOnUse">
<stop stop-color="#904BF6"/>
<stop offset="1" stop-color="#CFB2FA"/>
</linearGradient>
<linearGradient id="paint7_linear_111_5" x1="90.3178" y1="39.4599" x2="110.455" y2="148.111" gradientUnits="userSpaceOnUse">
<stop stop-color="#904BF6"/>
<stop offset="1" stop-color="#CFB2FA"/>
</linearGradient>
<clipPath id="clip0_111_5">
<rect width="251" height="251" fill="default" transform="translate(0 45.7411) rotate(-10.5)"/>
</clipPath>
</defs>
</svg>
