<svg width="522" height="417" viewBox="0 0 522 417" fill="none" xmlns="http://www.w3.org/2000/svg">
<g clip-path="url(#clip0_232_1652)">
<path d="M99.3652 378.395C101.328 365.564 112.421 355.732 125.82 355.732C128.227 355.732 130.565 356.053 132.785 356.647C139.599 339.644 156.236 327.627 175.694 327.627C178.01 327.627 180.289 327.804 182.514 328.131C183.785 300.594 206.54 278.66 234.42 278.66C243.819 278.66 252.634 281.15 260.237 285.509L269.277 203.285H294.476L301.361 281.471C306.664 279.65 312.352 278.66 318.272 278.66C340.233 278.66 359.015 292.267 366.623 311.498C370.837 309.854 375.427 308.938 380.226 308.938C399.635 308.938 415.581 323.707 417.425 342.606C420.98 340.86 424.98 339.88 429.21 339.88C443.992 339.88 455.975 351.849 455.975 366.613C455.975 370.838 454.994 374.839 453.241 378.395" fill="#936AF7"/>
<path d="M99.3652 378.395C101.328 365.564 112.421 355.732 125.82 355.732C128.227 355.732 130.565 356.053 132.785 356.647C139.599 339.644 156.236 327.627 175.694 327.627C178.01 327.627 180.289 327.804 182.514 328.131C183.785 300.594 206.54 278.66 234.42 278.66C243.819 278.66 252.634 281.15 260.237 285.509L269.277 203.285H294.476L301.361 281.471C306.664 279.65 312.352 278.66 318.272 278.66C340.233 278.66 359.015 292.267 366.623 311.498C370.837 309.854 375.427 308.938 380.226 308.938C399.635 308.938 415.581 323.707 417.425 342.606C420.98 340.86 424.98 339.88 429.21 339.88C443.992 339.88 455.975 351.849 455.975 366.613C455.975 370.838 454.994 374.839 453.241 378.395" stroke="#936AF7" stroke-width="1.5" stroke-linecap="round" stroke-linejoin="round"/>
<g opacity="0.46">
<path d="M99.3652 378.395C101.328 365.564 112.421 355.732 125.82 355.732C128.227 355.732 130.565 356.053 132.785 356.647C139.599 339.644 156.236 327.627 175.694 327.627C178.01 327.627 180.289 327.804 182.514 328.131C183.785 300.594 206.54 278.66 234.42 278.66C243.819 278.66 252.634 281.15 260.237 285.509L269.277 203.285H294.476L301.361 281.471C306.664 279.65 312.352 278.66 318.272 278.66C340.233 278.66 359.015 292.267 366.623 311.498C370.837 309.854 375.427 308.938 380.226 308.938C399.635 308.938 415.581 323.707 417.425 342.606C420.98 340.86 424.98 339.88 429.21 339.88C443.992 339.88 455.975 351.849 455.975 366.613C455.975 370.838 454.994 374.839 453.241 378.395" fill="white"/>
<path d="M99.3652 378.395C101.328 365.564 112.421 355.732 125.82 355.732C128.227 355.732 130.565 356.053 132.785 356.647C139.599 339.644 156.236 327.627 175.694 327.627C178.01 327.627 180.289 327.804 182.514 328.131C183.785 300.594 206.54 278.66 234.42 278.66C243.819 278.66 252.634 281.15 260.237 285.509L269.277 203.285H294.476L301.361 281.471C306.664 279.65 312.352 278.66 318.272 278.66C340.233 278.66 359.015 292.267 366.623 311.498C370.837 309.854 375.427 308.938 380.226 308.938C399.635 308.938 415.581 323.707 417.425 342.606C420.98 340.86 424.98 339.88 429.21 339.88C443.992 339.88 455.975 351.849 455.975 366.613C455.975 370.838 454.994 374.839 453.241 378.395" stroke="white" stroke-width="1.5" stroke-miterlimit="10"/>
</g>
<path d="M276.052 248.741C243.307 262.988 236.835 288.937 244.221 319.941C244.763 322.215 241.998 323.91 239.894 322.594C231.673 317.453 224.782 310.327 220.184 301.529C206.257 274.877 216.032 236.457 245.241 223.749C265.667 214.862 283.279 245.597 276.052 248.741Z" fill="#936AF7" stroke="#936AF7" stroke-width="1.5" stroke-linecap="round" stroke-linejoin="round"/>
<path d="M288.041 248.741C320.786 262.988 327.257 288.937 319.872 319.941C319.33 322.215 322.095 323.91 324.199 322.594C332.42 317.453 339.311 310.327 343.909 301.529C357.836 274.877 348.061 236.457 318.852 223.749C298.426 214.862 280.814 245.597 288.041 248.741Z" fill="#936AF7" stroke="#936AF7" stroke-width="1.5" stroke-linecap="round" stroke-linejoin="round"/>
<path d="M330.657 157.159C330.657 206.129 320.614 249.922 307.228 279.06H256.861C243.479 249.922 233.436 206.129 233.436 157.159C233.436 89.4941 257.583 55.2193 274.014 32.3274C275.987 29.5786 279.017 26.8389 282.046 26.8389C285.075 26.8389 288.104 29.5786 290.076 32.3274C306.51 55.2193 330.657 89.4947 330.657 157.159Z" fill="white" stroke="#936AF7" stroke-width="1.5" stroke-linecap="round" stroke-linejoin="round"/>
<path d="M299.546 294.495H264.708L256.861 279.06H307.228L299.546 294.495Z" fill="white" stroke="#936AF7" stroke-width="1.5" stroke-linecap="round" stroke-linejoin="round"/>
<path d="M312.382 68.5723H251.709C258.94 53.4353 267.151 41.8874 274.012 32.3262C275.986 29.5795 279.019 26.8403 282.047 26.8403C285.076 26.8403 288.105 29.5795 290.074 32.3262C296.94 41.8874 305.151 53.4353 312.382 68.5723Z" fill="#936AF7" stroke="#936AF7" stroke-width="1.5" stroke-linecap="round" stroke-linejoin="round"/>
<path d="M269.275 294.495L264.822 279.06" stroke="#936AF7" stroke-width="1.5" stroke-linecap="round" stroke-linejoin="round"/>
<path d="M273.275 279.06L275.394 294.495" stroke="#936AF7" stroke-width="1.5" stroke-linecap="round" stroke-linejoin="round"/>
<path d="M299.301 279.06L294.85 294.495" stroke="#936AF7" stroke-width="1.5" stroke-linecap="round" stroke-linejoin="round"/>
<path d="M290.849 279.06L288.73 294.495" stroke="#936AF7" stroke-width="1.5" stroke-linecap="round" stroke-linejoin="round"/>
<path d="M282.047 68.5723V248.741" stroke="#936AF7" stroke-width="1.5" stroke-linecap="round" stroke-linejoin="round"/>
<path d="M282.047 136.692C294.573 136.692 304.728 126.55 304.728 114.038C304.728 101.527 294.573 91.3843 282.047 91.3843C269.52 91.3843 259.365 101.527 259.365 114.038C259.365 126.55 269.52 136.692 282.047 136.692Z" fill="#936AF7" stroke="#936AF7" stroke-width="1.5" stroke-linecap="round" stroke-linejoin="round"/>
<path d="M282.046 132.084C292.025 132.084 300.114 124.005 300.114 114.038C300.114 104.072 292.025 95.9922 282.046 95.9922C272.068 95.9922 263.979 104.072 263.979 114.038C263.979 124.005 272.068 132.084 282.046 132.084Z" fill="white" stroke="#936AF7" stroke-width="1.5" stroke-linecap="round" stroke-linejoin="round"/>
<path d="M287.656 275.011C287.656 301.544 285.143 323.055 282.048 323.055C278.952 323.055 276.436 301.544 276.436 275.011C276.436 258.986 277.351 239.808 278.76 227.132C278.946 225.46 280.361 224.198 282.046 224.198C283.73 224.198 285.146 225.46 285.332 227.132C286.741 239.808 287.656 258.986 287.656 275.011H287.656Z" fill="#936AF7" stroke="#936AF7" stroke-width="1.5" stroke-linecap="round" stroke-linejoin="round"/>
<path d="M301.742 106.759L316.205 94.855H386.526" stroke="black" stroke-width="1.5" stroke-linecap="round" stroke-linejoin="round"/>
<path d="M345.011 102.479L404.172 102.479V87.2316H345.011V102.479Z" fill="white" stroke="black" stroke-width="1.5" stroke-linecap="round" stroke-linejoin="round"/>
<path d="M168.139 177.589H223.436L243.151 164.681" stroke="black" stroke-width="1.5" stroke-linecap="round" stroke-linejoin="round"/>
<path d="M197.72 169.965H138.559V185.213H197.72V169.965Z" fill="white" stroke="black" stroke-width="1.5" stroke-linecap="round" stroke-linejoin="round"/>
<path d="M346.211 294.495L360.674 309.742H414.24" stroke="black" stroke-width="1.5" stroke-linecap="round" stroke-linejoin="round"/>
<path d="M458.79 302.119H399.629V317.367H458.79V302.119Z" fill="white" stroke="#936AF7" stroke-width="1.5" stroke-linecap="round" stroke-linejoin="round"/>
<path d="M90.5449 378.398H541.195" stroke="black" stroke-width="1.5" stroke-linecap="round" stroke-linejoin="round"/>
<path d="M206.949 378.396C223.749 378.674 238.237 365.993 237.974 348.302C237.863 340.789 236.904 326.578 231.539 318.17C221.17 301.92 206.558 294.775 194.5 279.055C161.016 235.403 117.03 205.249 78.713 221.048C24.9011 243.236 14.4904 303.464 22.3104 338.866C27.2431 361.196 43.9329 378.04 65.7018 378.4L206.949 378.396H206.949Z" fill="white" stroke="black" stroke-width="1.5" stroke-linecap="round" stroke-linejoin="round"/>
<path d="M299.704 346.346L284.864 369.37L280.611 369.808C280.611 369.808 281.776 371.372 282.693 372.738L279.045 378.396L264.436 369.514L275.177 352.011C275.177 352.011 284.53 353.575 288.714 348.133C295.32 339.545 299.703 346.348 299.703 346.348L299.704 346.346Z" fill="white" stroke="black" stroke-width="1.5" stroke-linecap="round" stroke-linejoin="round"/>
<path d="M119.266 315.585C123.202 315.521 171.067 313.55 191.606 313.521L266.511 374.426L279.137 349.67L199.181 273.189C199.181 273.189 121.166 277.349 122.459 278.345" fill="white"/>
<path d="M119.266 315.585C123.202 315.521 171.067 313.55 191.606 313.521L266.511 374.426L279.137 349.67L199.181 273.189C199.181 273.189 121.166 277.349 122.459 278.345" stroke="black" stroke-width="1.5" stroke-linecap="round" stroke-linejoin="round"/>
<path d="M116.109 321.459C116.109 321.459 102.739 303.621 70.8184 307.275L116.109 321.459Z" fill="white"/>
<path d="M116.109 321.459C116.109 321.459 102.739 303.621 70.8184 307.275" stroke="black" stroke-width="1.5" stroke-linecap="round" stroke-linejoin="round"/>
<path d="M86.6322 171.569C85.7711 175.705 88.713 177.331 88.8653 180.037C89.0229 182.837 86.2488 184.84 87.6026 188.703C88.9956 192.679 92.2705 192.604 93.7862 194.913C95.302 197.222 94.9492 201.2 97.0236 203.053C99.0686 204.879 102.976 204.09 105.484 205.35C107.907 206.568 109.586 210.193 112.369 210.771C115.151 211.349 118.137 208.693 120.847 208.541C123.65 208.383 126.918 210.663 129.523 209.802C132.165 208.929 133.428 205.14 135.74 203.626C138.052 202.112 140.917 203.685 143.89 200.392C146.019 198.035 144.929 194.447 146.19 191.942C147.41 189.522 150.709 189.068 151.618 185.066C152.246 182.297 149.537 179.304 149.385 176.598C149.227 173.798 151.966 171.799 150.647 167.932C149.392 164.249 145.979 164.032 144.464 161.722C142.948 159.413 144.814 156.456 141.226 153.582C138.35 151.279 135.274 152.545 132.766 151.285C130.343 150.067 131.292 146.988 125.881 145.864C123.099 145.286 119.634 148.886 116.925 149.039C114.122 149.196 112.5 145.803 108.727 146.833C104.618 147.955 104.822 151.496 102.51 153.009C100.198 154.523 96.7684 153.198 94.3599 156.243C91.4491 159.924 93.4731 162.965 92.211 165.47C90.9912 167.89 87.4026 167.868 86.6322 171.569Z" fill="#936AF7" stroke="black" stroke-width="1.5" stroke-linecap="round" stroke-linejoin="round"/>
<path d="M110.235 183.561C107.908 183.525 106.055 181.578 106.096 179.211C106.136 176.947 107.897 175.124 110.088 175.002C111.823 167.389 118.119 161.663 126.108 161.787C132.115 161.88 134.25 165.152 137.088 170.051C138.59 172.644 138.156 187.846 136.13 191.108C134.775 193.289 132.351 194.753 128.443 195.394L128.253 204.25C128.253 204.25 128.765 212.799 119.462 212.35C110.025 211.894 110.119 203.614 110.119 203.614C110.119 203.614 110.392 184.701 110.316 183.557C110.289 183.557 110.263 183.56 110.236 183.56L110.235 183.561Z" fill="#FFFDFD" stroke="black" stroke-width="1.5" stroke-linecap="round" stroke-linejoin="round"/>
<path d="M120.516 193.787L128.273 202.588L128.442 195.395C128.442 195.395 125.908 195.624 123.573 194.952C121.238 194.281 120.516 193.787 120.516 193.787Z" fill="black" stroke="black" stroke-width="1.5" stroke-linecap="round" stroke-linejoin="round"/>
<path d="M138.935 172.96C138.935 172.96 133.62 171.179 130.475 166.621C130.475 166.621 129.121 170.267 123.127 169.677C117.133 169.086 116.781 171.562 115.516 173.706C114.25 175.851 110.204 175.032 110.204 175.032L103.807 169.355L113.132 156.637L136.692 159.239L137.63 166.634L138.935 172.959L138.935 172.96Z" fill="#936AF7"/>
<path d="M138.936 172.96C138.936 172.96 133.621 171.179 130.476 166.621C130.476 166.621 129.122 170.266 123.128 169.676C117.134 169.086 116.782 171.561 115.517 173.706C114.251 175.851 109.92 175.015 109.92 175.015" stroke="black" stroke-width="1.5" stroke-linecap="round" stroke-linejoin="round"/>
<path d="M124.52 176.281L124.527 176.208C124.523 176.101 124.545 176.001 124.594 175.908C124.626 175.811 124.679 175.728 124.755 175.658C124.826 175.582 124.909 175.528 125.005 175.497C125.098 175.448 125.198 175.426 125.306 175.43L125.513 175.458C125.644 175.495 125.759 175.561 125.856 175.658L125.978 175.815C126.048 175.937 126.084 176.067 126.084 176.208L126.077 176.281C126.081 176.388 126.058 176.487 126.01 176.581C125.978 176.677 125.924 176.76 125.849 176.831C125.778 176.907 125.695 176.96 125.598 176.991C125.506 177.04 125.405 177.062 125.298 177.058L125.091 177.03C124.959 176.993 124.844 176.927 124.747 176.831L124.626 176.673C124.555 176.552 124.52 176.421 124.52 176.281Z" fill="black"/>
<path d="M133.57 176.917L133.578 176.844C133.574 176.737 133.596 176.637 133.645 176.544C133.676 176.448 133.73 176.364 133.806 176.294C133.876 176.218 133.96 176.164 134.056 176.133C134.149 176.085 134.249 176.062 134.356 176.066L134.563 176.094C134.695 176.131 134.81 176.198 134.907 176.294L135.029 176.451C135.099 176.573 135.134 176.704 135.135 176.844L135.127 176.917C135.132 177.024 135.109 177.124 135.06 177.217C135.029 177.313 134.975 177.397 134.899 177.467C134.829 177.543 134.746 177.596 134.649 177.627C134.556 177.676 134.456 177.699 134.349 177.694L134.142 177.667C134.01 177.63 133.895 177.563 133.798 177.467L133.676 177.309C133.606 177.188 133.571 177.057 133.57 176.917Z" fill="black"/>
<path d="M130.388 180.669L130.826 182.739C130.907 183.121 130.575 183.464 130.192 183.394L128.371 183.06" stroke="black" stroke-width="1.5" stroke-linecap="round" stroke-linejoin="round"/>
<path d="M125.792 173.884C125.792 173.884 123.175 172.962 121.828 174.703" stroke="black" stroke-width="1.5" stroke-linecap="round" stroke-linejoin="round"/>
<path d="M122.779 184.994C122.779 184.994 123.564 187.842 127.148 187.365" stroke="black" stroke-width="1.5" stroke-linecap="round" stroke-linejoin="round"/>
<path d="M135.964 174.937C135.964 174.937 133.945 173.29 131.996 174.303" stroke="black" stroke-width="1.5" stroke-linecap="round" stroke-linejoin="round"/>
<path d="M79.4157 269.897C81.7877 270.659 84.2171 270.695 86.47 270.146C86.4909 275.475 86.5113 279.053 86.5113 279.053L149.009 278.923L148.5 267.232L150.934 272.992C153.312 277.555 158.254 279.929 163.081 279.296L213.587 271.908L210.042 253.29L170.224 253.524L154.055 214.369C153.187 212.266 151.948 210.318 150.304 208.745C147.955 206.497 144.976 204.976 141.918 204.639C141.918 204.639 140.517 204.556 139.998 204.587L128.256 204.436C128.266 205.691 127.945 212.758 119.463 212.353C111.557 211.974 110.343 206.1 110.156 204.203L96.4004 204.027C91.6714 203.975 87.3997 205.365 84.9237 207.806C82.5673 210.129 81.1395 213.774 80.0913 217.024L71.1839 253.176L71.0542 253.586C68.8532 260.398 72.601 267.698 79.4168 269.896L79.4157 269.897Z" fill="#FDFDFF" stroke="black" stroke-width="1.5" stroke-linecap="round" stroke-linejoin="round"/>
<path d="M210.469 255.533C210.469 255.533 218.824 254.125 221.151 252.925C222.203 252.383 224.185 249.93 225.052 248.881C225.919 247.832 227.486 247.361 227.433 248.493C227.423 248.69 227.255 249.12 227.014 249.638C227.117 249.512 227.211 249.39 227.288 249.278C229.327 246.308 231.114 246.321 231.07 247.537C231.062 247.751 230.897 248.192 230.639 248.752C231.803 247.416 233.004 246.506 233.917 247.334C234.304 247.685 233.711 248.987 232.849 250.531C233.032 250.37 233.217 250.229 233.402 250.118C233.983 249.769 234.645 249.915 234.649 250.353C234.665 251.865 232.29 256.881 228.261 260.435C227.584 261.033 226.11 261.979 224.335 263.035C225.67 263.26 227.037 263.726 227.391 264.683C227.925 266.126 226.489 266.255 223.05 265.89C222.085 265.788 220.421 265.931 218.913 266.115C215.717 267.872 213.132 269.309 213.132 269.309L210.469 255.533L210.469 255.533Z" fill="#FFFDFD"/>
<path d="M218.738 265.99C218.738 265.99 220.969 265.669 223.051 265.889C226.49 266.254 227.926 266.125 227.392 264.683C226.646 262.669 221.426 262.828 221.426 262.828" stroke="black" stroke-width="1.5" stroke-linecap="round" stroke-linejoin="round"/>
<path d="M213.131 269.308C213.131 269.308 225.811 262.596 228.261 260.435C232.289 256.88 235.11 251.686 234.649 250.352C234.468 249.83 233.982 249.768 233.401 250.117C233.254 250.206 233.107 250.313 232.961 250.434" fill="white"/>
<path d="M213.131 269.308C213.131 269.308 225.811 262.596 228.261 260.435C232.289 256.88 235.11 251.686 234.649 250.352C234.468 249.83 233.982 249.768 233.401 250.117C233.254 250.206 233.107 250.313 232.961 250.434" stroke="black" stroke-width="1.5" stroke-linecap="round" stroke-linejoin="round"/>
<path d="M225.303 259.562C225.303 259.562 226.412 258.834 227.122 258.348C228.432 257.452 229.921 255.519 231.115 253.492C232.613 250.95 234.651 248.065 233.918 247.334C233.002 246.418 231.873 247.289 230.641 248.752" stroke="black" stroke-width="1.5" stroke-linecap="round" stroke-linejoin="round"/>
<path d="M223.76 257.378C223.76 257.378 225.744 256.055 226.525 255.284C227.963 253.867 231.036 248.498 231.07 247.537C231.114 246.321 229.327 246.308 227.288 249.278C227.211 249.391 227.119 249.512 227.016 249.639" stroke="black" stroke-width="1.5" stroke-linecap="round" stroke-linejoin="round"/>
<path d="M222.225 255.382C222.225 255.382 224.856 253.569 225.358 252.749C225.859 251.928 227.404 249.101 227.433 248.493C227.485 247.361 225.918 247.833 225.052 248.881C224.185 249.93 222.204 252.382 221.151 252.925C218.824 254.124 210.469 255.533 210.469 255.533L213.131 269.308" stroke="black" stroke-width="1.5" stroke-linecap="round" stroke-linejoin="round"/>
<path d="M148.503 267.23L147.023 232.983" stroke="black" stroke-width="1.5" stroke-linecap="round" stroke-linejoin="round"/>
<path d="M160.856 229.229C159.134 228.349 154.238 226.902 147.432 227.8C143.726 228.289 127.46 234.464 124.096 235.752L137.606 247.631C137.606 247.631 149.537 239.767 151.506 238.914C151.975 238.711 152.436 238.513 152.883 238.32C153.471 239.233 154.294 239.188 154.642 237.53C156.548 236.628 157.751 235.825 157.141 235.071C156.572 234.368 155.843 234.238 154.76 234.407C154.711 233.738 154.61 233.13 154.42 232.83C154.027 232.212 153.527 231.523 153.085 230.936C155.49 230.748 157.544 230.745 160.377 230.876C161.16 230.912 161.665 229.641 160.856 229.228L160.856 229.229Z" fill="#FFFDFD"/>
<path d="M154.703 237.501C156.574 236.611 157.742 235.817 157.138 235.071C156.578 234.378 155.861 234.242 154.803 234.4" stroke="black" stroke-width="1.5" stroke-linecap="round" stroke-linejoin="round"/>
<path d="M153.191 230.927C155.551 230.747 157.583 230.748 160.375 230.877C161.158 230.913 161.663 229.643 160.854 229.229C159.132 228.349 154.237 226.902 147.43 227.8C143.724 228.289 127.458 234.464 124.094 235.752L137.604 247.631C137.604 247.631 149.535 239.767 151.504 238.914C151.954 238.719 152.397 238.529 152.826 238.343" stroke="black" stroke-width="1.5" stroke-linecap="round" stroke-linejoin="round"/>
<path d="M152.011 229.562C152.011 229.562 153.503 231.392 154.419 232.831C154.899 233.586 154.819 236.3 154.728 237.017C154.415 239.478 153.256 239.322 152.631 237.838C152.044 236.443 152.24 235.202 151.525 233.975" stroke="black" stroke-width="1.5" stroke-linecap="round" stroke-linejoin="round"/>
<path d="M149.106 229.922C149.106 229.922 150.671 232.178 151.431 233.731C151.824 234.535 151.579 237.004 151.326 237.681C150.939 238.721 150.53 239.138 149.836 238.74C148.846 238.173 149.457 235.841 148.742 234.615C148.075 233.47 145.965 230.551 145.965 230.551" stroke="black" stroke-width="1.5" stroke-linecap="round" stroke-linejoin="round"/>
<path d="M147.683 233.078C148.435 235.404 147.784 236.34 147.491 236.863C146.992 237.752 146.256 237.64 145.965 236.919C145.577 235.961 145.336 234.225 145.007 233.749C144.324 232.76 142.889 231.435 142.889 231.435" stroke="black" stroke-width="1.5" stroke-linecap="round" stroke-linejoin="round"/>
<path d="M86.4746 270.153C86.9411 270.039 87.4006 269.9 87.8493 269.736L139.136 249.597L132.488 229.266L98.481 240.412L86.5105 244.224" fill="#FDFDFF"/>
<path d="M86.4746 270.153C86.9411 270.039 87.4006 269.9 87.8493 269.736L139.136 249.597L132.488 229.266L98.481 240.412L86.5105 244.224" stroke="black" stroke-width="1.5" stroke-linecap="round" stroke-linejoin="round"/>
<path d="M97.8652 240.609L100.967 229.594" stroke="black" stroke-width="1.5" stroke-linecap="round" stroke-linejoin="round"/>
<path d="M79.4157 269.897C81.7877 270.659 86.47 270.146 86.47 270.146L86.2234 279.054L149.009 278.923L148.5 267.232L150.934 272.993C153.312 277.555 158.254 279.93 163.081 279.297L213.858 271.806L210.354 253.29L170.224 253.525L154.055 214.37C153.187 212.267 151.948 210.319 150.304 208.746C147.955 206.498 144.976 204.977 141.918 204.64C141.918 204.64 140.517 204.557 139.998 204.588L128.256 204.437C128.266 205.692 127.945 212.759 119.463 212.354C111.557 211.975 110.343 206.101 110.156 204.204L96.4004 204.028C91.6714 203.976 87.3997 205.366 84.9237 207.807C82.5673 210.13 81.1395 213.775 80.0913 217.025L71.1839 253.177L71.0542 253.587C68.8532 260.399 72.601 267.699 79.4168 269.897L79.4157 269.897Z" fill="black"/>
<path d="M148.533 267.913L147.023 232.983" stroke="#FEFFFF" stroke-width="1.5" stroke-linecap="round" stroke-linejoin="round"/>
<path d="M210.469 255.533C210.469 255.533 218.824 254.125 221.151 252.925C222.203 252.383 224.185 249.93 225.052 248.881C225.919 247.832 227.486 247.361 227.433 248.493C227.423 248.69 227.255 249.12 227.014 249.638C227.117 249.512 227.211 249.39 227.288 249.278C229.327 246.308 231.114 246.321 231.07 247.537C231.062 247.751 230.897 248.192 230.639 248.752C231.803 247.416 233.004 246.506 233.917 247.334C234.304 247.685 233.711 248.987 232.849 250.531C233.032 250.37 233.217 250.229 233.402 250.118C233.983 249.769 234.645 249.915 234.649 250.353C234.665 251.865 232.29 256.881 228.261 260.435C227.584 261.033 226.11 261.979 224.335 263.035C225.67 263.26 227.037 263.726 227.391 264.683C227.925 266.126 226.489 266.255 223.05 265.89C222.085 265.788 220.421 265.931 218.913 266.115C215.717 267.872 212.969 269.309 212.969 269.309L210.469 255.533L210.469 255.533Z" fill="#FFFDFD"/>
<path d="M218.738 265.99C218.738 265.99 220.969 265.669 223.051 265.889C226.49 266.254 227.926 266.125 227.392 264.683C226.646 262.669 221.426 262.828 221.426 262.828" stroke="black" stroke-width="1.5" stroke-linecap="round" stroke-linejoin="round"/>
<path d="M213.131 269.308C213.131 269.308 225.811 262.596 228.261 260.435C232.289 256.88 235.11 251.686 234.649 250.352C234.468 249.83 233.982 249.768 233.401 250.117C233.254 250.206 233.107 250.313 232.961 250.434" fill="white"/>
<path d="M213.131 269.308C213.131 269.308 225.811 262.596 228.261 260.435C232.289 256.88 235.11 251.686 234.649 250.352C234.468 249.83 233.982 249.768 233.401 250.117C233.254 250.206 233.107 250.313 232.961 250.434" stroke="black" stroke-width="1.5" stroke-linecap="round" stroke-linejoin="round"/>
<path d="M225.303 259.562C225.303 259.562 226.412 258.834 227.122 258.348C228.432 257.452 229.921 255.519 231.115 253.492C232.613 250.95 234.651 248.065 233.918 247.334C233.002 246.418 231.873 247.289 230.641 248.752" stroke="black" stroke-width="1.5" stroke-linecap="round" stroke-linejoin="round"/>
<path d="M223.76 257.378C223.76 257.378 225.744 256.055 226.525 255.284C227.963 253.867 231.036 248.498 231.07 247.537C231.114 246.321 229.327 246.308 227.288 249.278C227.211 249.391 227.119 249.512 227.016 249.639" stroke="black" stroke-width="1.5" stroke-linecap="round" stroke-linejoin="round"/>
<path d="M222.225 255.382C222.225 255.382 224.856 253.569 225.358 252.749C225.859 251.928 227.404 249.101 227.433 248.493C227.485 247.361 225.918 247.833 225.052 248.881C224.185 249.93 222.204 252.382 221.151 252.925C218.824 254.124 210.469 255.533 210.469 255.533L213.131 269.308" stroke="black" stroke-width="1.5" stroke-linecap="round" stroke-linejoin="round"/>
<path d="M160.856 229.229C159.134 228.349 154.238 226.902 147.432 227.8C143.726 228.289 127.46 234.464 124.096 235.752L137.606 247.631C137.606 247.631 149.537 239.767 151.506 238.914C151.975 238.711 152.436 238.513 152.883 238.32C153.471 239.233 154.294 239.188 154.642 237.53C156.548 236.628 157.751 235.825 157.141 235.071C156.572 234.368 155.843 234.238 154.76 234.407C154.711 233.738 154.61 233.13 154.42 232.83C154.027 232.212 153.527 231.523 153.085 230.936C155.49 230.748 157.544 230.745 160.377 230.876C161.16 230.912 161.665 229.641 160.856 229.228L160.856 229.229Z" fill="#FFFDFD"/>
<path d="M154.703 237.501C156.574 236.611 157.742 235.817 157.138 235.071C156.578 234.378 155.861 234.242 154.803 234.4" stroke="black" stroke-width="1.5" stroke-linecap="round" stroke-linejoin="round"/>
<path d="M153.191 230.927C155.551 230.747 157.583 230.748 160.375 230.877C161.158 230.913 161.663 229.643 160.854 229.229C159.132 228.349 154.237 226.902 147.43 227.8C143.724 228.289 127.458 234.464 124.094 235.752L137.604 247.631C137.604 247.631 149.535 239.767 151.504 238.914C151.954 238.719 152.397 238.529 152.826 238.343" stroke="black" stroke-width="1.5" stroke-linecap="round" stroke-linejoin="round"/>
<path d="M152.011 229.562C152.011 229.562 153.503 231.392 154.419 232.831C154.899 233.586 154.819 236.3 154.728 237.017C154.415 239.478 153.256 239.322 152.631 237.838C152.044 236.443 152.24 235.202 151.525 233.975" stroke="black" stroke-width="1.5" stroke-linecap="round" stroke-linejoin="round"/>
<path d="M149.106 229.922C149.106 229.922 150.671 232.178 151.431 233.731C151.824 234.535 151.579 237.004 151.326 237.681C150.939 238.721 150.53 239.138 149.836 238.74C148.846 238.173 149.457 235.841 148.742 234.615C148.075 233.47 145.965 230.551 145.965 230.551" stroke="black" stroke-width="1.5" stroke-linecap="round" stroke-linejoin="round"/>
<path d="M147.683 233.078C148.435 235.404 147.784 236.34 147.491 236.863C146.992 237.752 146.256 237.64 145.965 236.919C145.577 235.961 145.336 234.225 145.007 233.749C144.324 232.76 142.889 231.435 142.889 231.435" stroke="black" stroke-width="1.5" stroke-linecap="round" stroke-linejoin="round"/>
<path d="M86.4746 270.153C86.9411 270.039 87.4006 269.9 87.8493 269.736L139.136 249.597L132.488 229.266L98.481 240.412L86.5105 244.224" fill="black"/>
<path d="M86.4746 270.153C86.9411 270.039 87.4006 269.9 87.8493 269.736L139.136 249.597L132.488 229.266L98.481 240.412L86.5105 244.224" stroke="#FEFFFF" stroke-width="1.5" stroke-linecap="round" stroke-linejoin="round"/>
<path d="M97.8652 240.609L100.967 229.594" stroke="#FEFFFF" stroke-width="1.5" stroke-linecap="round" stroke-linejoin="round"/>
<path d="M79.4157 269.897C81.7877 270.659 84.2171 270.695 86.47 270.146C86.4909 275.475 86.5113 279.053 86.5113 279.053L149.009 278.923L148.5 267.232L150.934 272.992C153.312 277.555 158.254 279.929 163.081 279.296L213.587 271.908L210.042 253.29L170.224 253.524L154.055 214.369C153.187 212.266 151.948 210.318 150.304 208.745C147.955 206.497 144.976 204.976 141.918 204.639C141.918 204.639 140.517 204.556 139.998 204.587L128.256 204.436C128.266 205.691 127.945 212.758 119.463 212.353C111.557 211.974 110.343 206.1 110.156 204.203L96.4004 204.027C91.6714 203.975 87.3997 205.365 84.9237 207.806C82.5673 210.129 81.1395 213.774 80.0913 217.024L71.1839 253.176L71.0542 253.586C68.8532 260.398 72.601 267.698 79.4168 269.896L79.4157 269.897Z" fill="#FDFDFF" stroke="black" stroke-width="1.5" stroke-linecap="round" stroke-linejoin="round"/>
<path d="M120.885 212.349L120.936 278.982" stroke="black" stroke-width="1.5" stroke-linecap="round" stroke-linejoin="round"/>
<path d="M120.865 212.369C120.865 212.369 123.466 218.43 128.241 215.132C133.79 211.301 128.257 204.437 128.257 204.437C128.267 205.618 127.982 211.944 120.886 212.348L120.865 212.369Z" fill="#936AF7" stroke="black" stroke-width="1.5" stroke-linecap="round" stroke-linejoin="round"/>
<path d="M113.614 216.445C119.453 218.29 120.866 212.37 120.866 212.37L120.84 212.349C120.409 212.375 119.947 212.375 119.464 212.354C111.761 211.981 110.406 206.397 110.167 204.359L110.079 204.292C108.319 206.07 107.774 214.604 113.614 216.445Z" fill="#936AF7" stroke="black" stroke-width="1.5" stroke-linecap="round" stroke-linejoin="round"/>
<path d="M210.469 255.533C210.469 255.533 218.824 254.125 221.151 252.925C222.203 252.383 224.185 249.93 225.052 248.881C225.919 247.832 227.486 247.361 227.433 248.493C227.423 248.69 227.255 249.12 227.014 249.638C227.117 249.512 227.211 249.39 227.288 249.278C229.327 246.308 231.114 246.321 231.07 247.537C231.062 247.751 230.897 248.192 230.639 248.752C231.803 247.416 233.004 246.506 233.917 247.334C234.304 247.685 233.711 248.987 232.849 250.531C233.032 250.37 233.217 250.229 233.402 250.118C233.983 249.769 234.645 249.915 234.649 250.353C234.665 251.865 232.29 256.881 228.261 260.435C227.584 261.033 226.11 261.979 224.335 263.035C225.67 263.26 227.037 263.726 227.391 264.683C227.925 266.126 226.489 266.255 223.05 265.89C222.085 265.788 220.421 265.931 218.913 266.115C215.717 267.872 213.132 269.309 213.132 269.309L210.469 255.533L210.469 255.533Z" fill="#FFFDFD"/>
<path d="M218.738 265.99C218.738 265.99 220.969 265.669 223.051 265.889C226.49 266.254 227.926 266.125 227.392 264.683C226.646 262.669 221.426 262.828 221.426 262.828" stroke="black" stroke-width="1.5" stroke-linecap="round" stroke-linejoin="round"/>
<path d="M213.131 269.308C213.131 269.308 225.811 262.596 228.261 260.435C232.289 256.88 235.11 251.686 234.649 250.352C234.468 249.83 233.982 249.768 233.401 250.117C233.254 250.206 233.107 250.313 232.961 250.434" fill="white"/>
<path d="M213.131 269.308C213.131 269.308 225.811 262.596 228.261 260.435C232.289 256.88 235.11 251.686 234.649 250.352C234.468 249.83 233.982 249.768 233.401 250.117C233.254 250.206 233.107 250.313 232.961 250.434" stroke="black" stroke-width="1.5" stroke-linecap="round" stroke-linejoin="round"/>
<path d="M225.303 259.562C225.303 259.562 226.412 258.834 227.122 258.348C228.432 257.452 229.921 255.519 231.115 253.492C232.613 250.95 234.651 248.065 233.918 247.334C233.002 246.418 231.873 247.289 230.641 248.752" stroke="black" stroke-width="1.5" stroke-linecap="round" stroke-linejoin="round"/>
<path d="M223.76 257.378C223.76 257.378 225.744 256.055 226.525 255.284C227.963 253.867 231.036 248.498 231.07 247.537C231.114 246.321 229.327 246.308 227.288 249.278C227.211 249.391 227.119 249.512 227.016 249.639" stroke="black" stroke-width="1.5" stroke-linecap="round" stroke-linejoin="round"/>
<path d="M222.225 255.382C222.225 255.382 224.856 253.569 225.358 252.749C225.859 251.928 227.404 249.101 227.433 248.493C227.485 247.361 225.918 247.833 225.052 248.881C224.185 249.93 222.204 252.382 221.151 252.925C218.824 254.124 210.469 255.533 210.469 255.533L213.131 269.308" stroke="black" stroke-width="1.5" stroke-linecap="round" stroke-linejoin="round"/>
<path d="M148.503 267.23L147.023 232.983" stroke="black" stroke-width="1.5" stroke-linecap="round" stroke-linejoin="round"/>
<path d="M160.856 229.229C159.134 228.349 154.238 226.902 147.432 227.8C143.726 228.289 127.46 234.464 124.096 235.752L137.606 247.631C137.606 247.631 149.537 239.767 151.506 238.914C151.975 238.711 152.436 238.513 152.883 238.32C153.471 239.233 154.294 239.188 154.642 237.53C156.548 236.628 157.751 235.825 157.141 235.071C156.572 234.368 155.843 234.238 154.76 234.407C154.711 233.738 154.61 233.13 154.42 232.83C154.027 232.212 153.527 231.523 153.085 230.936C155.49 230.748 157.544 230.745 160.377 230.876C161.16 230.912 161.665 229.641 160.856 229.228L160.856 229.229Z" fill="#FFFDFD"/>
<path d="M154.703 237.501C156.574 236.611 157.742 235.817 157.138 235.071C156.578 234.378 155.861 234.242 154.803 234.4" stroke="black" stroke-width="1.5" stroke-linecap="round" stroke-linejoin="round"/>
<path d="M153.191 230.927C155.551 230.747 157.583 230.748 160.375 230.877C161.158 230.913 161.663 229.643 160.854 229.229C159.132 228.349 154.237 226.902 147.43 227.8C143.724 228.289 127.458 234.464 124.094 235.752L137.604 247.631C137.604 247.631 149.535 239.767 151.504 238.914C151.954 238.719 152.397 238.529 152.826 238.343" stroke="black" stroke-width="1.5" stroke-linecap="round" stroke-linejoin="round"/>
<path d="M152.011 229.562C152.011 229.562 153.503 231.392 154.419 232.831C154.899 233.586 154.819 236.3 154.728 237.017C154.415 239.478 153.256 239.322 152.631 237.838C152.044 236.443 152.24 235.202 151.525 233.975" stroke="black" stroke-width="1.5" stroke-linecap="round" stroke-linejoin="round"/>
<path d="M149.106 229.922C149.106 229.922 150.671 232.178 151.431 233.731C151.824 234.535 151.579 237.004 151.326 237.681C150.939 238.721 150.53 239.138 149.836 238.74C148.846 238.173 149.457 235.841 148.742 234.615C148.075 233.47 145.965 230.551 145.965 230.551" stroke="black" stroke-width="1.5" stroke-linecap="round" stroke-linejoin="round"/>
<path d="M147.683 233.078C148.435 235.404 147.784 236.34 147.491 236.863C146.992 237.752 146.256 237.64 145.965 236.919C145.577 235.961 145.336 234.225 145.007 233.749C144.324 232.76 142.889 231.435 142.889 231.435" stroke="black" stroke-width="1.5" stroke-linecap="round" stroke-linejoin="round"/>
<path d="M86.4746 270.153C86.9411 270.039 87.4006 269.9 87.8493 269.736L139.136 249.597L132.488 229.266L98.481 240.412L86.5105 244.224" fill="#FDFDFF"/>
<path d="M86.4746 270.153C86.9411 270.039 87.4006 269.9 87.8493 269.736L139.136 249.597L132.488 229.266L98.481 240.412L86.5105 244.224" stroke="black" stroke-width="1.5" stroke-linecap="round" stroke-linejoin="round"/>
<path d="M97.8652 240.609L100.967 229.594" stroke="black" stroke-width="1.5" stroke-linecap="round" stroke-linejoin="round"/>
<path d="M71.1356 253.33L71.1844 253.179L80.0918 217.023C81.1416 213.772 82.5689 210.128 84.9243 207.804C87.3992 205.362 91.6725 203.977 96.3993 204.028L110.793 204.212L120.138 209.2L128.258 204.437L139.998 204.588C140.517 204.558 141.92 204.64 141.92 204.64C144.976 204.978 147.954 206.498 150.303 208.744C151.948 210.317 153.186 212.266 154.054 214.368L170.225 253.522L210.041 253.29L213.587 271.907L163.081 279.296C158.255 279.926 153.311 277.552 150.934 272.99L148.504 267.23L149.009 278.924L86.5108 279.054C86.5108 279.054 86.4931 275.472 86.4716 270.143C83.8342 270.787 80.9561 270.63 78.2179 269.443C72.0536 266.772 69.073 259.716 71.1362 253.329L71.1356 253.33Z" fill="#FDFDFF" stroke="black" stroke-width="1.5" stroke-linecap="round" stroke-linejoin="round"/>
<path d="M120.139 209.2L120.35 227.691" stroke="black" stroke-width="1.5" stroke-linecap="round" stroke-linejoin="round"/>
<path d="M109.86 200.394L107.326 204.035L114.674 215.926L120.138 209.201L109.86 200.394Z" fill="#FDFDFF" stroke="black" stroke-width="1.5" stroke-linecap="round" stroke-linejoin="round"/>
<path d="M120.139 209.201L125.938 215.315L131.12 204.441L128.539 201.042L120.139 209.201Z" fill="#FDFDFF" stroke="black" stroke-width="1.5" stroke-linecap="round" stroke-linejoin="round"/>
<path d="M210.469 255.533C210.469 255.533 218.824 254.125 221.151 252.925C222.203 252.383 224.185 249.93 225.052 248.881C225.919 247.832 227.486 247.361 227.433 248.493C227.423 248.69 227.255 249.12 227.014 249.638C227.117 249.512 227.211 249.39 227.288 249.278C229.327 246.308 231.114 246.321 231.07 247.537C231.062 247.751 230.897 248.192 230.639 248.752C231.803 247.416 233.004 246.506 233.917 247.334C234.304 247.685 233.711 248.987 232.849 250.531C233.032 250.37 233.217 250.229 233.402 250.118C233.983 249.769 234.645 249.915 234.649 250.353C234.665 251.865 232.29 256.881 228.261 260.435C227.584 261.033 226.11 261.979 224.335 263.035C225.67 263.26 227.037 263.726 227.391 264.683C227.925 266.126 226.489 266.255 223.05 265.89C222.085 265.788 220.421 265.931 218.913 266.115C215.717 267.872 213.106 269.173 213.106 269.173L210.469 255.533L210.469 255.533Z" fill="#FFFDFD"/>
<path d="M218.738 265.99C218.738 265.99 220.969 265.669 223.051 265.889C226.49 266.254 227.926 266.125 227.392 264.683C226.646 262.669 221.426 262.828 221.426 262.828" stroke="black" stroke-width="1.5" stroke-linecap="round" stroke-linejoin="round"/>
<path d="M213.131 269.308C213.131 269.308 225.811 262.596 228.261 260.435C232.289 256.88 235.11 251.686 234.649 250.352C234.468 249.83 233.982 249.768 233.401 250.117C233.254 250.206 233.107 250.313 232.961 250.434" fill="white"/>
<path d="M213.131 269.308C213.131 269.308 225.811 262.596 228.261 260.435C232.289 256.88 235.11 251.686 234.649 250.352C234.468 249.83 233.982 249.768 233.401 250.117C233.254 250.206 233.107 250.313 232.961 250.434" stroke="black" stroke-width="1.5" stroke-linecap="round" stroke-linejoin="round"/>
<path d="M225.303 259.562C225.303 259.562 226.412 258.834 227.122 258.348C228.432 257.452 229.921 255.519 231.115 253.492C232.613 250.95 234.651 248.065 233.918 247.334C233.002 246.418 231.873 247.289 230.641 248.752" stroke="black" stroke-width="1.5" stroke-linecap="round" stroke-linejoin="round"/>
<path d="M223.76 257.378C223.76 257.378 225.744 256.055 226.525 255.284C227.963 253.867 231.036 248.498 231.07 247.537C231.114 246.321 229.327 246.308 227.288 249.278C227.211 249.391 227.119 249.512 227.016 249.639" stroke="black" stroke-width="1.5" stroke-linecap="round" stroke-linejoin="round"/>
<path d="M222.225 255.382C222.225 255.382 224.856 253.569 225.358 252.749C225.859 251.928 227.404 249.101 227.433 248.493C227.485 247.361 225.918 247.833 225.052 248.881C224.185 249.93 222.204 252.382 221.151 252.925C218.824 254.124 210.469 255.533 210.469 255.533L213.131 269.308" stroke="black" stroke-width="1.5" stroke-linecap="round" stroke-linejoin="round"/>
<path d="M148.503 267.23L147.023 232.983" stroke="black" stroke-width="1.5" stroke-linecap="round" stroke-linejoin="round"/>
<path d="M160.856 229.229C159.134 228.349 154.238 226.902 147.432 227.8C143.726 228.289 127.46 234.464 124.096 235.752L137.606 247.631C137.606 247.631 149.537 239.767 151.506 238.914C151.975 238.711 152.436 238.513 152.883 238.32C153.471 239.233 154.294 239.188 154.642 237.53C156.548 236.628 157.751 235.825 157.141 235.071C156.572 234.368 155.843 234.238 154.76 234.407C154.711 233.738 154.61 233.13 154.42 232.83C154.027 232.212 153.527 231.523 153.085 230.936C155.49 230.748 157.544 230.745 160.377 230.876C161.16 230.912 161.665 229.641 160.856 229.228L160.856 229.229Z" fill="#FFFDFD"/>
<path d="M154.703 237.501C156.574 236.611 157.742 235.817 157.138 235.071C156.578 234.378 155.861 234.242 154.803 234.4" stroke="black" stroke-width="1.5" stroke-linecap="round" stroke-linejoin="round"/>
<path d="M153.191 230.927C155.551 230.747 157.583 230.748 160.375 230.877C161.158 230.913 161.663 229.643 160.854 229.229C159.132 228.349 154.237 226.902 147.43 227.8C143.724 228.289 127.458 234.464 124.094 235.752L137.604 247.631C137.604 247.631 149.535 239.767 151.504 238.914C151.954 238.719 152.397 238.529 152.826 238.343" stroke="black" stroke-width="1.5" stroke-linecap="round" stroke-linejoin="round"/>
<path d="M152.011 229.562C152.011 229.562 153.503 231.392 154.419 232.831C154.899 233.586 154.819 236.3 154.728 237.017C154.415 239.478 153.256 239.322 152.631 237.838C152.044 236.443 152.24 235.202 151.525 233.975" stroke="black" stroke-width="1.5" stroke-linecap="round" stroke-linejoin="round"/>
<path d="M149.106 229.922C149.106 229.922 150.671 232.178 151.431 233.731C151.824 234.535 151.579 237.004 151.326 237.681C150.939 238.721 150.53 239.138 149.836 238.74C148.846 238.173 149.457 235.841 148.742 234.615C148.075 233.47 145.965 230.551 145.965 230.551" stroke="black" stroke-width="1.5" stroke-linecap="round" stroke-linejoin="round"/>
<path d="M147.683 233.078C148.435 235.404 147.784 236.34 147.491 236.863C146.992 237.752 146.256 237.64 145.965 236.919C145.577 235.961 145.336 234.225 145.007 233.749C144.324 232.76 142.889 231.435 142.889 231.435" stroke="black" stroke-width="1.5" stroke-linecap="round" stroke-linejoin="round"/>
<path d="M86.4746 270.153C86.9411 270.039 87.4006 269.9 87.8493 269.736L139.136 249.597L132.488 229.266L98.481 240.412L86.5105 244.224" fill="#FDFDFF"/>
<path d="M86.4746 270.153C86.9411 270.039 87.4006 269.9 87.8493 269.736L139.136 249.597L132.488 229.266L98.481 240.412L86.5105 244.224" stroke="black" stroke-width="1.5" stroke-linecap="round" stroke-linejoin="round"/>
<path d="M97.8652 240.609L100.967 229.594" stroke="black" stroke-width="1.5" stroke-linecap="round" stroke-linejoin="round"/>
<path d="M79.4152 269.897C81.7872 270.659 86.4695 270.146 86.4695 270.146L86.2116 279.197L149.009 278.923L148.5 267.232L150.934 272.992C153.312 277.555 158.254 279.929 163.081 279.296L213.858 271.806L210.354 253.289L170.224 253.524L154.055 214.369C153.187 212.267 151.948 210.319 150.304 208.745C147.955 206.497 144.976 204.976 141.918 204.639C141.918 204.639 140.517 204.556 139.998 204.587L128.256 204.437L120.138 209.201L110.156 204.204L96.4004 204.028C91.6714 203.976 87.3997 205.366 84.9237 207.807C82.5673 210.13 81.1395 213.775 80.0913 217.025L71.1839 253.177L71.0542 253.587C68.8532 260.399 72.601 267.699 79.4168 269.897L79.4152 269.897Z" fill="black"/>
<path d="M237.074 251.049H149.256C148.432 251.049 147.764 251.717 147.764 252.54V252.541C147.764 253.364 148.432 254.032 149.256 254.032H237.074C237.898 254.032 238.566 253.364 238.566 252.541V252.54C238.566 251.717 237.898 251.049 237.074 251.049Z" fill="white" stroke="black" stroke-width="1.5" stroke-linecap="round" stroke-linejoin="round"/>
<path d="M239.504 254.032H179.692C178.238 254.032 177.155 252.691 177.463 251.271L186.944 207.563C187.166 206.541 188.071 205.812 189.118 205.812H247.206C248.624 205.812 249.68 207.119 249.38 208.504L239.504 254.032Z" fill="black" stroke="black" stroke-width="1.5" stroke-linecap="round" stroke-linejoin="round"/>
<path d="M238.272 254.032H181.304C179.537 254.032 178.221 252.402 178.595 250.677L187.947 207.563C188.169 206.541 189.074 205.812 190.121 205.812H248.712C249.872 205.812 250.735 206.88 250.49 208.013L240.981 251.849C240.705 253.123 239.576 254.032 238.272 254.032Z" fill="white" stroke="black" stroke-width="1.5" stroke-linecap="round" stroke-linejoin="round"/>
<path d="M215.522 234.213C217.856 234.213 219.748 232.324 219.748 229.993C219.748 227.662 217.856 225.772 215.522 225.772C213.189 225.772 211.297 227.662 211.297 229.993C211.297 232.324 213.189 234.213 215.522 234.213Z" fill="white" stroke="black" stroke-width="1.5" stroke-linecap="round" stroke-linejoin="round"/>
<path d="M109.861 200.394L107.121 204.331L114.675 215.926L120.139 209.201L109.861 200.394Z" fill="#FDFDFF" stroke="black" stroke-width="1.5" stroke-linecap="round" stroke-linejoin="round"/>
<path d="M120.139 209.201L125.938 215.315L131.311 204.692L128.539 201.042L120.139 209.201Z" fill="#FDFDFF" stroke="black" stroke-width="1.5" stroke-linecap="round" stroke-linejoin="round"/>
<path d="M148.533 267.913L147.023 232.983" stroke="#FEFFFF" stroke-width="1.5" stroke-linecap="round" stroke-linejoin="round"/>
<path d="M210.469 255.533C210.469 255.533 218.824 254.125 221.151 252.925C222.203 252.383 224.185 249.93 225.052 248.881C225.919 247.832 227.486 247.361 227.433 248.493C227.423 248.69 227.255 249.12 227.014 249.638C227.117 249.512 227.211 249.39 227.288 249.278C229.327 246.308 231.114 246.321 231.07 247.537C231.062 247.751 230.897 248.192 230.639 248.752C231.803 247.416 233.004 246.506 233.917 247.334C234.304 247.685 233.711 248.987 232.849 250.531C233.032 250.37 233.217 250.229 233.402 250.118C233.983 249.769 234.645 249.915 234.649 250.353C234.665 251.865 232.29 256.881 228.261 260.435C227.584 261.033 226.11 261.979 224.335 263.035C225.67 263.26 227.037 263.726 227.391 264.683C227.925 266.126 226.489 266.255 223.05 265.89C222.085 265.788 220.421 265.931 218.913 266.115C215.717 267.872 212.969 269.309 212.969 269.309L210.469 255.533L210.469 255.533Z" fill="#FFFDFD"/>
<path d="M218.738 265.99C218.738 265.99 220.969 265.669 223.051 265.889C226.49 266.254 227.926 266.125 227.392 264.683C226.646 262.669 221.426 262.828 221.426 262.828" stroke="black" stroke-width="1.5" stroke-linecap="round" stroke-linejoin="round"/>
<path d="M213.131 269.308C213.131 269.308 225.811 262.596 228.261 260.435C232.289 256.88 235.11 251.686 234.649 250.352C234.468 249.83 233.982 249.768 233.401 250.117C233.254 250.206 233.107 250.313 232.961 250.434" fill="white"/>
<path d="M213.131 269.308C213.131 269.308 225.811 262.596 228.261 260.435C232.289 256.88 235.11 251.686 234.649 250.352C234.468 249.83 233.982 249.768 233.401 250.117C233.254 250.206 233.107 250.313 232.961 250.434" stroke="black" stroke-width="1.5" stroke-linecap="round" stroke-linejoin="round"/>
<path d="M225.303 259.562C225.303 259.562 226.412 258.834 227.122 258.348C228.432 257.452 229.921 255.519 231.115 253.492C232.613 250.95 234.651 248.065 233.918 247.334C233.002 246.418 231.873 247.289 230.641 248.752" stroke="black" stroke-width="1.5" stroke-linecap="round" stroke-linejoin="round"/>
<path d="M223.76 257.378C223.76 257.378 225.744 256.055 226.525 255.284C227.963 253.867 231.036 248.498 231.07 247.537C231.114 246.321 229.327 246.308 227.288 249.278C227.211 249.391 227.119 249.512 227.016 249.639" stroke="black" stroke-width="1.5" stroke-linecap="round" stroke-linejoin="round"/>
<path d="M222.225 255.382C222.225 255.382 224.856 253.569 225.358 252.749C225.859 251.928 227.404 249.101 227.433 248.493C227.485 247.361 225.918 247.833 225.052 248.881C224.185 249.93 222.204 252.382 221.151 252.925C218.824 254.124 210.469 255.533 210.469 255.533L213.131 269.308" stroke="black" stroke-width="1.5" stroke-linecap="round" stroke-linejoin="round"/>
<path d="M160.856 229.229C159.134 228.349 154.238 226.902 147.432 227.8C143.726 228.289 127.46 234.464 124.096 235.752L137.606 247.631C137.606 247.631 149.537 239.767 151.506 238.914C151.975 238.711 152.436 238.513 152.883 238.32C153.471 239.233 154.294 239.188 154.642 237.53C156.548 236.628 157.751 235.825 157.141 235.071C156.572 234.368 155.843 234.238 154.76 234.407C154.711 233.738 154.61 233.13 154.42 232.83C154.027 232.212 153.527 231.523 153.085 230.936C155.49 230.748 157.544 230.745 160.377 230.876C161.16 230.912 161.665 229.641 160.856 229.228L160.856 229.229Z" fill="#FFFDFD"/>
<path d="M154.703 237.501C156.574 236.611 157.742 235.817 157.138 235.071C156.578 234.378 155.861 234.242 154.803 234.4" stroke="black" stroke-width="1.5" stroke-linecap="round" stroke-linejoin="round"/>
<path d="M153.191 230.927C155.551 230.747 157.583 230.748 160.375 230.877C161.158 230.913 161.663 229.643 160.854 229.229C159.132 228.349 154.237 226.902 147.43 227.8C143.724 228.289 127.458 234.464 124.094 235.752L137.604 247.631C137.604 247.631 149.535 239.767 151.504 238.914C151.954 238.719 152.397 238.529 152.826 238.343" stroke="black" stroke-width="1.5" stroke-linecap="round" stroke-linejoin="round"/>
<path d="M152.011 229.562C152.011 229.562 153.503 231.392 154.419 232.831C154.899 233.586 154.819 236.3 154.728 237.017C154.415 239.478 153.256 239.322 152.631 237.838C152.044 236.443 152.24 235.202 151.525 233.975" stroke="black" stroke-width="1.5" stroke-linecap="round" stroke-linejoin="round"/>
<path d="M149.106 229.922C149.106 229.922 150.671 232.178 151.431 233.731C151.824 234.535 151.579 237.004 151.326 237.681C150.939 238.721 150.53 239.138 149.836 238.74C148.846 238.173 149.457 235.841 148.742 234.615C148.075 233.47 145.965 230.551 145.965 230.551" stroke="black" stroke-width="1.5" stroke-linecap="round" stroke-linejoin="round"/>
<path d="M147.683 233.078C148.435 235.404 147.784 236.34 147.491 236.863C146.992 237.752 146.256 237.64 145.965 236.919C145.577 235.961 145.336 234.225 145.007 233.749C144.324 232.76 142.889 231.435 142.889 231.435" stroke="black" stroke-width="1.5" stroke-linecap="round" stroke-linejoin="round"/>
<path d="M86.4746 270.153C86.9411 270.039 87.4006 269.9 87.8493 269.736L139.136 249.597L132.488 229.266L98.481 240.412L86.5105 244.224" fill="black"/>
<path d="M86.4746 270.153C86.9411 270.039 87.4006 269.9 87.8493 269.736L139.136 249.597L132.488 229.266L98.481 240.412L86.5105 244.224" stroke="#FEFFFF" stroke-width="1.5" stroke-linecap="round" stroke-linejoin="round"/>
<path d="M97.8652 240.609L100.967 229.594" stroke="#FEFFFF" stroke-width="1.5" stroke-linecap="round" stroke-linejoin="round"/>
<path d="M269.305 378.4H241.891L239.22 375.066C239.22 375.066 238.533 376.891 237.88 378.4H231.142L230.711 361.323L251.261 360.869C251.261 360.869 255.006 369.57 261.853 370.138C272.658 371.037 269.304 378.4 269.304 378.4H269.305Z" fill="white" stroke="black" stroke-width="1.5" stroke-linecap="round" stroke-linejoin="round"/>
<path d="M86.5101 279.055L113.106 278.53L182.896 263.527C195.382 259.397 203.84 262.565 209.669 273.211L257.012 361.781L227.443 373.671L185.311 299.878L129.5 313.987C126.333 314.943 123.053 315.479 119.746 315.574C119.534 315.58 119.368 315.584 119.266 315.586C112.575 315.696 103.87 314.271 96.5767 307.441C88.4993 299.875 85.9563 289.957 86.5101 279.055V279.055Z" fill="white" stroke="black" stroke-width="1.5" stroke-linecap="round" stroke-linejoin="round"/>
<path d="M541.195 378.395H453.242" stroke="black" stroke-width="1.5" stroke-linecap="round" stroke-linejoin="round"/>
<path d="M446.26 333.966L447.196 363.528H466.045L466.865 334.334L446.26 333.966Z" fill="#FFFDFD" stroke="black" stroke-width="1.5" stroke-miterlimit="10"/>
<path d="M467.429 378.455H460.616C459.956 376.93 458.736 375.084 458.736 375.084L456.561 378.455H428.841C428.841 378.455 425.423 369.535 436.375 369.053C447.951 368.544 446.339 354.289 446.339 354.289H454.647L457.195 359.651L460.068 354.289H466.815L467.429 378.456V378.455Z" fill="white" stroke="black" stroke-width="1.5" stroke-linecap="round" stroke-linejoin="round"/>
<path d="M465.096 333.519L485.294 355.149L499.478 342.749L480.842 320.241L465.096 333.519Z" fill="#FFFDFD" stroke="black" stroke-width="1.5" stroke-miterlimit="10"/>
<path d="M510.363 353.071L505.237 357.553C503.734 356.839 501.599 356.252 501.599 356.252L502.185 360.22L481.326 378.456C481.326 378.456 472.871 373.992 480.795 366.424C489.17 358.426 478.556 348.759 478.556 348.759L484.808 343.294L490.262 345.653L488.887 339.728L493.964 335.29L510.363 353.071L510.363 353.071Z" fill="white" stroke="black" stroke-width="1.5" stroke-linecap="round" stroke-linejoin="round"/>
<path d="M404.778 277.597L463.196 345.606L494.651 321.968L439.686 255.753L453.611 170.995L415.15 170.523L398.337 252.009C396.935 261.01 399.282 270.331 404.778 277.597Z" fill="#936AF7"/>
<path d="M437.811 225.169L430.85 251.634C429.977 257.561 431.54 261.493 435.185 266.251L486.582 327.325" stroke="#FDFDFD" stroke-width="8" stroke-miterlimit="10"/>
<path d="M449.772 196.819L439.699 255.758L494.605 321.906L463.24 345.665L404.816 277.649C399.278 270.355 396.921 260.986 398.35 251.943L415.15 170.523" stroke="black" stroke-width="1.5" stroke-linecap="round" stroke-linejoin="round"/>
<path d="M436.939 170.468L435.387 345.545L474.823 345.594L477.911 170.654" fill="#936AF7"/>
<path d="M469.475 170.875L465.801 345.143" stroke="white" stroke-width="8" stroke-miterlimit="10"/>
<path d="M436.163 204.097L435.386 345.545L474.823 345.594L477.91 170.654L415.15 170.523" stroke="black" stroke-width="1.5" stroke-linecap="round" stroke-linejoin="round"/>
<path d="M464.024 69.5996C464.381 67.0489 464.299 64.0805 463.58 60.6285C461.289 49.6263 453.851 42.0589 442.817 42.0396C431.783 42.0203 422.922 51.5959 422.902 62.8338L442.57 62.1366L449.069 82.6727C449.097 82.8424 449.127 83.0122 449.162 83.1819C450.479 89.5086 456.682 93.571 463.016 92.2553C469.351 90.9395 473.418 84.7446 472.101 78.418C471.197 74.077 467.993 70.8029 464.025 69.5996H464.024Z" fill="#936AF7" stroke="black" stroke-width="1.5" stroke-linecap="round" stroke-linejoin="round"/>
<path d="M453.923 74.0979C456.276 74.0615 458.149 72.0924 458.108 69.6992C458.067 67.4093 456.287 65.566 454.072 65.4434C452.317 57.7447 445.951 51.9558 437.873 52.0811C431.799 52.1753 429.64 55.4838 426.77 60.4373C425.251 63.0587 425.691 78.4308 427.739 81.7291C429.109 83.9349 431.561 85.4145 435.512 86.0636L435.704 95.018C435.704 95.018 435.187 103.663 444.594 103.209C454.136 102.748 454.041 94.3759 454.041 94.3759C454.041 94.3759 453.764 75.252 453.841 74.0947C453.869 74.0947 453.896 74.0979 453.923 74.0974L453.923 74.0979Z" fill="#FFFDFD" stroke="black" stroke-width="1.5" stroke-linecap="round" stroke-linejoin="round"/>
<path d="M443.526 84.437L435.683 93.3363L435.512 86.0634C435.512 86.0634 438.074 86.2942 440.435 85.6157C442.796 84.9372 443.526 84.437 443.526 84.437Z" fill="black" stroke="black" stroke-width="1.5" stroke-linecap="round" stroke-linejoin="round"/>
<path d="M427.956 50.8359L423.568 62.8102L442.57 62.1365L444.716 58.8334L446.291 62.0508C446.309 62.1 448.319 66.7735 454.145 65.672C454.175 65.6666 454.511 65.5938 454.511 65.5938L452.333 50.9944L427.956 50.8359Z" fill="#936AF7"/>
<path d="M422.902 62.8338L442.569 62.1366L444.716 58.8335L446.291 62.0509C446.309 62.1002 448.374 66.8711 454.495 65.4889" stroke="black" stroke-width="1.5" stroke-linecap="round" stroke-linejoin="round"/>
<path d="M439.495 66.7356L439.488 66.6617C439.492 66.5508 439.469 66.448 439.419 66.3522C439.387 66.2526 439.331 66.1663 439.253 66.0935C439.18 66.0153 439.093 65.9596 438.994 65.9275C438.898 65.8772 438.795 65.8541 438.684 65.8584L438.47 65.8873C438.334 65.9254 438.215 65.9944 438.115 66.094L437.989 66.2568C437.916 66.3822 437.879 66.5171 437.879 66.6622L437.886 66.7361C437.882 66.847 437.905 66.9498 437.956 67.0457C437.988 67.1453 438.044 67.2315 438.122 67.3043C438.195 67.3825 438.281 67.4382 438.381 67.4703C438.477 67.5207 438.58 67.5437 438.691 67.5394L438.905 67.5105C439.041 67.4725 439.159 67.4034 439.26 67.3038L439.386 67.141C439.458 67.0157 439.495 66.8807 439.495 66.7356Z" fill="black"/>
<path d="M430.343 67.3787L430.336 67.3048C430.34 67.1939 430.317 67.0911 430.266 66.9952C430.234 66.8956 430.179 66.8094 430.1 66.7366C430.027 66.6584 429.941 66.6027 429.841 66.5706C429.745 66.5202 429.642 66.4972 429.531 66.5015L429.317 66.5304C429.181 66.5684 429.063 66.6375 428.962 66.7371L428.836 66.8999C428.764 67.0252 428.727 67.1602 428.727 67.3053L428.734 67.3792C428.73 67.4901 428.753 67.5929 428.803 67.6887C428.835 67.7883 428.891 67.8746 428.969 67.9474C429.042 68.0256 429.129 68.0813 429.228 68.1134C429.324 68.1637 429.427 68.1868 429.538 68.1825L429.752 68.1536C429.888 68.1155 430.007 68.0465 430.107 67.9469L430.233 67.7841C430.306 67.6587 430.343 67.5238 430.343 67.3787Z" fill="black"/>
<path d="M433.546 71.1729L433.102 73.2657C433.02 73.6523 433.356 73.9988 433.744 73.9281L435.585 73.5907" stroke="black" stroke-width="1.5" stroke-linecap="round" stroke-linejoin="round"/>
<path d="M438.191 64.3123C438.191 64.3123 440.837 63.3805 442.2 65.1408" stroke="black" stroke-width="1.5" stroke-linecap="round" stroke-linejoin="round"/>
<path d="M441.24 75.5459C441.24 75.5459 440.446 78.4259 436.822 77.9445" stroke="black" stroke-width="1.5" stroke-linecap="round" stroke-linejoin="round"/>
<path d="M427.906 65.3772C427.906 65.3772 429.947 63.7123 431.918 64.7362" stroke="black" stroke-width="1.5" stroke-linecap="round" stroke-linejoin="round"/>
<path d="M316.944 67.9174C317.023 68.3871 317.656 69.6252 318.642 71.0716L318.633 71.0625C317.645 70.2351 317.311 70.9602 317.288 71.3522C317.142 73.8579 319.842 76.9029 325.02 81.4891C328.023 84.1485 335.596 89.4769 335.596 89.4769L348.817 81.2336C348.817 81.2336 339.731 74.0566 336.851 71.4925C334.007 68.9601 331.986 65.853 330.701 66.2016C329.519 66.5224 330.221 68.53 331.499 70.6925L331.697 70.813L331.632 70.8162C329.204 69.2348 325.867 67.0086 322.354 64.5099C321.925 64.2047 320.294 64.1238 321.168 66.0485L321.147 66.011C319.884 64.6459 318.619 63.8127 318.282 65.069C318.14 65.5986 318.554 66.5706 318.896 67.2668C317.786 66.2145 316.767 66.8699 316.944 67.9169V67.9174Z" fill="#FFFDFD"/>
<path d="M335.597 89.4765C335.597 89.4765 328.024 84.1475 325.021 81.4887C319.843 76.9025 317.143 73.8575 317.289 71.3518C317.312 70.9598 317.645 70.2342 318.634 71.0621" stroke="black" stroke-width="1.5" stroke-linecap="round" stroke-linejoin="round"/>
<path d="M348.818 81.2333C348.818 81.2333 339.73 74.0562 336.851 71.4922C334.008 68.9597 331.986 65.8526 330.701 66.2012C329.519 66.522 330.221 68.5297 331.499 70.6921" stroke="black" stroke-width="1.5" stroke-linecap="round" stroke-linejoin="round"/>
<path d="M324.145 76.7338C320.373 74.3909 317.132 69.0239 316.944 67.917C316.767 66.8701 317.786 66.2135 318.898 67.2685" stroke="black" stroke-width="1.5" stroke-linecap="round" stroke-linejoin="round"/>
<path d="M325.963 74.5936C322.857 72.3803 320.232 69.8483 319.103 67.6795C318.761 67.0224 318.108 65.7141 318.28 65.0688C318.618 63.8125 319.883 64.6458 321.146 66.0108" stroke="black" stroke-width="1.5" stroke-linecap="round" stroke-linejoin="round"/>
<path d="M335.45 73.2555C335.45 73.2555 329.233 69.403 322.355 64.5094C321.915 64.1961 320.203 64.1131 321.233 66.1925C322.534 68.8214 327.934 72.1577 327.934 72.1577" stroke="black" stroke-width="1.5" stroke-linecap="round" stroke-linejoin="round"/>
<path d="M478.546 116.453C478.788 121.78 477.911 170.654 477.911 170.654L414.748 170.471L415.876 124.915L398.724 130.555L373.84 138.178L373.357 138.33C368.355 139.85 362.733 138.089 359.573 133.575L327.703 88.0607L345.186 74.8291L374.548 110.619C374.548 110.619 403.515 100.8 413.923 97.4082C416.379 96.606 419.833 95.2378 426.583 95.2378L435.7 95.1381C435.679 96.1813 435.842 103.631 444.591 103.212C452.627 102.824 453.829 96.8266 454.008 94.9389L467.439 94.7922C488.791 94.0478 478.53 116.081 478.545 116.453H478.546Z" fill="black"/>
<path d="M477.378 162.234L474.29 163.592L472.759 164.37C469.114 164.185 465.091 163.313 464.663 164.498C464.409 165.202 465.904 166.039 467.724 166.745C467.724 166.745 466.609 167.397 466.368 167.575C461.568 171.111 457.765 177.283 458.237 178.215C458.46 178.656 458.894 178.958 459.568 178.633C459.742 178.548 459.919 178.438 460.096 178.314C459.213 179.715 458.714 180.874 459.238 181.388C459.933 182.07 460.673 181.819 461.432 181.132C461.401 181.32 461.412 181.473 461.477 181.581C462.439 183.174 464.048 181.66 465.216 180.045C465.272 179.966 465.355 179.865 465.447 179.753C465.252 180.187 465.13 180.54 465.1 180.746C464.911 182.021 466.662 182.258 467.737 180.594C471.552 174.699 478.728 176.984 489.038 167.252L477.378 162.234Z" fill="#FFFDFD" stroke="black" stroke-width="1.5" stroke-linecap="round" stroke-linejoin="round"/>
<path d="M460.158 178.214C460.81 177.192 461.591 176 462.452 174.932C465 171.773 466.08 170.789 467.365 169.919" fill="#FEFFFF"/>
<path d="M460.158 178.214C460.81 177.192 461.591 176 462.452 174.932C465 171.773 466.08 170.789 467.365 169.919" stroke="black" stroke-width="1.5" stroke-linecap="round" stroke-linejoin="round"/>
<path d="M468.789 172.277C468.789 172.277 468.27 172.582 467.33 173.36C465.726 174.685 461.499 179.663 461.416 181.267" fill="#FEFFFF"/>
<path d="M468.789 172.277C468.789 172.277 468.27 172.582 467.33 173.36C465.726 174.685 461.499 179.663 461.416 181.267" stroke="black" stroke-width="1.5" stroke-linecap="round" stroke-linejoin="round"/>
<path d="M470.268 174.222C470.268 174.222 468.604 175.41 467.854 176.18C466.688 177.378 465.796 178.926 465.369 179.928" fill="#FEFFFF"/>
<path d="M470.268 174.222C470.268 174.222 468.604 175.41 467.854 176.18C466.688 177.378 465.796 178.926 465.369 179.928" stroke="black" stroke-width="1.5" stroke-linecap="round" stroke-linejoin="round"/>
<path d="M485.751 174.105L514.386 143.41C514.827 142.934 515.287 142.367 515.66 141.811C519.554 136.018 518.009 128.168 512.208 124.278L511.791 123.999L477.596 97.3006C471.596 93.2773 466.16 96.9857 462.131 102.978C458.103 108.971 459.701 114.949 465.701 118.973L490.561 137.784L472.098 160.705L485.751 174.105Z" fill="black"/>
<path d="M478.274 153.048L472.076 160.78L474.538 163.291" stroke="#FEFFFF" stroke-width="1.5" stroke-linecap="round" stroke-linejoin="round"/>
<path d="M415.875 124.914V115.556" stroke="#FEFFFF" stroke-width="1.5" stroke-linecap="round" stroke-linejoin="round"/>
<path d="M474.346 125.451L478.477 128.534" stroke="#FEFFFF" stroke-width="1.5" stroke-linecap="round" stroke-linejoin="round"/>
</g>
<defs>
<clipPath id="clip0_232_1652">
<rect width="522" height="417" fill="white"/>
</clipPath>
</defs>
</svg>
