<svg width="525" height="532" viewBox="0 0 525 532" fill="none" xmlns="http://www.w3.org/2000/svg">
<g clip-path="url(#clip0_163_674)">
<path d="M117.675 88.7439L113.675 109.744L133.617 115.366L131.139 92.9461L117.675 88.7439Z" fill="#A0616A"/>
<path d="M0 523.444C0 524.104 0.53003 524.634 1.19006 524.634H523.48C524.14 524.634 524.67 524.104 524.67 523.444C524.67 522.784 524.14 522.254 523.48 522.254H1.19006C0.53003 522.254 0 522.784 0 523.444Z" fill="#3F3D56"/>
<path d="M356.037 238.309H150.369C127.046 238.309 108.139 257.216 108.139 280.539V479.971C108.139 503.294 127.046 522.201 150.369 522.201H356.037C379.36 522.201 398.267 503.294 398.267 479.971V280.539C398.267 257.216 379.36 238.309 356.037 238.309Z" fill="white"/>
<path d="M356.038 523.201H150.369C126.532 523.201 107.139 503.808 107.139 479.971V280.539C107.139 256.702 126.532 237.309 150.369 237.309H356.038C379.875 237.309 399.268 256.702 399.268 280.539V479.971C399.268 503.808 379.874 523.201 356.038 523.201ZM150.369 239.309C127.634 239.309 109.139 257.804 109.139 280.539V479.971C109.139 502.706 127.634 521.201 150.369 521.201H356.038C378.772 521.201 397.268 502.706 397.268 479.971V280.539C397.268 257.804 378.772 239.309 356.038 239.309L150.369 239.309Z" fill="#3F3D56"/>
<path d="M370.935 324.77H288.267C284.761 324.77 281.908 321.917 281.908 318.411C281.908 314.905 284.761 312.052 288.267 312.052H370.935C374.441 312.052 377.294 314.905 377.294 318.411C377.294 321.917 374.441 324.77 370.935 324.77Z" fill="#6C63FF"/>
<path d="M293.382 374.777H213.025C210.999 374.777 209.351 373.129 209.351 371.103C209.351 369.077 210.999 367.43 213.025 367.43H293.382C295.408 367.43 297.055 369.077 297.055 371.103C297.055 373.129 295.408 374.777 293.382 374.777Z" fill="#6C63FF"/>
<path d="M179.805 251.967H133.927C133.756 251.967 133.617 252.105 133.617 252.277V257.618C133.617 257.789 133.756 257.928 133.927 257.928H179.805C179.976 257.928 180.115 257.789 180.115 257.618V252.277C180.115 252.105 179.976 251.967 179.805 251.967Z" fill="#6C63FF"/>
<path d="M334.336 257.928C336.97 257.928 339.105 255.793 339.105 253.159C339.105 250.525 336.97 248.39 334.336 248.39C331.703 248.39 329.567 250.525 329.567 253.159C329.567 255.793 331.703 257.928 334.336 257.928Z" fill="#3F3D56"/>
<path d="M347.451 257.928C350.085 257.928 352.22 255.793 352.22 253.159C352.22 250.525 350.085 248.39 347.451 248.39C344.817 248.39 342.682 250.525 342.682 253.159C342.682 255.793 344.817 257.928 347.451 257.928Z" fill="#3F3D56"/>
<path d="M360.566 257.928C363.2 257.928 365.335 255.793 365.335 253.159C365.335 250.525 363.2 248.39 360.566 248.39C357.932 248.39 355.797 250.525 355.797 253.159C355.797 255.793 357.932 257.928 360.566 257.928Z" fill="#3F3D56"/>
<path d="M149.868 394.445C149.868 395.105 150.398 395.635 151.058 395.635H355.348C356.008 395.635 356.538 395.105 356.538 394.445C356.538 393.785 356.008 393.255 355.348 393.255H151.058C150.398 393.255 149.868 393.785 149.868 394.445Z" fill="#3F3D56"/>
<path d="M212.173 100.917C216.522 97.3234 221.902 96.6545 224.188 99.4227C226.475 102.191 224.802 107.347 220.451 110.942C218.733 112.401 216.69 113.428 214.493 113.936L195.873 128.93L189.023 120.042L208.107 106.205C209.02 104.143 210.415 102.33 212.173 100.917Z" fill="#A0616A"/>
<path d="M104.553 134.747C104.543 134.084 104.549 128.3 108.831 124.644C113.75 120.445 120.691 122.145 123.126 122.741C128.749 124.118 129.21 126.53 134.492 129.009C144.372 133.646 131.992 131.273 137.871 129.786C139.907 129.271 169.184 127.241 176.471 122.755C190.645 114.032 200.302 108.742 200.302 108.742L206.615 121.368C206.615 121.368 197.486 134.062 184.638 143.465C171.459 153.111 164.869 157.934 154.855 159.798C153.992 159.958 132.783 163.58 115.7 150.817C111.803 147.906 104.664 142.572 104.553 134.747Z" fill="#E6E6E6"/>
<path d="M124.136 102.635C136.282 102.635 146.129 92.7888 146.129 80.6426C146.129 68.4963 136.282 58.6499 124.136 58.6499C111.99 58.6499 102.144 68.4963 102.144 80.6426C102.144 92.7888 111.99 102.635 124.136 102.635Z" fill="#A0616A"/>
<path d="M296.374 228.398L273.725 205.214L262.033 217.41L278.908 239.639L295.646 241.554L296.374 228.398Z" fill="#A0616A"/>
<path d="M167.045 184.922C168.37 185.032 172.58 185.876 176.603 183.662C179.35 182.151 180.758 179.904 181.234 179.19C187.135 170.327 209.786 156.505 230.115 155.655C234.718 155.462 237.748 155.996 240.502 157.431C244.408 159.467 245.967 162.383 250.923 169.214C253.634 172.951 256.633 176.471 259.377 180.184C275.439 201.92 281.528 203.626 280.905 210.595C280.215 218.327 271.876 225.662 266.334 224.815C264.065 224.468 263.186 222.89 260.153 219.695C251.262 210.328 247.584 212.058 241.254 204.883C233.863 196.506 234.83 189.56 230.975 189.292C227.399 189.043 225.879 194.968 218.246 202.84C214.752 206.442 212.265 208.094 204.687 213.351C175.176 233.824 174.705 235.263 168.75 236.896C166.144 237.61 147.65 242.681 141.062 234.612C130.753 221.985 155.108 183.93 167.045 184.922Z" fill="#2F2E41"/>
<path d="M289.45 233.637C291.116 232.889 293.064 232.014 293.69 230.003C294.114 228.642 293.87 226.964 292.994 225.805C291.982 224.467 290.485 224.291 290.546 224.054C290.638 223.693 294.178 223.834 298.063 225.208C298.796 225.467 302.118 226.681 306.343 229.979C309.729 232.622 309.273 233.152 311.396 234.676C317.912 239.354 324.024 235.667 327.55 240.054C328.911 241.747 329.491 244.151 328.919 246.095C327.769 249.998 322.176 251.341 319.119 252.034C311.758 253.705 306.186 252.341 300.368 251.361C280.581 248.027 269.464 251.063 267.976 246.479C267.694 245.612 268.152 245.686 269.677 239.319C271.183 233.035 271.134 231.309 272.416 230.806C274.347 230.049 275.643 233.494 280.506 234.673C284.815 235.718 288.371 234.122 289.45 233.637Z" fill="#2F2E41"/>
<path d="M256.108 304.242L250.385 272.34L233.862 275.866L235.342 303.736L248.117 314.719L256.108 304.242Z" fill="#A0616A"/>
<path d="M173.507 195.645C174.541 196.48 177.551 199.542 182.124 199.97C185.245 200.262 187.672 199.194 188.466 198.87C198.327 194.85 224.83 196.133 242.129 206.844C246.046 209.27 248.254 211.413 249.727 214.147C251.815 218.025 251.468 221.313 251.732 229.748C251.877 234.363 252.382 238.96 252.568 243.572C253.653 270.577 257.733 275.409 253.305 280.825C248.392 286.835 237.373 288.222 233.263 284.41C231.579 282.848 231.738 281.049 231.023 276.702C228.927 263.958 224.911 263.325 223.702 253.833C222.291 242.751 226.992 237.547 223.952 235.16C221.133 232.946 216.548 236.996 205.811 239.223C200.898 240.242 197.912 240.212 188.69 240.307C152.775 240.676 151.577 241.602 145.732 239.608C143.175 238.736 125.025 232.547 124.105 222.171C122.665 205.934 164.187 188.122 173.507 195.645Z" fill="#2F2E41"/>
<path d="M247.436 304.689C249.234 305.006 251.337 305.376 252.985 304.064C254.1 303.176 254.84 301.65 254.766 300.198C254.681 298.523 253.541 297.537 253.724 297.375C254.003 297.129 256.853 299.233 259.296 302.551C259.757 303.177 261.824 306.047 263.468 311.149C264.785 315.237 264.111 315.42 265.012 317.873C267.777 325.402 274.904 325.784 275.359 331.394C275.534 333.559 274.664 335.874 273.099 337.16C269.956 339.744 264.574 337.715 261.655 336.573C254.626 333.821 250.781 329.564 246.517 325.486C232.017 311.616 221.113 307.886 222.456 303.257C222.71 302.381 223.047 302.699 227.884 298.288C232.659 293.934 233.587 292.478 234.931 292.782C236.953 293.239 236.091 296.818 239.453 300.524C242.432 303.809 246.271 304.484 247.436 304.689Z" fill="#2F2E41"/>
<path d="M127.135 84.847C127.991 81.7843 126.915 80.6682 128.011 79.2934C128.011 79.2934 128.453 78.7402 132.396 77.2474C131.232 70.497 132.104 69.3555 132.104 69.3555C133.108 68.04 135.119 67.7219 136.488 67.894C139.384 68.258 139.896 70.8757 141.749 70.817C144.309 70.7358 147.379 65.6121 146.426 61.1713C145.649 57.5488 142.297 54.8586 141.457 55.3255C140.624 55.7883 137.625 53.7474 136.488 54.1563C135.711 54.4356 132.056 54.064 131.227 54.4486C130.321 54.8686 127.729 57.4834 127.481 57.1539C125.759 54.8645 125.796 54.0651 124.796 53.5717C123.026 52.6974 121.101 54.3134 117.781 55.91C110.952 59.1951 108.952 57.2355 105.797 60.0021C104.204 61.3997 103.349 64.0706 101.705 69.3555C99.406 76.7463 98.2564 80.4417 99.3668 83.9701C100.499 87.5685 102.167 86.7853 104.628 91.862C107.368 97.5133 106.424 100.798 109.012 102.092C111.013 103.093 114.229 102.456 115.443 100.631C117.521 97.506 112.149 93.279 113.981 88.3545C115.106 85.3316 118.576 83.0396 120.704 83.6778C123.11 84.3995 123.287 88.7136 124.796 88.6468C126.088 88.5896 126.985 85.3807 127.135 84.847Z" fill="#2F2E41"/>
<path d="M110.474 105.892C114.974 100.846 133.306 106.069 135.026 114.076C135.734 117.37 133.121 118.761 133.857 122.553C134.933 128.099 141.026 127.721 145.549 133.368C151.97 141.384 145.355 149.22 152.564 162.597C154.104 165.455 155.403 167.865 158.117 170.197C164.347 175.547 170.145 173.712 173.317 178.673C175.689 182.383 174.714 186.955 174.486 188.026C173.55 192.418 171.012 193.489 169.224 197.087C166.25 203.075 169.618 207.471 169.809 214.625C170.048 223.576 165.292 235.983 155.779 240.054C145.092 244.628 132.202 237.053 125.965 229.532C122.243 225.044 121.163 220.904 119.535 215.794C112.258 192.957 108.147 195.022 102.582 176.919C96.2201 156.224 94.9694 131.979 102.582 124.307C103.591 123.29 106.367 120.939 108.135 116.707C110.514 111.012 108.459 108.151 110.474 105.892Z" fill="#E6E6E6"/>
<path d="M176.973 223.359C180.462 227.792 181.003 233.186 178.181 235.406C175.36 237.626 170.245 235.832 166.755 231.396C165.336 229.644 164.358 227.577 163.902 225.369L149.355 206.398L156.872 200.665L171.784 219.168C173.823 220.13 175.603 221.567 176.973 223.359Z" fill="#A0616A"/>
<path d="M123.697 125.123C124.344 124.979 130.008 123.805 134.461 127.251C139.575 131.209 139.328 138.351 139.241 140.856C139.04 146.642 136.772 147.586 135.423 153.262C132.9 163.88 137.706 173.749 140.361 179.201C141.281 181.088 144.233 186.863 150.112 193.082C161.544 205.177 171.744 211.542 171.744 211.542L160.786 221.282C160.786 221.282 143.331 215.962 131.504 205.303C119.371 194.369 100.714 155.684 96.8466 146.26C96.5135 145.449 101.232 158.642 110.24 139.315C112.295 134.906 116.06 126.829 123.697 125.123Z" fill="#E6E6E6"/>
<path d="M273.945 421.686C266.98 422.754 261.885 427.213 262.565 431.646C263.245 436.078 269.442 438.805 276.409 437.736C279.198 437.347 281.854 436.296 284.153 434.671L313.608 429.775L311.642 418.132L282.254 422.29C279.572 421.428 276.723 421.221 273.945 421.686Z" fill="#FFB6B6"/>
<path d="M400.87 385.395L389.449 409.63L332.034 428.958L284.391 431.499L283.198 420.056L334.832 409.26L387.814 384.223L400.87 385.395Z" fill="#E6E6E6"/>
<path d="M294.976 477.416L284.723 503.352L271.453 494.304L279.294 467.162L294.976 477.416Z" fill="#FFB6B6"/>
<path d="M252.152 467.765L225.01 493.701L235.867 505.161L263.612 483.447L252.152 467.765Z" fill="#FFB6B6"/>
<path d="M405.957 383.323L405.655 381.212L398.719 367.641L375.799 373.673L380.021 392.371L405.957 383.323Z" fill="#FFB6B6"/>
<path d="M396.306 473.797L397.011 482.856C397.011 482.856 399.925 520.843 376.402 523.859C352.879 526.874 342.625 529.89 328.753 506.367L307.039 467.765L294.356 482.856L277.484 469.574C277.484 469.574 289.548 422.528 299.198 420.719C300.404 420.493 301.611 420.379 302.798 420.355C310.788 420.188 318.319 424.096 323.099 430.5L350.466 467.162L360.418 462.638L396.306 473.797Z" fill="#2F2E41"/>
<path d="M266.024 502.145L271.452 491.892L287.134 502.748C287.134 502.748 290.753 516.018 285.325 517.827C279.896 519.637 264.818 517.224 264.818 517.224C264.818 517.224 237.072 523.256 236.469 517.827C235.866 512.399 249.135 511.193 249.135 511.193L266.024 502.145Z" fill="#2F2E41"/>
<path d="M325.133 494.907L283.214 468.494L261.802 487.669L247.326 470.781C247.326 470.781 273.865 431.576 281.706 429.766C289.547 427.957 302.213 426.75 302.213 426.75L340.816 462.337L325.133 494.907Z" fill="#2F2E41"/>
<path d="M224.406 491.288L238.279 506.367L236.45 507.932C236.45 507.932 232.851 523.607 224.406 518.304C215.962 513.002 215.359 511.795 215.359 511.795C215.359 511.795 191.233 517.224 188.82 507.573C186.408 497.923 193.042 499.732 193.042 499.732L199.067 503.351L224.406 491.288Z" fill="#2F2E41"/>
<path d="M383.036 380.307C393.696 380.307 402.337 371.666 402.337 361.006C402.337 350.347 393.696 341.705 383.036 341.705C372.377 341.705 363.735 350.347 363.735 361.006C363.735 371.666 372.377 380.307 383.036 380.307Z" fill="#FFB6B6"/>
<path d="M378.513 388.45L406.259 380.006C406.259 380.006 417.115 405.338 415.306 416.798C413.496 428.258 397.011 482.856 397.011 482.856L360.419 462.638C360.419 462.638 359.815 450.575 358.006 445.147C356.197 439.718 350.467 423.131 363.133 409.259C375.799 395.386 378.513 388.45 378.513 388.45Z" fill="#E6E6E6"/>
<path d="M317.448 515.102C312.933 520.511 312.064 527.226 315.507 530.099C318.95 532.972 325.4 530.916 329.917 525.503C331.75 523.366 333.046 520.821 333.694 518.081L352.536 494.919L343.358 487.491L324.077 510.056C321.496 511.184 319.223 512.915 317.448 515.102Z" fill="#FFB6B6"/>
<path d="M399.796 400.619L406.354 426.595L374.257 477.974L341.49 510.905L330.87 502.094L363.915 460.977L388.964 408L399.796 400.619Z" fill="#E6E6E6"/>
<path d="M365.244 357.689C370.194 357.677 370.475 357.71 371.276 357.689C377.415 357.527 379.02 355.112 382.132 355.276C387.687 355.57 380.356 383.417 377.307 396.291C374.317 408.917 384.422 420.231 385.148 421.02C395.405 432.175 413.421 434.215 416.512 429.465C419.015 425.62 410.147 419.774 412.29 411.37C414.386 403.155 424.061 404.03 426.766 396.291C429.598 388.186 420.08 384.099 414.1 364.324C410.665 352.967 411.273 350.851 408.068 343.816C399.502 325.014 357.515 333.02 362.228 350.451C363.14 353.823 360.713 357.7 365.244 357.689Z" fill="#2F2E41"/>
<path d="M426.876 128.561H224.026C218.289 128.561 213.622 123.894 213.622 118.157V10.4035C213.622 4.66733 218.289 0 224.026 0H426.876C432.613 0 437.28 4.66732 437.28 10.4035V118.157C437.28 123.894 432.613 128.561 426.876 128.561Z" fill="white"/>
<path d="M426.876 128.561H224.026C218.289 128.561 213.622 123.894 213.622 118.157V10.4035C213.622 4.66733 218.289 0 224.026 0H426.876C432.613 0 437.28 4.66732 437.28 10.4035V118.157C437.28 123.894 432.613 128.561 426.876 128.561ZM224.026 1.73731C219.247 1.73731 215.359 5.62505 215.359 10.4035V118.157C215.359 122.936 219.247 126.824 224.026 126.824H426.876C431.655 126.824 435.542 122.936 435.542 118.157V10.4035C435.542 5.62505 431.655 1.73731 426.876 1.73731H224.026Z" fill="#3F3D56"/>
<path d="M411.22 13.0298C412.659 13.0298 413.826 11.8631 413.826 10.4238C413.826 8.9846 412.659 7.81787 411.22 7.81787C409.781 7.81787 408.614 8.9846 408.614 10.4238C408.614 11.8631 409.781 13.0298 411.22 13.0298Z" fill="#3F3D56"/>
<path d="M418.169 13.0298C419.609 13.0298 420.775 11.8631 420.775 10.4238C420.775 8.9846 419.609 7.81787 418.169 7.81787C416.73 7.81787 415.563 8.9846 415.563 10.4238C415.563 11.8631 416.73 13.0298 418.169 13.0298Z" fill="#3F3D56"/>
<path d="M425.119 13.0298C426.558 13.0298 427.725 11.8631 427.725 10.4238C427.725 8.9846 426.558 7.81787 425.119 7.81787C423.679 7.81787 422.513 8.9846 422.513 10.4238C422.513 11.8631 423.679 13.0298 425.119 13.0298Z" fill="#3F3D56"/>
<path d="M228.389 52.5537C227.67 52.5537 227.086 53.1382 227.086 53.8567C227.086 54.207 227.221 54.5311 227.467 54.7703C227.715 55.0239 228.039 55.1597 228.389 55.1597H423.381C424.099 55.1597 424.684 54.5752 424.684 53.8567C424.684 53.5063 424.549 53.1823 424.303 52.9431C424.055 52.6894 423.731 52.5537 423.381 52.5537H228.389Z" fill="#E6E6E6"/>
<path d="M399.059 52.1194V55.594H228.39C227.912 55.594 227.478 55.4029 227.165 55.0815C226.843 54.7688 226.652 54.3344 226.652 53.8567C226.652 52.9011 227.434 52.1194 228.39 52.1194H399.059Z" fill="#6C63FF"/>
<path d="M421.209 45.6043H403.836C401.92 45.6043 400.361 44.0459 400.361 42.1297C400.361 40.2134 401.92 38.655 403.836 38.655H421.209C423.125 38.655 424.684 40.2134 424.684 42.1297C424.684 44.0459 423.125 45.6043 421.209 45.6043Z" fill="#E6E6E6"/>
<path d="M307.416 27.3626H229.692C227.777 27.3626 226.218 25.8043 226.218 23.888C226.218 21.9717 227.777 20.4133 229.692 20.4133H307.416C309.332 20.4133 310.891 21.9717 310.891 23.888C310.891 25.8043 309.332 27.3626 307.416 27.3626Z" fill="#E6E6E6"/>
<path d="M228.389 91.6431C227.67 91.6431 227.086 92.2275 227.086 92.946C227.086 93.2964 227.221 93.6204 227.467 93.8597C227.715 94.1133 228.039 94.249 228.389 94.249H423.381C424.099 94.249 424.684 93.6645 424.684 92.946C424.684 92.5957 424.549 92.2717 424.303 92.0324C424.055 91.7788 423.731 91.6431 423.381 91.6431H228.389Z" fill="#E6E6E6"/>
<path d="M332.173 91.2087V94.6834H228.39C227.912 94.6834 227.478 94.4922 227.165 94.1708C226.843 93.8581 226.652 93.4238 226.652 92.946C226.652 91.9905 227.434 91.2087 228.39 91.2087H332.173Z" fill="#6C63FF"/>
<path d="M421.209 84.6939H403.836C401.92 84.6939 400.361 83.1355 400.361 81.2192C400.361 79.3029 401.92 77.7446 403.836 77.7446H421.209C423.125 77.7446 424.684 79.3029 424.684 81.2192C424.684 83.1355 423.125 84.6939 421.209 84.6939Z" fill="#E6E6E6"/>
</g>
<defs>
<clipPath id="clip0_163_674">
<rect width="524.67" height="531.397" fill="white"/>
</clipPath>
</defs>
</svg>
