<svg xmlns="http://www.w3.org/2000/svg" fill="none" viewBox="0 0 290 37">
<g clip-path="url(#clip0_273_106)">
<path d="M1 15C0.447333 15 0 15.5149 0 16.1511V20.8489C0 21.4843 0.447333 22 1 22C1.55267 22 2 21.4843 2 20.8489V16.1511C2 15.5149 1.552 15 1 15Z" fill="black"/>
<path d="M13 12C12.4473 12 12 12.5562 12 13.2433V23.7567C12 24.443 12.4473 25 13 25C13.5527 25 14 24.443 14 23.7567V13.2433C14 12.557 13.5527 12 13 12Z" fill="black"/>
<path d="M25 0C24.4473 0 24 0.560012 24 1.25189V35.7481C24 36.4392 24.4473 37 25 37C25.5527 37 26 36.4392 26 35.7481V1.25189C26 0.560846 25.552 0 25 0Z" fill="black"/>
<path d="M37 8C36.448 8 36 8.57162 36 9.27784V27.7222C36 28.4275 36.448 29 37 29C37.552 29 38 28.4275 38 27.7222V9.27784C38 8.57162 37.552 8 37 8Z" fill="black"/>
<path d="M49 12.5C48.448 12.5 48 13.0603 48 13.7525V23.2475C48 23.9389 48.448 24.5 49 24.5C49.552 24.5 50 23.9389 50 23.2475V13.7525C50 13.0611 49.552 12.5 49 12.5Z" fill="black"/>
<path d="M61 14C60.448 14 60 14.5339 60 15.1934V21.8066C60 22.4653 60.448 23 61 23C61.552 23 62 22.4653 62 21.8066V15.1934C62 14.5347 61.5527 14 61 14Z" fill="black"/>
<path d="M73 12.5C72.448 12.5 72 13.0603 72 13.7525V23.2475C72 23.9389 72.448 24.5 73 24.5C73.552 24.5 74 23.9389 74 23.2475V13.7525C74 13.0611 73.552 12.5 73 12.5Z" fill="black"/>
<path d="M85 14C84.448 14 84 14.5339 84 15.1934V21.8066C84 22.4653 84.448 23 85 23C85.552 23 86 22.4653 86 21.8066V15.1934C86 14.5347 85.5527 14 85 14Z" fill="black"/>
<path d="M97 0C96.4473 0 96 0.560012 96 1.25189V35.7481C96 36.4392 96.4473 37 97 37C97.5527 37 98 36.4392 98 35.7481V1.25189C98 0.560846 97.552 0 97 0Z" fill="black"/>
<path d="M109 8C108.448 8 108 8.57162 108 9.27784V27.7222C108 28.4275 108.448 29 109 29C109.552 29 110 28.4275 110 27.7222V9.27784C110 8.57162 109.552 8 109 8Z" fill="black"/>
<path d="M121 12C120.448 12 120 12.3539 120 12.791V24.209C120 24.6456 120.448 25 121 25C121.552 25 122 24.6456 122 24.209V12.791C122 12.3539 121.552 12 121 12Z" fill="black"/>
<path d="M133 12.5C132.448 12.5 132 13.0603 132 13.7525V23.2475C132 23.9389 132.448 24.5 133 24.5C133.552 24.5 134 23.9389 134 23.2475V13.7525C134 13.0611 133.552 12.5 133 12.5Z" fill="black"/>
<path d="M145 14C144.448 14 144 14.5339 144 15.1934V21.8066C144 22.4653 144.448 23 145 23C145.552 23 146 22.4653 146 21.8066V15.1934C146 14.5347 145.553 14 145 14Z" fill="black"/>
<path d="M157 12.5C156.448 12.5 156 13.0603 156 13.7525V23.2475C156 23.9389 156.448 24.5 157 24.5C157.552 24.5 158 23.9389 158 23.2475V13.7525C158 13.0611 157.552 12.5 157 12.5Z" fill="black"/>
<path d="M169 14C168.448 14 168 14.5339 168 15.1934V21.8066C168 22.4653 168.448 23 169 23C169.552 23 170 22.4653 170 21.8066V15.1934C170 14.5347 169.553 14 169 14Z" fill="black"/>
<path d="M181 12.5C180.448 12.5 180 13.0603 180 13.7525V23.2475C180 23.9389 180.448 24.5 181 24.5C181.552 24.5 182 23.9389 182 23.2475V13.7525C182 13.0611 181.552 12.5 181 12.5Z" fill="black"/>
<path d="M193 14C192.448 14 192 14.5339 192 15.1934V21.8066C192 22.4653 192.448 23 193 23C193.552 23 194 22.4653 194 21.8066V15.1934C194 14.5347 193.553 14 193 14Z" fill="black"/>
<path d="M205 15C204.447 15 204 15.5149 204 16.1511V20.8489C204 21.4843 204.447 22 205 22C205.553 22 206 21.4843 206 20.8489V16.1511C206 15.5149 205.552 15 205 15Z" fill="black"/>
<path d="M217 12C216.447 12 216 12.5562 216 13.2433V23.7567C216 24.443 216.447 25 217 25C217.553 25 218 24.443 218 23.7567V13.2433C218 12.557 217.553 12 217 12Z" fill="black"/>
<path d="M229 0C228.447 0 228 0.560012 228 1.25189V35.7481C228 36.4392 228.447 37 229 37C229.553 37 230 36.4392 230 35.7481V1.25189C230 0.560846 229.552 0 229 0Z" fill="black"/>
<path d="M241 8C240.448 8 240 8.57162 240 9.27784V27.7222C240 28.4275 240.448 29 241 29C241.552 29 242 28.4275 242 27.7222V9.27784C242 8.57162 241.552 8 241 8Z" fill="black"/>
<path d="M253 8C252.448 8 252 8.57162 252 9.27784V27.7222C252 28.4275 252.448 29 253 29C253.552 29 254 28.4275 254 27.7222V9.27784C254 8.57162 253.552 8 253 8Z" fill="black"/>
<path d="M265 12.5C264.448 12.5 264 13.0603 264 13.7525V23.2475C264 23.9389 264.448 24.5 265 24.5C265.552 24.5 266 23.9389 266 23.2475V13.7525C266 13.0611 265.552 12.5 265 12.5Z" fill="black"/>
<path d="M277 12.5C276.448 12.5 276 13.0603 276 13.7525V23.2475C276 23.9389 276.448 24.5 277 24.5C277.552 24.5 278 23.9389 278 23.2475V13.7525C278 13.0611 277.552 12.5 277 12.5Z" fill="black"/>
<path d="M289 14C288.448 14 288 14.5339 288 15.1934V21.8066C288 22.4653 288.448 23 289 23C289.552 23 290 22.4653 290 21.8066V15.1934C290 14.5347 289.553 14 289 14Z" fill="black"/>
</g>
<defs>
<clipPath id="clip0_273_106">
<rect width="290" height="37" fill="white"/>
</clipPath>
</defs>
</svg>