<svg width="800" height="384" viewBox="0 0 800 384" fill="none" xmlns="http://www.w3.org/2000/svg">
<path opacity="0.7" d="M319.685 220.591L167.158 34.5422C133.951 -5.96251 74.4564 -11.6631 34.2733 21.8096C-5.90973 55.2824 -11.565 115.253 21.6419 155.758L174.169 341.806C207.376 382.311 266.871 388.011 307.054 354.539C347.237 321.066 352.892 261.095 319.685 220.591Z" fill="url(#paint0_linear_111_359)"/>
<path opacity="0.7" d="M176.071 223.149L329.928 38.3664C363.336 -1.77505 422.478 -6.7959 461.999 27.1329C501.52 61.0616 506.476 121.084 473.068 161.225L319.211 345.982C285.803 386.123 226.661 391.144 187.14 357.216C147.619 323.287 142.663 263.265 176.071 223.123V223.149Z" fill="#8F7BB8"/>
<path opacity="0.7" d="M481.445 348.391L327.06 158.207C294.18 117.711 299.79 57.7397 339.563 24.2674C379.36 -9.20493 438.277 -3.49942 471.156 36.997L625.541 227.181C658.421 267.677 652.811 327.648 613.038 361.121C573.241 394.593 514.324 388.887 481.445 348.391Z" fill="#8F7BB8"/>
<path opacity="0.7" d="M480.841 227.181L634.697 42.4236C668.105 2.2822 727.248 -2.73865 766.769 31.1901C806.289 65.1189 811.245 125.141 777.838 165.282L623.981 350.039C590.573 390.181 531.43 395.202 491.909 361.273C452.389 327.344 447.433 267.322 480.841 227.181Z" fill="#7F6AAF"/>
<path d="M699.927 180.548C738.898 180.548 770.491 148.702 770.491 109.419C770.491 70.1357 738.898 38.2903 699.927 38.2903C660.956 38.2903 629.363 70.1357 629.363 109.419C629.363 148.702 660.956 180.548 699.927 180.548Z" fill="white"/>
<defs>
<linearGradient id="paint0_linear_111_359" x1="55.7257" y1="67.5708" x2="294.133" y2="313.772" gradientUnits="userSpaceOnUse">
<stop offset="0.14" stop-color="#7D67AD"/>
<stop offset="1" stop-color="white"/>
</linearGradient>
</defs>
</svg>
