<svg xmlns="http://www.w3.org/2000/svg" fill="none" viewBox="0 0 250 250">
<g clip-path="url(#clip0_660_2737)">
<path d="M178.883 3.92988L183.717 18.8038C185.217 23.3294 187.756 27.4411 191.13 30.81C194.504 34.1788 198.62 36.7115 203.149 38.2052L218.024 43.0382L218.316 43.1215C219.463 43.5253 220.457 44.2753 221.16 45.2678C221.863 46.2603 222.24 47.4466 222.24 48.6627C222.24 49.8789 221.863 51.0652 221.16 52.0577C220.457 53.0502 219.463 53.8002 218.316 54.204L203.44 59.037C198.912 60.5307 194.796 63.0633 191.422 66.4322C188.048 69.8011 185.509 73.9128 184.009 78.4384L179.175 93.2984C178.771 94.4456 178.021 95.4392 177.028 96.142C176.036 96.8449 174.849 97.2223 173.633 97.2223C172.417 97.2223 171.23 96.8449 170.238 96.142C169.245 95.4392 168.495 94.4456 168.091 93.2984L163.244 78.4384C161.755 73.9027 159.224 69.7789 155.854 66.3976C152.482 63.0097 148.362 60.4601 143.826 58.9537L128.95 54.1207C127.803 53.7168 126.809 52.9669 126.106 51.9744C125.403 50.9818 125.026 49.7956 125.026 48.5794C125.026 47.3632 125.403 46.177 126.106 45.1845C126.809 44.1919 127.803 43.442 128.95 43.0382L143.826 38.2052C148.298 36.671 152.352 34.1204 155.671 30.7538C158.99 27.3873 161.482 23.2967 162.952 18.8038L167.786 3.94377C168.186 2.79175 168.936 1.7931 169.93 1.0864C170.925 0.379697 172.114 0 173.334 0C174.554 0 175.744 0.379697 176.738 1.0864C177.733 1.7931 178.482 2.77787 178.883 3.92988ZM247.012 114.089L236.373 110.644C233.144 109.565 230.211 107.75 227.805 105.342C225.399 102.934 223.587 99.9995 222.511 96.7704L219.038 86.16C218.751 85.3397 218.215 84.629 217.506 84.1261C216.797 83.6233 215.949 83.3532 215.08 83.3532C214.21 83.3532 213.362 83.6233 212.653 84.1261C211.944 84.629 211.409 85.3397 211.121 86.16L207.677 96.7704C206.62 99.9788 204.837 102.9 202.466 105.306C200.096 107.713 197.202 109.54 194.009 110.644L183.384 114.089C182.569 114.382 181.866 114.92 181.368 115.628C180.871 116.337 180.604 117.181 180.604 118.047C180.604 118.912 180.871 119.756 181.368 120.465C181.866 121.173 182.569 121.711 183.384 122.005L194.009 125.463C197.247 126.542 200.189 128.362 202.6 130.778C205.011 133.194 206.825 136.139 207.899 139.378L211.343 149.989C211.631 150.809 212.166 151.52 212.876 152.023C213.585 152.525 214.433 152.796 215.302 152.796C216.171 152.796 217.019 152.525 217.728 152.023C218.438 151.52 218.973 150.809 219.261 149.989L222.719 139.378C223.797 136.148 225.611 133.212 228.02 130.804C230.428 128.396 233.364 126.582 236.595 125.504L247.22 122.06C248.035 121.766 248.738 121.229 249.236 120.52C249.733 119.812 250 118.968 250 118.102C250 117.237 249.733 116.392 249.236 115.684C248.738 114.976 248.035 114.438 247.22 114.144L247.012 114.089ZM207.94 165.14C212.417 166.991 217.408 167.178 222.011 165.668C222.159 167.131 222.233 168.612 222.233 170.112C222.229 180.452 218.675 190.478 212.165 198.511C205.655 206.545 196.583 212.1 186.467 214.248L185.953 216.817C184.348 224.819 180.408 232.165 174.63 237.929C168.852 243.692 161.495 247.615 153.489 249.2C145.482 250.786 137.186 249.964 129.647 246.837C122.107 243.711 115.664 238.421 111.13 231.636C106.596 238.426 100.151 243.72 92.6086 246.848C85.0664 249.977 76.7659 250.799 68.7563 249.212C60.7467 247.625 53.3876 243.698 47.6092 237.93C41.8308 232.161 37.8926 224.809 36.2923 216.803L35.7783 214.234C26.6089 212.295 18.2711 207.548 11.9232 200.654C5.57538 193.76 1.53263 185.06 0.356609 175.763C-0.819415 166.466 0.929676 157.033 5.3609 148.776C9.79212 140.518 16.6855 133.845 25.0833 129.685C21.5591 126.434 18.7462 122.49 16.8219 118.099C14.8975 113.708 13.9034 108.966 13.9021 104.173V101.423C13.9062 92.761 16.9093 84.3677 22.4012 77.6689C27.8931 70.9701 35.535 66.379 44.0288 64.6755L49.668 63.5644L51.4042 54.8429C52.668 48.4975 55.7346 42.651 60.2365 38.0036C64.7384 33.3562 70.4848 30.105 76.7874 28.6395C83.09 27.174 89.6815 27.5562 95.7724 29.7405C101.863 31.9247 107.195 35.8184 111.13 40.955C112.351 39.3634 113.713 37.8853 115.199 36.5386L114.741 37.1636C112.38 40.4967 111.13 44.3853 111.13 48.5655C111.13 52.7458 112.38 56.6344 114.741 59.9675C115.704 61.3285 116.815 62.5553 118.074 63.6478V208.707C118.086 215.498 120.62 222.044 125.184 227.073C129.748 232.103 136.018 235.258 142.777 235.928C149.537 236.597 156.304 234.733 161.766 230.696C167.229 226.66 170.997 220.739 172.341 214.081L173.772 206.971C174.041 205.627 174.702 204.394 175.671 203.425C176.639 202.456 177.873 201.796 179.217 201.527L183.259 200.707C191.175 199.115 198.168 194.522 202.771 187.889C207.375 181.256 209.233 173.098 207.954 165.127M104.185 208.707V61.4396C104.196 56.5278 102.377 51.7879 99.0825 48.1441C95.7884 44.5002 91.2552 42.2135 86.3666 41.7297C81.478 41.246 76.5844 42.5998 72.6398 45.5273C68.6952 48.4548 65.9823 52.7462 65.0299 57.5649L62.3909 70.8139C62.1207 72.159 61.458 73.394 60.4865 74.3629C59.515 75.3318 58.2782 75.9912 56.9323 76.258L46.7511 78.2995C41.4073 79.3735 36.5996 82.263 33.1439 86.4777C29.6881 90.6924 27.7971 95.9728 27.7918 101.423V104.173C27.7918 109.698 29.9868 114.996 33.8941 118.903C37.8013 122.81 43.1006 125.004 48.6263 125.004C50.4681 125.004 52.2346 125.736 53.537 127.038C54.8394 128.34 55.5711 130.107 55.5711 131.948C55.5711 133.79 54.8394 135.556 53.537 136.858C52.2346 138.161 50.4681 138.892 48.6263 138.892H45.1261C37.3935 138.915 29.9444 141.805 24.2209 147.004C18.4975 152.203 14.9069 159.34 14.1445 167.034C13.3821 174.728 15.5021 182.431 20.094 188.652C24.6859 194.872 31.4229 199.168 39.0007 200.707L43.0426 201.527C44.3861 201.796 45.6198 202.456 46.5887 203.425C47.5575 204.394 48.2181 205.627 48.4874 206.971L49.918 214.081C51.2618 220.739 55.0304 226.66 60.4929 230.696C65.9554 234.733 72.7225 236.597 79.4819 235.928C86.2412 235.258 92.511 232.103 97.0754 227.073C101.64 222.044 104.173 215.498 104.185 208.707Z" fill="#595A5A"/>
</g>
<defs>
<clipPath id="clip0_660_2737">
<rect width="250" height="250" fill="white"/>
</clipPath>
</defs>
</svg>