<svg width="251" height="240" viewBox="0 0 251 240" fill="none" xmlns="http://www.w3.org/2000/svg">
<path d="M28.2953 109.996C28.2953 92.6533 42.9901 78.5435 61.0529 78.5435C79.078 78.5435 93.7421 92.6533 93.7421 109.996C93.7421 112.445 93.4489 114.869 92.8664 117.24H122.106V84.374C122.106 83.3547 122.668 82.4127 123.583 81.8963C124.498 81.38 125.629 81.3683 126.556 81.8638C130.448 83.9472 134.842 85.048 139.263 85.048C153.987 85.048 165.966 73.1927 165.966 58.6205C165.966 44.0483 153.987 32.193 139.263 32.193C134.731 32.193 130.349 33.2877 126.588 35.3593C125.663 35.8696 124.524 35.8671 123.599 35.3532C122.675 34.8399 122.106 33.8918 122.106 32.867V0H40.5935C18.2103 0 0 17.4846 0 38.9759V117.239H29.1889C28.5949 114.893 28.2953 112.47 28.2953 109.996Z" fill="url(#paint0_linear_515_2647)"/>
<path d="M82.8455 181.315C82.8455 164.008 97.5408 149.929 115.603 149.929C118.153 149.929 120.678 150.211 123.148 150.77V122.696H89.876C89.0169 122.696 88.2064 122.342 87.6417 121.735C87.5612 121.647 87.4859 121.556 87.4162 121.459C86.8567 120.684 86.7283 119.696 87.0732 118.814C88.2179 115.883 88.7985 112.818 88.7985 109.705C88.7985 95.5309 76.8196 84 62.0949 84C47.3331 84 35.3229 95.5309 35.3229 109.705C35.3229 112.861 35.9195 115.91 37.0967 118.765C37.4614 119.65 37.3464 120.651 36.7895 121.438C36.3021 122.127 35.5318 122.574 34.6823 122.674C34.5615 122.689 34.4389 122.696 34.315 122.696H1.04199V200.959C1.04199 222.45 19.2523 239.935 41.6355 239.935H123.147V211.91C120.703 212.48 118.179 212.768 115.602 212.768C97.5408 212.768 82.8455 198.658 82.8455 181.315Z" fill="url(#paint1_linear_515_2647)"/>
<path d="M209.617 0H128.105V28.3569C131.621 27.0984 135.41 26.4453 139.276 26.4453C157.301 26.4453 171.965 40.8783 171.965 58.6199C171.965 76.3609 157.301 90.7944 139.276 90.7944C135.468 90.7944 131.677 90.1309 128.105 88.8546V117.239H161.378C162.359 117.239 163.279 117.702 163.838 118.476C164.398 119.251 164.525 120.239 164.181 121.122C163.035 124.053 162.455 127.118 162.455 130.23C162.455 144.404 174.434 155.935 189.159 155.935C203.921 155.935 215.931 144.404 215.931 130.23C215.931 127.075 215.334 124.027 214.156 121.171C214.065 120.949 214.004 120.721 213.973 120.491C213.877 119.799 214.046 119.089 214.464 118.498C214.883 117.908 215.508 117.495 216.213 117.326C216.448 117.269 216.692 117.24 216.939 117.24H250.212V38.9759C250.211 17.4846 232 0 209.617 0Z" fill="url(#paint2_linear_515_2647)"/>
<path d="M222.642 129.244C222.642 146.586 207.946 160.696 189.884 160.696C171.858 160.696 157.195 146.586 157.195 129.244C157.195 126.795 157.489 124.372 158.071 122H128.831V153.946C128.831 154.889 128.35 155.772 127.542 156.309C126.736 156.845 125.707 156.969 124.787 156.638C121.734 155.538 118.542 154.98 115.3 154.98C100.538 154.98 88.5283 166.483 88.5283 180.62C88.5283 194.794 100.538 206.326 115.3 206.326C118.587 206.326 121.762 205.752 124.736 204.622C124.851 204.578 124.968 204.542 125.087 204.512C125.679 204.366 126.301 204.396 126.869 204.596C127.096 204.676 127.315 204.784 127.52 204.917C128.34 205.452 128.831 206.341 128.831 207.293V239.24H210.343C232.726 239.24 250.937 221.755 250.937 200.264V122.001H221.747C222.341 124.348 222.642 126.771 222.642 129.244Z" fill="url(#paint3_linear_515_2647)"/>
<defs>
<linearGradient id="paint0_linear_515_2647" x1="160.387" y1="2.93178" x2="113.913" y2="128.671" gradientUnits="userSpaceOnUse">
<stop offset="0.0753845" stop-color="#D69BEA"/>
<stop offset="1" stop-color="#E1C4FF"/>
</linearGradient>
<linearGradient id="paint1_linear_515_2647" x1="119.042" y1="87.8994" x2="31.2345" y2="219.315" gradientUnits="userSpaceOnUse">
<stop offset="0.0753845" stop-color="#D69BEA"/>
<stop offset="1" stop-color="#E1C4FF"/>
</linearGradient>
<linearGradient id="paint2_linear_515_2647" x1="246.107" y1="3.89943" x2="158.3" y2="135.316" gradientUnits="userSpaceOnUse">
<stop offset="0.0753845" stop-color="#D69BEA"/>
<stop offset="1" stop-color="#E1C4FF"/>
</linearGradient>
<linearGradient id="paint3_linear_515_2647" x1="245.477" y1="124.932" x2="198.236" y2="250.006" gradientUnits="userSpaceOnUse">
<stop offset="0.0753845" stop-color="#D69BEA"/>
<stop offset="1" stop-color="#E1C4FF"/>
</linearGradient>
</defs>
</svg>
