<svg width="251" height="240" viewBox="0 0 251 240" fill="none" xmlns="http://www.w3.org/2000/svg">
<path d="M28.2953 109.996C28.2953 92.6533 42.9901 78.5435 61.0529 78.5435C79.078 78.5435 93.7421 92.6533 93.7421 109.996C93.7421 112.445 93.4489 114.869 92.8664 117.24H122.106V84.374C122.106 83.3547 122.668 82.4127 123.583 81.8963C124.498 81.38 125.629 81.3683 126.556 81.8638C130.448 83.9472 134.842 85.048 139.263 85.048C153.987 85.048 165.966 73.1927 165.966 58.6205C165.966 44.0483 153.987 32.193 139.263 32.193C134.731 32.193 130.349 33.2877 126.588 35.3593C125.663 35.8696 124.524 35.8671 123.599 35.3532C122.675 34.8399 122.106 33.8918 122.106 32.867V0H40.5935C18.2103 0 0 17.4846 0 38.9759V117.239H29.1889C28.5949 114.893 28.2953 112.47 28.2953 109.996Z" fill="url(#paint0_linear_506_2011)"/>
<path d="M82.8464 181.315C82.8464 164.008 97.5418 149.929 115.604 149.929C118.154 149.929 120.679 150.211 123.149 150.77V122.696H89.877C89.0179 122.696 88.2073 122.342 87.6427 121.735C87.5622 121.647 87.4868 121.556 87.4172 121.459C86.8577 120.684 86.7293 119.696 87.0742 118.814C88.2188 115.883 88.7994 112.818 88.7994 109.705C88.7994 95.5309 76.8206 84 62.0958 84C47.334 84 35.3239 95.5309 35.3239 109.705C35.3239 112.861 35.9205 115.91 37.0977 118.765C37.4624 119.65 37.3474 120.651 36.7904 121.438C36.3031 122.127 35.5328 122.574 34.6832 122.674C34.5625 122.689 34.4399 122.696 34.316 122.696H1.04297V200.959C1.04297 222.45 19.2533 239.935 41.6365 239.935H123.148V211.91C120.704 212.48 118.18 212.768 115.603 212.768C97.5418 212.768 82.8464 198.658 82.8464 181.315Z" fill="url(#paint1_linear_506_2011)"/>
<path d="M209.617 0H128.105V28.3569C131.621 27.0984 135.41 26.4453 139.276 26.4453C157.301 26.4453 171.965 40.8783 171.965 58.6199C171.965 76.3609 157.301 90.7944 139.276 90.7944C135.468 90.7944 131.677 90.1309 128.105 88.8546V117.239H161.378C162.359 117.239 163.279 117.702 163.838 118.476C164.398 119.251 164.525 120.239 164.181 121.122C163.035 124.053 162.455 127.118 162.455 130.23C162.455 144.404 174.434 155.935 189.159 155.935C203.921 155.935 215.931 144.404 215.931 130.23C215.931 127.075 215.334 124.027 214.156 121.171C214.065 120.949 214.004 120.721 213.973 120.491C213.877 119.799 214.046 119.089 214.464 118.498C214.883 117.908 215.508 117.495 216.213 117.326C216.448 117.269 216.692 117.24 216.939 117.24H250.212V38.9759C250.211 17.4846 232 0 209.617 0Z" fill="url(#paint2_linear_506_2011)"/>
<path d="M222.641 129.244C222.641 146.586 207.945 160.696 189.883 160.696C171.857 160.696 157.194 146.586 157.194 129.244C157.194 126.795 157.488 124.372 158.07 122H128.83V153.946C128.83 154.889 128.349 155.772 127.541 156.309C126.735 156.845 125.706 156.969 124.786 156.638C121.733 155.538 118.541 154.98 115.299 154.98C100.537 154.98 88.5273 166.483 88.5273 180.62C88.5273 194.794 100.537 206.326 115.299 206.326C118.586 206.326 121.761 205.752 124.735 204.622C124.85 204.578 124.967 204.542 125.086 204.512C125.678 204.366 126.3 204.396 126.868 204.596C127.095 204.676 127.314 204.784 127.519 204.917C128.339 205.452 128.83 206.341 128.83 207.293V239.24H210.342C232.725 239.24 250.936 221.755 250.936 200.264V122.001H221.746C222.34 124.348 222.641 126.771 222.641 129.244Z" fill="url(#paint3_linear_506_2011)"/>
<defs>
<linearGradient id="paint0_linear_506_2011" x1="160.387" y1="2.93178" x2="113.913" y2="128.671" gradientUnits="userSpaceOnUse">
<stop offset="0.400385" stop-color="#20427D"/>
<stop offset="1" stop-color="#FFD700"/>
</linearGradient>
<linearGradient id="paint1_linear_506_2011" x1="119.043" y1="87.8994" x2="31.2355" y2="219.315" gradientUnits="userSpaceOnUse">
<stop offset="0.400385" stop-color="#20427D"/>
<stop offset="1" stop-color="#FFD700"/>
</linearGradient>
<linearGradient id="paint2_linear_506_2011" x1="246.107" y1="3.89943" x2="158.3" y2="135.316" gradientUnits="userSpaceOnUse">
<stop offset="0.400385" stop-color="#20427D"/>
<stop offset="1" stop-color="#FFD700"/>
</linearGradient>
<linearGradient id="paint3_linear_506_2011" x1="245.476" y1="124.932" x2="198.235" y2="250.006" gradientUnits="userSpaceOnUse">
<stop offset="0.400385" stop-color="#20427D"/>
<stop offset="1" stop-color="#FFD700"/>
</linearGradient>
</defs>
</svg>
