<svg xmlns="http://www.w3.org/2000/svg" fill="none" viewBox="0 0 461 84">
<g clip-path="url(#clip0_452_1827)">
<path d="M27.7188 0.19043C39.8303 0.19043 48.847 3.22038 54.7308 9.26121C60.6147 15.302 63.5757 23.9726 63.5757 35.254C63.5757 42.6097 62.1429 49.0507 59.2583 54.5579C56.3737 60.0652 52.2092 64.3338 46.7075 67.3638C41.2248 70.4128 34.596 71.9182 26.8019 71.9182C25.3118 71.9182 23.1149 71.861 20.2113 71.7658C17.2885 71.6514 14.7668 71.6133 12.5891 71.6133C10.2202 71.6133 7.88965 71.6133 5.57815 71.6705C3.28576 71.7086 1.41364 71.7848 0 71.9182V69.8982C2.29239 69.7648 4.04989 69.4981 5.23429 69.0979C6.4187 68.6977 7.22103 67.8783 7.6222 66.6587C8.02337 65.4391 8.23351 63.6097 8.23351 61.1895V10.9382C8.23351 8.44179 8.02337 6.59333 7.6222 5.41185C7.22103 4.23036 6.4187 3.41094 5.23429 2.97264C4.04989 2.53435 2.31149 2.28662 0 2.21039V0.19043C1.41364 0.247598 3.28576 0.34288 5.57815 0.438161C7.87054 0.533442 10.1438 0.552499 12.3789 0.49533C14.7477 0.438161 17.4222 0.361936 20.4023 0.285711C23.3824 0.228542 25.8276 0.19043 27.7188 0.19043ZM25.1972 2.01983C22.0834 2.01983 20.0584 2.59152 19.1033 3.73489C18.1481 4.89733 17.6896 7.22219 17.6896 10.7285V61.3801C17.6896 64.8864 18.1863 67.2304 19.1606 68.3737C20.1348 69.5171 22.198 70.0888 25.3118 70.0888C32.6857 70.0888 38.4167 68.7549 42.4666 66.087C46.5355 63.4191 49.3628 59.5316 51.0057 54.3864C52.6295 49.2603 53.4509 43.0098 53.4509 35.6541C53.4509 24.3157 51.3687 15.8737 47.2042 10.3284C43.0396 4.78299 35.704 2.01983 25.2163 2.01983H25.1972Z" fill="black"/>
<path d="M87.0144 7.66064L102.565 47.6216C103.195 49.2223 103.921 50.3086 104.723 50.8231C105.526 51.3566 106.271 51.6425 106.958 51.6806V52.9574C106.099 52.8812 105.067 52.824 103.844 52.8049C102.622 52.7859 101.38 52.7668 100.157 52.7668C98.4955 52.7668 96.9481 52.7668 95.5154 52.8049C94.0636 52.824 92.8983 52.8812 92.0195 52.9574V51.6806C94.1782 51.6044 95.5727 51.2233 96.1649 50.5753C96.7571 49.9274 96.6425 48.5173 95.7828 46.3449L83.9388 14.7686L84.9513 13.9492L73.8714 42.667C72.9735 44.9537 72.5533 46.745 72.5915 48.0409C72.6297 49.3367 73.1264 50.2514 74.0624 50.804C74.9985 51.3566 76.3548 51.6615 78.1314 51.6997V52.9764C76.947 52.9002 75.7053 52.843 74.4063 52.824C73.1073 52.8049 71.9038 52.7859 70.8149 52.7859C69.726 52.7859 68.8472 52.7859 68.1022 52.824C67.3572 52.843 66.6695 52.9002 66.0391 52.9764V51.6997C66.8987 51.49 67.7584 50.9946 68.6562 50.2133C69.5541 49.432 70.3564 48.079 71.0823 46.1733L86.0593 7.66064H87.0718H87.0144ZM94.7895 34.6634V35.9401H75.8008L76.4312 34.6634H94.7704H94.7895Z" fill="black"/>
<path d="M129.904 7.06984C132.655 7.06984 134.89 7.48908 136.59 8.30849C138.29 9.12791 139.876 10.0998 141.366 11.205C141.92 11.6243 142.34 11.8339 142.646 11.8339C143.448 11.8339 143.983 10.5381 144.231 7.94643H145.702C145.626 9.50904 145.55 11.4147 145.511 13.6633C145.473 15.9119 145.454 18.8847 145.454 22.5626H143.983C143.678 20.7903 143.334 19.0753 142.894 17.4174C142.455 15.7595 141.767 14.3493 140.793 13.1678C139.57 11.6052 137.947 10.3856 135.96 9.50904C133.973 8.63245 131.91 8.21321 129.789 8.21321C127.669 8.21321 125.74 8.72773 124.02 9.77583C122.301 10.8239 120.83 12.3103 119.588 14.254C118.347 16.1978 117.411 18.5417 116.761 21.2668C116.092 24.0109 115.768 27.0789 115.768 30.509C115.768 38.1315 116.99 43.715 119.455 47.2595C121.919 50.804 125.74 52.5571 130.917 52.5571C132.445 52.5571 133.763 52.3285 134.89 51.8902C136.017 51.4519 136.896 51.0136 137.526 50.5943C138.329 50.0417 138.844 49.5272 139.055 49.0317C139.265 48.5363 139.379 47.9074 139.379 47.107V41.009C139.379 39.2749 139.207 37.9791 138.863 37.1216C138.52 36.2831 137.889 35.7114 136.991 35.4065C136.074 35.1016 134.737 34.9301 132.941 34.892V33.6152C133.706 33.6533 134.603 33.6914 135.616 33.7105C136.628 33.7295 137.717 33.7486 138.844 33.7677C139.971 33.7867 141.003 33.8058 141.939 33.8058C143.334 33.8058 144.594 33.7867 145.741 33.7486C146.868 33.7105 147.804 33.6724 148.568 33.6152V34.892C147.173 34.9873 146.276 35.3112 145.893 35.902C145.511 36.4927 145.32 37.9791 145.32 40.3421V52.9192H144.04C144.002 52.1951 143.83 51.4138 143.563 50.5753C143.276 49.7368 142.875 49.3176 142.321 49.3176C142.073 49.3176 141.805 49.3747 141.557 49.5081C141.309 49.6415 140.85 49.9274 140.22 50.4038C138.825 51.4709 137.335 52.3094 135.769 52.9192C134.202 53.529 132.368 53.8339 130.286 53.8339C123.695 53.8339 118.576 51.833 114.908 47.8312C111.24 43.8294 109.406 38.284 109.406 31.2141C109.406 26.2595 110.304 21.9718 112.081 18.3702C113.857 14.7686 116.303 11.9864 119.378 10.0045C122.454 8.04171 125.969 7.05078 129.923 7.05078L129.904 7.06984Z" fill="black"/>
<path d="M171.3 7.66064L186.85 47.6216C187.48 49.2223 188.206 50.3086 189.008 50.8231C189.811 51.3566 190.556 51.6425 191.243 51.6806V52.9574C190.384 52.8812 189.352 52.824 188.13 52.8049C186.907 52.7859 185.665 52.7668 184.443 52.7668C182.781 52.7668 181.233 52.7668 179.801 52.8049C178.349 52.824 177.183 52.8812 176.305 52.9574V51.6806C178.463 51.6044 179.858 51.2233 180.45 50.5753C181.042 49.9274 180.928 48.5173 180.068 46.3449L168.224 14.7686L169.236 13.9492L158.157 42.667C157.259 44.9537 156.838 46.745 156.877 48.0409C156.915 49.3367 157.412 50.2514 158.348 50.804C159.284 51.3566 160.64 51.6615 162.417 51.6997V52.9764C161.232 52.9002 159.99 52.843 158.691 52.824C157.392 52.8049 156.189 52.7859 155.1 52.7859C154.011 52.7859 153.132 52.7859 152.387 52.824C151.642 52.843 150.955 52.9002 150.324 52.9764V51.6997C151.184 51.49 152.044 50.9946 152.941 50.2133C153.839 49.432 154.642 48.079 155.367 46.1733L170.344 7.66064H171.357H171.3ZM179.075 34.6634V35.9401H160.086L160.716 34.6634H179.056H179.075Z" fill="black"/>
<path d="M294.516 6.36475C302.119 6.36475 307.774 8.27037 311.461 12.0626C315.148 15.8548 317.001 21.2858 317.001 28.3557C317.001 32.9673 316.103 37.0072 314.288 40.4564C312.493 43.9056 309.856 46.5925 306.418 48.4981C302.979 50.4038 298.815 51.3566 293.924 51.3566C292.988 51.3566 291.613 51.3185 289.779 51.2613C287.945 51.1851 286.359 51.166 285.003 51.166C283.513 51.166 282.042 51.166 280.609 51.2041C279.157 51.2232 277.992 51.2803 277.113 51.3566V50.0798C278.565 50.0036 279.654 49.8321 280.399 49.5653C281.144 49.3176 281.641 48.803 281.889 48.0408C282.137 47.2785 282.271 46.1352 282.271 44.6107V13.1107C282.271 11.548 282.137 10.3856 281.889 9.64242C281.641 8.89923 281.144 8.38471 280.399 8.11792C279.654 7.85113 278.565 7.67963 277.113 7.64152V6.36475C278.011 6.40286 279.176 6.46003 280.609 6.5172C282.042 6.57437 283.475 6.59342 284.869 6.55531C286.359 6.5172 288.04 6.47908 289.912 6.42191C291.785 6.3838 293.313 6.36475 294.497 6.36475H294.516ZM292.912 7.50812C290.963 7.50812 289.683 7.87019 289.091 8.59433C288.499 9.31847 288.193 10.7858 288.193 12.9773V44.7441C288.193 46.9546 288.499 48.4029 289.11 49.127C289.721 49.8511 291.001 50.2132 292.969 50.2132C297.592 50.2132 301.183 49.3747 303.743 47.6978C306.284 46.0208 308.08 43.5816 309.092 40.3611C310.105 37.1406 310.62 33.2341 310.62 28.6034C310.62 21.4954 309.321 16.1978 306.704 12.7105C304.087 9.24224 299.502 7.48907 292.912 7.48907V7.50812Z" fill="black"/>
<path d="M339.733 6.06006L355.283 46.021C355.914 47.6218 356.64 48.708 357.442 49.2225C358.244 49.7561 358.989 50.0419 359.677 50.08V51.3568C358.817 51.2806 357.786 51.2234 356.563 51.2043C355.341 51.1853 354.099 51.1662 352.876 51.1662C351.214 51.1662 349.667 51.1662 348.234 51.2043C346.782 51.2234 345.617 51.2806 344.738 51.3568V50.08C346.897 50.0038 348.291 49.6227 348.884 48.9748C349.476 48.3268 349.361 46.9167 348.502 44.7443L336.658 13.168L337.67 12.3486L326.59 41.0664C325.692 43.3532 325.272 45.1445 325.31 46.4403C325.348 47.7361 325.845 48.6508 326.781 49.2034C327.717 49.7561 329.074 50.061 330.85 50.0991V51.3758C329.666 51.2996 328.424 51.2425 327.125 51.2234C325.826 51.2043 324.623 51.1853 323.534 51.1853C322.445 51.1853 321.566 51.1853 320.821 51.2234C320.076 51.2425 319.388 51.2996 318.758 51.3758V50.0991C319.617 49.8895 320.477 49.394 321.375 48.6127C322.273 47.8314 323.075 46.4784 323.801 44.5728L338.778 6.06006H339.79H339.733ZM347.508 33.0628V34.3396H328.52L329.15 33.0628H347.489H347.508Z" fill="black"/>
<path d="M382.619 5.48829C385.37 5.48829 387.605 5.90753 389.305 6.72695C391.005 7.54637 392.591 8.51824 394.081 9.6235C394.635 10.0427 395.055 10.2524 395.361 10.2524C396.163 10.2524 396.698 8.95653 396.946 6.36488H398.417C398.341 7.9275 398.264 9.83312 398.226 12.0818C398.188 14.3304 398.169 17.3032 398.169 20.981H396.698C396.392 19.2088 396.048 17.4937 395.609 15.8358C395.17 14.1779 394.482 12.7678 393.508 11.5863C392.285 10.0237 390.661 8.80408 388.675 7.9275C386.688 7.05091 384.625 6.63167 382.504 6.63167C380.384 6.63167 378.454 7.14619 376.735 8.19428C375.016 9.24238 373.545 10.7288 372.303 12.6725C371.061 14.6162 370.125 16.9602 369.476 19.6852C368.807 22.4293 368.482 25.4974 368.482 28.9275C368.482 36.55 369.705 42.1335 372.169 45.6779C374.634 49.2224 378.454 50.9756 383.631 50.9756C385.16 50.9756 386.478 50.7469 387.605 50.3086C388.732 49.8703 389.611 49.432 390.241 49.0128C391.043 48.4602 391.559 47.9456 391.769 47.4502C391.98 46.9547 392.094 46.3259 392.094 45.5255V39.4275C392.094 37.6934 391.922 36.3975 391.578 35.54C391.234 34.7015 390.604 34.1299 389.706 33.825C388.789 33.5201 387.452 33.3485 385.656 33.3104V32.0337C386.42 32.0718 387.318 32.1099 388.331 32.1289C389.343 32.148 390.432 32.1671 391.559 32.1861C392.686 32.2052 393.718 32.2242 394.654 32.2242C396.048 32.2242 397.309 32.2052 398.456 32.1671C399.583 32.1289 400.519 32.0908 401.283 32.0337V33.3104C399.888 33.4057 398.99 33.7297 398.608 34.3204C398.226 34.9112 398.035 36.3976 398.035 38.7605V51.3377H396.755C396.717 50.6135 396.545 49.8322 396.278 48.9937C395.991 48.1553 395.59 47.736 395.036 47.736C394.788 47.736 394.52 47.7932 394.272 47.9266C394.024 48.06 393.565 48.3458 392.935 48.8222C391.54 49.8894 390.05 50.7279 388.484 51.3377C386.917 51.9475 385.083 52.2524 383.001 52.2524C376.41 52.2524 371.291 50.2515 367.623 46.2496C363.955 42.2478 362.121 36.7024 362.121 29.6326C362.121 24.6779 363.019 20.3903 364.796 16.7887C366.572 13.187 369.017 10.4048 372.093 8.42296C375.169 6.46016 378.684 5.46924 382.638 5.46924L382.619 5.48829Z" fill="black"/>
<path d="M429.27 0L454.009 63.6098C455.021 66.1633 456.168 67.8784 457.447 68.7169C458.727 69.5554 459.912 70.0127 461.001 70.0889V72.1089C459.644 71.9755 458.001 71.8993 456.034 71.8612C454.066 71.823 452.118 71.804 450.15 71.804C447.514 71.804 445.049 71.804 442.757 71.8612C440.446 71.8993 438.593 71.9755 437.179 72.1089V70.0889C440.637 69.9555 442.814 69.3648 443.77 68.3167C444.725 67.2686 444.515 65.039 443.158 61.5898L424.303 11.3194L425.927 10.0045L408.295 55.7205C406.881 59.3602 406.193 62.2187 406.27 64.2768C406.346 66.3348 407.11 67.8022 408.6 68.6788C410.09 69.5554 412.249 70.0318 415.076 70.0889V72.1089C413.185 71.9755 411.198 71.8993 409.154 71.8612C407.091 71.823 405.181 71.804 403.423 71.804C401.666 71.804 400.29 71.804 399.125 71.8612C397.941 71.8993 396.852 71.9755 395.82 72.1089V70.0889C397.177 69.7459 398.552 68.9646 399.985 67.7069C401.398 66.4682 402.678 64.3149 403.825 61.2849L427.646 0H429.27ZM441.63 42.9719V44.9918H411.428L412.44 42.9719H441.649H441.63Z" fill="black"/>
<path d="M256.575 6.65052C258.333 8.19408 259.212 10.2903 259.212 12.901C259.212 14.94 258.658 16.7122 257.55 18.1986C256.442 19.7041 254.971 20.9046 253.156 21.7812C251.532 22.5434 248.399 23.6487 243.719 25.0779C246.107 26.0879 247.845 27.5552 248.972 29.4228C250.099 31.3093 250.653 33.4627 250.653 35.8638C250.653 38.4935 249.87 40.9708 248.304 43.2957C246.737 45.6206 244.483 47.5071 241.541 48.9173C238.599 50.3275 235.18 51.0516 231.225 51.0516C227.538 51.0516 224.1 50.4037 220.948 49.1079C217.777 47.812 215.274 45.9636 213.402 43.5816C211.53 41.1805 210.594 38.3982 210.594 35.2159C210.594 32.4146 211.281 30.0516 212.657 28.1269C214.032 26.2022 215.618 24.7349 217.395 23.744C219.171 22.7531 220.833 22.067 222.361 21.6859C220.279 20.7903 218.694 19.6088 217.586 18.1224C216.478 16.636 215.924 15.0924 215.924 13.4917C215.924 12.1006 216.344 10.7857 217.165 9.58519C217.987 8.38464 219.228 7.41277 220.852 6.66958C222.495 5.92638 224.425 5.56431 226.679 5.56431C229.525 5.56431 231.741 6.19317 233.308 7.46994C234.072 8.0988 234.664 8.82293 235.065 9.60424C235.466 10.3855 235.676 11.1478 235.676 11.8529C235.676 12.8629 235.313 13.6823 234.587 14.2921C233.862 14.9019 233.04 15.2068 232.104 15.2068C231.168 15.2068 230.442 14.9209 229.773 14.3493C229.124 13.7776 228.78 12.9963 228.78 12.0244C228.78 11.0525 229.105 10.2903 229.735 9.64235C230.366 8.99444 231.187 8.61332 232.161 8.53709C231.951 7.98446 231.397 7.50805 230.538 7.10787C229.659 6.70769 228.589 6.49807 227.328 6.49807C225.112 6.49807 223.336 7.16504 221.979 8.49898C220.623 9.83292 219.935 11.6814 219.935 14.0634C219.935 16.9028 221.024 19.3229 223.183 21.3048C224.673 21.0571 225.991 20.9237 227.137 20.9237C227.901 20.9237 228.513 21.0571 228.99 21.3048C229.449 21.5525 229.697 21.9146 229.697 22.391C229.697 22.7721 229.544 23.077 229.219 23.2866C228.895 23.4963 228.455 23.6106 227.92 23.6106C227.233 23.6106 226.545 23.4772 225.819 23.2295C225.093 22.9817 224.253 22.6387 223.278 22.2195C217.757 23.8774 215.007 27.3456 215.007 32.6433C215.007 35.4826 215.752 37.9409 217.242 40.018C218.732 42.0952 220.776 43.6768 223.355 44.744C225.934 45.8302 228.856 46.3638 232.085 46.3638C235.103 46.3638 237.892 45.8874 240.471 44.9346C243.031 43.9817 245.075 42.6287 246.584 40.8756C248.093 39.1224 248.838 37.0643 248.838 34.7394C248.838 33.0434 248.399 31.3284 247.501 29.5943C246.603 27.8601 244.903 26.5071 242.401 25.5353C239.096 26.5453 236.651 27.3647 235.084 27.9554C233.308 28.6414 231.913 29.4037 230.939 30.2803C229.964 31.1569 229.468 32.224 229.468 33.4817C229.468 35.0062 230.098 36.2449 231.34 37.1596C232.601 38.0933 233.919 38.5507 235.313 38.5507C236.039 38.5507 236.823 38.4173 237.663 38.1696C238.504 37.9218 239 37.5788 239.134 37.1596C238.332 36.9881 237.625 36.6451 237.033 36.1496C236.44 35.6351 236.135 34.8919 236.135 33.92C236.135 32.9482 236.46 32.0906 237.128 31.4999C237.778 30.9091 238.618 30.6042 239.65 30.6042C240.681 30.6042 241.484 30.9282 242.095 31.5571C242.706 32.1859 243.012 33.0244 243.012 34.0344C243.012 35.7304 242.229 37.0643 240.662 38.0362C239.096 39.008 237.357 39.5035 235.447 39.5035C233.365 39.5035 231.531 38.8747 229.945 37.636C228.36 36.3783 227.557 34.5298 227.557 32.0716C227.557 29.9182 228.283 28.0698 229.754 26.5834C231.225 25.0779 233.422 23.8202 236.345 22.8102L240.872 21.4763C243.413 20.7522 245.534 20.1233 247.234 19.5707C248.934 19.018 250.481 18.4273 251.876 17.7984C253.92 16.8647 255.334 15.9119 256.136 14.94C256.938 13.9681 257.339 12.8819 257.339 11.7004C257.339 9.9282 256.614 8.4037 255.143 7.16504C253.672 5.90733 251.952 5.29753 249.946 5.29753C248.877 5.29753 248.246 5.48809 248.036 5.86921C248.59 6.11695 249.03 6.53618 249.335 7.10787C249.66 7.67956 249.813 8.23219 249.813 8.78482C249.813 9.68047 249.469 10.4237 248.762 11.0144C248.055 11.6051 247.215 11.91 246.24 11.91C245.343 11.91 244.559 11.6433 243.891 11.0906C243.203 10.538 242.878 9.75669 242.878 8.74671C242.878 7.22221 243.585 6.11695 245.018 5.41186C246.451 4.70678 248.055 4.36377 249.889 4.36377C252.564 4.36377 254.78 5.14508 256.556 6.68863L256.575 6.65052Z" fill="#6C0716"/>
<path d="M109.425 69.5935C109.024 69.6125 108.738 69.6507 108.566 69.7269C108.394 69.7841 108.26 69.9174 108.203 70.108C108.145 70.2986 108.107 70.6035 108.107 71.0227V79.1788C108.107 79.598 108.145 79.9029 108.203 80.0744C108.26 80.265 108.394 80.3793 108.566 80.4556C108.757 80.5127 109.043 80.5699 109.425 80.589V80.9129C108.929 80.8748 108.222 80.8557 107.324 80.8557C106.388 80.8557 105.681 80.8557 105.223 80.9129V80.589C105.624 80.5699 105.91 80.5318 106.082 80.4556C106.273 80.3984 106.388 80.265 106.445 80.0744C106.503 79.8839 106.541 79.579 106.541 79.1788V71.0227C106.541 70.6035 106.503 70.2986 106.445 70.108C106.388 69.9174 106.254 69.8031 106.082 69.7269C105.91 69.6697 105.605 69.6125 105.223 69.5935V69.2695C105.681 69.3076 106.388 69.3267 107.324 69.3267C108.203 69.3267 108.91 69.3267 109.425 69.2695V69.5935Z" fill="black"/>
<path d="M118.711 72.8329C118.921 73.0616 119.074 73.3284 119.15 73.6524C119.246 73.9763 119.284 74.4337 119.284 74.9863V79.3692C119.284 79.8266 119.379 80.1315 119.57 80.303C119.761 80.4745 120.086 80.5507 120.545 80.5507V80.8937C119.532 80.8556 118.883 80.8366 118.558 80.8366C118.233 80.8366 117.641 80.8556 116.705 80.8937V80.5507C117.106 80.5507 117.393 80.4745 117.545 80.303C117.698 80.1315 117.775 79.8266 117.775 79.3692V74.6242C117.775 74.0144 117.679 73.538 117.507 73.2141C117.335 72.8901 116.972 72.7376 116.437 72.7376C115.979 72.7376 115.578 72.871 115.234 73.1378C114.89 73.4046 114.603 73.7667 114.412 74.224C114.221 74.6814 114.126 75.1769 114.126 75.7485V79.4073C114.126 79.8647 114.202 80.1696 114.374 80.3411C114.527 80.5126 114.814 80.5888 115.215 80.5888V80.9318C114.298 80.8937 113.667 80.8747 113.362 80.8747C113.056 80.8747 112.387 80.8937 111.375 80.9318V80.5888C111.833 80.5888 112.158 80.5126 112.349 80.3411C112.54 80.1696 112.636 79.8647 112.636 79.4073V74.2622C112.636 73.7667 112.54 73.3856 112.349 73.1569C112.158 72.9282 111.833 72.8139 111.375 72.8139V72.4709C111.719 72.509 112.063 72.528 112.387 72.528C113.075 72.528 113.648 72.4518 114.107 72.2994V74.2431C114.374 73.538 114.756 73.0426 115.253 72.7186C115.75 72.4137 116.285 72.2422 116.915 72.2422C117.679 72.2422 118.271 72.4518 118.653 72.871L118.711 72.8329Z" fill="black"/>
<path d="M124.748 72.4516H127.193V72.7756H124.748V79.1404C124.748 79.6359 124.843 79.9979 125.015 80.2075C125.187 80.4362 125.455 80.5315 125.799 80.5315C126.142 80.5315 126.429 80.3981 126.677 80.1123C126.926 79.8455 127.117 79.3881 127.289 78.7593L127.613 78.8355C127.346 80.3409 126.62 81.1032 125.474 81.1032C125.092 81.1032 124.786 81.0651 124.557 80.9698C124.328 80.8745 124.098 80.7411 123.907 80.5506C123.659 80.3028 123.506 80.017 123.411 79.6549C123.315 79.3119 123.277 78.8355 123.277 78.2448V72.7375H121.691V72.4135H123.277V69.8981C123.888 69.8791 124.385 69.8028 124.767 69.6694V72.4135L124.748 72.4516Z" fill="black"/>
<path d="M135.901 78.931C135.71 79.5408 135.328 80.0553 134.793 80.4936C134.258 80.9319 133.589 81.1415 132.825 81.1415C132.061 81.1415 131.373 80.97 130.8 80.6079C130.227 80.2458 129.788 79.7504 129.482 79.1025C129.176 78.4546 129.023 77.7114 129.023 76.8729C129.023 75.9201 129.176 75.0816 129.482 74.3956C129.788 73.7095 130.227 73.1569 130.781 72.7758C131.335 72.3947 132.004 72.2041 132.749 72.2041C133.742 72.2041 134.506 72.509 135.041 73.0997C135.576 73.6905 135.843 74.6052 135.843 75.8248H130.685C130.647 76.1297 130.628 76.4918 130.628 76.8729C130.628 77.597 130.743 78.2259 130.991 78.7595C131.22 79.293 131.545 79.7123 131.927 79.9981C132.309 80.284 132.729 80.4364 133.15 80.4364C133.685 80.4364 134.143 80.303 134.544 80.0553C134.945 79.8075 135.289 79.3883 135.557 78.7976L135.882 78.931H135.901ZM131.354 73.2713C130.972 73.7858 130.743 74.529 130.666 75.5008H134.258C134.277 74.6433 134.162 73.9382 133.895 73.3665C133.627 72.7948 133.226 72.509 132.691 72.509C132.156 72.509 131.736 72.7567 131.354 73.2713Z" fill="black"/>
<path d="M140.545 79.3693C140.545 79.8266 140.64 80.1315 140.831 80.303C141.022 80.4745 141.347 80.5507 141.806 80.5507V80.8938C140.793 80.8556 140.124 80.8366 139.819 80.8366C139.513 80.8366 138.845 80.8556 137.832 80.8938V80.5507C138.291 80.5507 138.615 80.4745 138.806 80.303C138.997 80.1315 139.093 79.8266 139.093 79.3693V69.9745C139.093 69.4791 138.997 69.0979 138.806 68.8693C138.615 68.6406 138.291 68.5262 137.832 68.5262V68.1832C138.176 68.2213 138.52 68.2404 138.864 68.2404C139.551 68.2404 140.124 68.1642 140.583 68.0117V79.3693H140.545Z" fill="black"/>
<path d="M146.084 79.3693C146.084 79.8266 146.179 80.1315 146.37 80.303C146.561 80.4745 146.886 80.5507 147.345 80.5507V80.8938C146.332 80.8556 145.663 80.8366 145.358 80.8366C145.052 80.8366 144.384 80.8556 143.371 80.8938V80.5507C143.83 80.5507 144.154 80.4745 144.345 80.303C144.536 80.1315 144.632 79.8266 144.632 79.3693V69.9745C144.632 69.4791 144.536 69.0979 144.345 68.8693C144.154 68.6406 143.83 68.5262 143.371 68.5262V68.1832C143.715 68.2213 144.059 68.2404 144.403 68.2404C145.09 68.2404 145.663 68.1642 146.122 68.0117V79.3693H146.084Z" fill="black"/>
<path d="M155.979 78.931C155.788 79.5408 155.406 80.0553 154.871 80.4936C154.336 80.9319 153.667 81.1415 152.903 81.1415C152.139 81.1415 151.451 80.97 150.878 80.6079C150.305 80.2458 149.866 79.7504 149.56 79.1025C149.254 78.4546 149.102 77.7114 149.102 76.8729C149.102 75.9201 149.254 75.0816 149.56 74.3956C149.866 73.7095 150.305 73.1569 150.859 72.7758C151.413 72.3947 152.082 72.2041 152.827 72.2041C153.82 72.2041 154.584 72.509 155.119 73.0997C155.654 73.6905 155.921 74.6052 155.921 75.8248H150.764C150.725 76.1297 150.706 76.4918 150.706 76.8729C150.706 77.597 150.821 78.2259 151.069 78.7595C151.298 79.293 151.623 79.7123 152.005 79.9981C152.387 80.284 152.808 80.4364 153.228 80.4364C153.763 80.4364 154.221 80.303 154.622 80.0553C155.024 79.8075 155.367 79.3883 155.635 78.7976L155.96 78.931H155.979ZM151.432 73.2713C151.05 73.7858 150.821 74.529 150.744 75.5008H154.336C154.355 74.6433 154.24 73.9382 153.973 73.3665C153.705 72.7948 153.304 72.509 152.769 72.509C152.234 72.509 151.814 72.7567 151.432 73.2713Z" fill="black"/>
<path d="M164.023 72.7377C164.538 73.0807 164.806 73.4999 164.806 73.9954C164.806 74.2812 164.729 74.5099 164.558 74.6624C164.386 74.8339 164.175 74.9101 163.927 74.9101C163.679 74.9101 163.469 74.8339 163.278 74.6814C163.106 74.529 163.01 74.3384 163.01 74.0907C163.01 73.862 163.067 73.6714 163.201 73.4999C163.335 73.3284 163.507 73.2332 163.698 73.176C163.583 72.9854 163.392 72.8139 163.106 72.6805C162.819 72.5471 162.533 72.49 162.208 72.49C161.807 72.49 161.425 72.6234 161.062 72.8711C160.699 73.1188 160.412 73.5571 160.183 74.1479C159.954 74.7386 159.839 75.539 159.839 76.5108C159.839 77.8638 160.068 78.8547 160.508 79.4836C160.947 80.1125 161.52 80.4174 162.227 80.4174C162.705 80.4174 163.144 80.284 163.564 79.9981C163.984 79.7313 164.328 79.293 164.615 78.7214L164.921 78.8357C164.729 79.4645 164.386 79.9981 163.87 80.4555C163.354 80.9128 162.705 81.1224 161.883 81.1224C161.195 81.1224 160.584 80.9509 160.03 80.5889C159.476 80.2459 159.037 79.7313 158.712 79.0644C158.387 78.3974 158.234 77.6351 158.234 76.7586C158.234 75.882 158.387 75.0816 158.712 74.3956C159.037 73.7096 159.495 73.1569 160.068 72.7758C160.66 72.3947 161.31 72.1851 162.055 72.1851C162.8 72.1851 163.43 72.3566 163.965 72.7186L164.023 72.7377Z" fill="black"/>
<path d="M169.486 72.4516H171.931V72.7756H169.486V79.1404C169.486 79.6359 169.582 79.9979 169.754 80.2075C169.926 80.4362 170.193 80.5315 170.537 80.5315C170.881 80.5315 171.167 80.3981 171.416 80.1123C171.664 79.8455 171.855 79.3881 172.027 78.7593L172.352 78.8355C172.084 80.3409 171.358 81.1032 170.212 81.1032C169.83 81.1032 169.524 81.0651 169.295 80.9698C169.066 80.8745 168.837 80.7411 168.646 80.5506C168.397 80.3028 168.244 80.017 168.149 79.6549C168.053 79.3119 168.015 78.8355 168.015 78.2448V72.7375H166.43V72.4135H168.015V69.8981C168.627 69.8791 169.123 69.8028 169.505 69.6694V72.4135L169.486 72.4516Z" fill="black"/>
<path d="M180.968 79.1215C180.968 79.617 181.064 79.9981 181.255 80.2268C181.446 80.4554 181.77 80.5698 182.229 80.5698V80.9128C181.885 80.8747 181.541 80.8556 181.216 80.8556C180.529 80.8556 179.956 80.9319 179.497 81.0843V79.1406C179.23 79.8266 178.867 80.3221 178.37 80.646C177.893 80.97 177.358 81.1224 176.785 81.1224C176.04 81.1224 175.466 80.9128 175.065 80.4936C174.874 80.2649 174.721 79.9981 174.645 79.6551C174.569 79.3121 174.53 78.8738 174.53 78.3402V74.205C174.53 73.7095 174.435 73.3284 174.244 73.0997C174.053 72.8711 173.728 72.7567 173.27 72.7567V72.4137C173.613 72.4518 173.957 72.4709 174.301 72.4709C174.989 72.4709 175.562 72.3946 176.02 72.2422V78.7023C176.02 79.1215 176.04 79.4645 176.097 79.7123C176.154 79.979 176.269 80.1887 176.441 80.3411C176.632 80.5126 176.899 80.5888 177.281 80.5888C177.702 80.5888 178.084 80.4555 178.427 80.1887C178.771 79.9219 179.039 79.5598 179.23 79.1024C179.421 78.6451 179.516 78.1496 179.516 77.597V74.1859C179.516 73.6905 179.421 73.3093 179.23 73.0807C179.039 72.852 178.714 72.7377 178.255 72.7377V72.3947C178.599 72.4328 178.943 72.4518 179.268 72.4518C179.956 72.4518 180.529 72.3756 180.987 72.2231V79.1024L180.968 79.1215Z" fill="black"/>
<path d="M184.559 80.4936C184.215 80.1506 184.062 79.6742 184.062 79.0644C184.062 78.5689 184.196 78.1687 184.464 77.8448C184.731 77.5208 185.056 77.2731 185.419 77.0825C185.782 76.892 186.278 76.7014 186.871 76.4918C187.482 76.2822 187.94 76.0916 188.246 75.9201C188.552 75.7486 188.685 75.5008 188.685 75.215V74.186C188.685 73.5571 188.552 73.1188 188.284 72.8711C188.017 72.6424 187.635 72.509 187.157 72.509C186.393 72.509 185.839 72.6996 185.533 73.0998C185.763 73.1569 185.935 73.2713 186.087 73.4428C186.24 73.6143 186.317 73.843 186.317 74.1097C186.317 74.3765 186.221 74.6052 186.049 74.7577C185.877 74.9101 185.648 74.9863 185.381 74.9863C185.075 74.9863 184.846 74.891 184.693 74.7005C184.54 74.5099 184.464 74.2812 184.464 73.9954C184.464 73.7096 184.521 73.519 184.655 73.3475C184.788 73.176 184.979 73.0045 185.228 72.8139C185.495 72.6233 185.82 72.4709 186.24 72.3566C186.641 72.2422 187.1 72.1851 187.578 72.1851C188.437 72.1851 189.087 72.3947 189.526 72.7949C189.793 73.0426 189.985 73.3475 190.08 73.7096C190.176 74.0716 190.214 74.529 190.214 75.1197V79.6932C190.214 79.96 190.252 80.1696 190.328 80.284C190.405 80.3983 190.539 80.4555 190.73 80.4555C190.863 80.4555 190.978 80.4174 191.093 80.3602C191.207 80.303 191.322 80.2077 191.455 80.1125L191.646 80.3983C191.36 80.627 191.112 80.7794 190.921 80.8747C190.71 80.97 190.462 81.0081 190.156 81.0081C189.622 81.0081 189.259 80.8747 189.048 80.6079C188.838 80.3411 188.743 79.9791 188.743 79.5408C188.418 80.0934 188.036 80.4745 187.597 80.6841C187.176 80.8938 186.68 81.0081 186.145 81.0081C185.457 81.0081 184.941 80.8366 184.597 80.4936H184.559ZM188.685 79.1025V75.882C188.59 76.0344 188.456 76.1678 188.265 76.2631C188.093 76.3584 187.826 76.4918 187.463 76.6633C187.043 76.8348 186.699 77.0063 186.45 77.1587C186.183 77.3112 185.973 77.5399 185.782 77.8067C185.591 78.0734 185.495 78.4355 185.495 78.8548C185.495 79.3502 185.61 79.7123 185.858 79.9791C186.107 80.2459 186.412 80.3602 186.813 80.3602C187.539 80.3602 188.17 79.941 188.685 79.1025Z" fill="black"/>
<path d="M195.545 79.3693C195.545 79.8266 195.64 80.1315 195.831 80.303C196.022 80.4745 196.347 80.5507 196.805 80.5507V80.8938C195.793 80.8556 195.124 80.8366 194.819 80.8366C194.513 80.8366 193.845 80.8556 192.832 80.8938V80.5507C193.291 80.5507 193.615 80.4745 193.806 80.303C193.997 80.1315 194.093 79.8266 194.093 79.3693V69.9745C194.093 69.4791 193.997 69.0979 193.806 68.8693C193.615 68.6406 193.291 68.5262 192.832 68.5262V68.1832C193.176 68.2213 193.52 68.2404 193.864 68.2404C194.551 68.2404 195.124 68.1642 195.583 68.0117V79.3693H195.545Z" fill="black"/>
<path d="M206.471 76.206V79.1597C206.471 79.579 206.509 79.8839 206.605 80.0554C206.7 80.2459 206.853 80.3603 207.063 80.4365C207.273 80.4937 207.636 80.5508 208.133 80.5699V80.8939C207.56 80.8558 206.758 80.8367 205.707 80.8367C204.771 80.8367 204.064 80.8367 203.605 80.8939V80.5699C204.007 80.5508 204.293 80.5127 204.465 80.4365C204.656 80.3793 204.771 80.2459 204.828 80.0554C204.885 79.8648 204.924 79.5599 204.924 79.1597V71.0037C204.924 70.5844 204.885 70.2795 204.828 70.089C204.771 69.8984 204.637 69.7841 204.465 69.7078C204.293 69.6507 203.988 69.5935 203.605 69.5744V69.2505C204.064 69.2886 204.733 69.3077 205.611 69.3077H207.388C207.598 69.2886 207.827 69.2695 208.095 69.2695C209.375 69.2695 210.368 69.5554 211.037 70.1461C211.724 70.7369 212.049 71.5182 212.049 72.5091C212.049 73.1189 211.915 73.6906 211.648 74.2432C211.38 74.7959 210.922 75.2532 210.273 75.6343C209.623 76.0155 208.782 76.187 207.713 76.187H206.452L206.471 76.206ZM206.929 69.7078C206.758 69.7841 206.643 69.9175 206.566 70.1271C206.509 70.3176 206.471 70.6225 206.471 71.0227V75.8821H207.579C208.649 75.8821 209.394 75.5962 209.814 75.0245C210.234 74.4528 210.425 73.6715 210.425 72.7187C210.425 71.6516 210.215 70.8703 209.795 70.3748C209.375 69.8793 208.668 69.6126 207.694 69.6126C207.35 69.6126 207.101 69.6507 206.929 69.7269V69.7078Z" fill="black"/>
<path d="M220.072 72.5852C220.359 72.833 220.493 73.1379 220.493 73.4999C220.493 73.7858 220.416 74.0335 220.244 74.2241C220.072 74.4337 219.843 74.529 219.556 74.529C219.308 74.529 219.117 74.4528 218.945 74.3003C218.773 74.1479 218.697 73.9382 218.697 73.6714C218.697 73.3094 218.888 73.0045 219.251 72.7758C219.174 72.6615 219.06 72.6043 218.907 72.6043C218.487 72.6043 218.086 72.7758 217.742 73.0998C217.398 73.4428 217.111 73.843 216.92 74.3194C216.729 74.7958 216.615 75.2531 216.615 75.6914V79.1787C216.615 79.6742 216.767 80.0362 217.054 80.2268C217.341 80.4174 217.78 80.5317 218.372 80.5317V80.8747H217.971C216.844 80.8175 216.137 80.8175 215.831 80.8175C215.545 80.8175 214.895 80.8366 213.883 80.8747V80.5317C214.341 80.5317 214.666 80.4555 214.857 80.284C215.048 80.1125 215.144 79.8076 215.144 79.3502V74.205C215.144 73.7096 215.048 73.3284 214.857 73.0998C214.666 72.8711 214.341 72.7567 213.883 72.7567V72.4137C214.227 72.4518 214.571 72.4709 214.895 72.4709C215.583 72.4709 216.156 72.3947 216.615 72.2422V74.3003C216.806 73.7477 217.13 73.2713 217.57 72.833C218.009 72.4137 218.487 72.1851 219.002 72.1851C219.442 72.1851 219.805 72.3185 220.091 72.5662L220.072 72.5852Z" fill="black"/>
<path d="M228.437 73.3094C229.125 74.0526 229.469 75.1769 229.469 76.6633C229.469 78.1497 229.125 79.293 228.437 80.0172C227.75 80.7604 226.852 81.1224 225.725 81.1224C224.598 81.1224 223.7 80.7604 223.012 80.0172C222.324 79.274 221.98 78.1687 221.98 76.6633C221.98 75.1578 222.324 74.0335 223.012 73.3094C223.7 72.5662 224.598 72.2041 225.725 72.2041C226.852 72.2041 227.75 72.5662 228.437 73.3094ZM224.158 73.538C223.776 74.205 223.585 75.2531 223.585 76.6633C223.585 78.0734 223.776 79.1215 224.158 79.7885C224.54 80.4555 225.056 80.7985 225.725 80.7985C226.393 80.7985 226.909 80.4555 227.291 79.7885C227.673 79.1215 227.864 78.0734 227.864 76.6633C227.864 75.2531 227.673 74.205 227.291 73.538C226.909 72.8711 226.393 72.5281 225.725 72.5281C225.056 72.5281 224.54 72.8711 224.158 73.538Z" fill="black"/>
<path d="M238.391 72.6805C238.849 73.0045 239.231 73.4618 239.48 74.0716C239.747 74.6814 239.881 75.4246 239.881 76.2822C239.881 77.1397 239.747 77.921 239.48 78.6451C239.212 79.3883 238.792 79.9791 238.219 80.4364C237.646 80.8938 236.939 81.1225 236.098 81.1225C235.678 81.1225 235.296 81.0462 234.952 80.8747C234.608 80.7032 234.341 80.4936 234.169 80.2268V82.323C234.169 82.7804 234.303 83.0853 234.57 83.2568C234.837 83.4283 235.239 83.5045 235.754 83.5045V83.8475H235.372C234.341 83.7903 233.691 83.7903 233.386 83.7903C233.118 83.7903 232.526 83.8094 231.609 83.8475V83.5045C232.01 83.5045 232.297 83.4283 232.45 83.2758C232.602 83.1234 232.679 82.8566 232.679 82.4755V74.186C232.679 73.6905 232.583 73.3094 232.392 73.0807C232.201 72.852 231.876 72.7377 231.418 72.7377V72.3947C231.762 72.4328 232.106 72.4519 232.45 72.4519C233.137 72.4519 233.71 72.3756 234.169 72.2232V73.9573C234.417 73.3856 234.761 72.9473 235.22 72.6424C235.678 72.3375 236.213 72.166 236.805 72.166C237.397 72.166 237.913 72.3185 238.372 72.6424L238.391 72.6805ZM238.276 76.5108C238.276 73.9764 237.646 72.6996 236.366 72.6996C235.869 72.6996 235.43 72.8711 235.028 73.2332C234.627 73.5952 234.341 74.1098 234.169 74.7767V79.7123C234.322 80.0363 234.551 80.284 234.837 80.4745C235.124 80.6651 235.487 80.7604 235.907 80.7604C237.474 80.7604 238.257 79.3502 238.257 76.5108H238.276Z" fill="black"/>
<path d="M249.108 78.931C248.917 79.5408 248.535 80.0553 248 80.4936C247.446 80.9319 246.796 81.1415 246.032 81.1415C245.268 81.1415 244.58 80.97 244.007 80.6079C243.434 80.2458 242.995 79.7504 242.689 79.1025C242.383 78.4546 242.23 77.7114 242.23 76.8729C242.23 75.9201 242.383 75.0816 242.689 74.3956C242.995 73.7095 243.434 73.1569 243.988 72.7758C244.542 72.3947 245.211 72.2041 245.956 72.2041C246.949 72.2041 247.713 72.509 248.248 73.0997C248.783 73.6905 249.05 74.6052 249.05 75.8248H243.892C243.854 76.1297 243.835 76.4918 243.835 76.8729C243.835 77.597 243.95 78.2259 244.198 78.7595C244.427 79.293 244.752 79.7123 245.134 79.9981C245.516 80.284 245.937 80.4364 246.357 80.4364C246.892 80.4364 247.35 80.303 247.751 80.0553C248.152 79.8075 248.496 79.3883 248.764 78.7976L249.089 78.931H249.108ZM244.561 73.2713C244.179 73.7858 243.95 74.529 243.873 75.5008H247.465C247.484 74.6433 247.369 73.9382 247.102 73.3665C246.834 72.7948 246.433 72.509 245.898 72.509C245.363 72.509 244.943 72.7567 244.561 73.2713Z" fill="black"/>
<path d="M257.322 72.5852C257.609 72.833 257.743 73.1379 257.743 73.4999C257.743 73.7858 257.666 74.0335 257.494 74.2241C257.322 74.4337 257.093 74.529 256.806 74.529C256.558 74.529 256.367 74.4528 256.195 74.3003C256.023 74.1479 255.947 73.9382 255.947 73.6714C255.947 73.3094 256.138 73.0045 256.501 72.7758C256.424 72.6615 256.31 72.6043 256.157 72.6043C255.737 72.6043 255.336 72.7758 254.992 73.0998C254.648 73.4428 254.361 73.843 254.17 74.3194C253.979 74.7958 253.865 75.2531 253.865 75.6914V79.1787C253.865 79.6742 254.017 80.0362 254.304 80.2268C254.59 80.4174 255.03 80.5317 255.622 80.5317V80.8747H255.221C254.094 80.8175 253.387 80.8175 253.081 80.8175C252.795 80.8175 252.145 80.8366 251.133 80.8747V80.5317C251.591 80.5317 251.916 80.4555 252.107 80.284C252.298 80.1125 252.394 79.8076 252.394 79.3502V74.205C252.394 73.7096 252.298 73.3284 252.107 73.0998C251.916 72.8711 251.591 72.7567 251.133 72.7567V72.4137C251.477 72.4518 251.821 72.4709 252.164 72.4709C252.852 72.4709 253.425 72.3947 253.884 72.2422V74.3003C254.075 73.7477 254.399 73.2713 254.839 72.833C255.278 72.4137 255.756 72.1851 256.272 72.1851C256.711 72.1851 257.074 72.3185 257.36 72.5662L257.322 72.5852Z" fill="black"/>
<path d="M261.928 72.4516H264.373V72.7756H261.928V79.1404C261.928 79.6359 262.023 79.9979 262.195 80.2075C262.367 80.4362 262.634 80.5315 262.978 80.5315C263.322 80.5315 263.609 80.3981 263.857 80.1123C264.105 79.8455 264.296 79.3881 264.468 78.7593L264.793 78.8355C264.526 80.3409 263.8 81.1032 262.654 81.1032C262.271 81.1032 261.966 81.0651 261.737 80.9698C261.488 80.8745 261.278 80.7411 261.087 80.5506C260.839 80.3028 260.686 80.017 260.59 79.6549C260.495 79.3119 260.457 78.8355 260.457 78.2448V72.7375H258.871V72.4135H260.457V69.8981C261.068 69.8791 261.565 69.8028 261.947 69.6694V72.4135L261.928 72.4516Z" fill="black"/>
<path d="M273.598 72.4326V72.7566C273.369 72.7756 273.178 72.8709 273.006 73.0615C272.834 73.233 272.681 73.5188 272.528 73.919L269.816 80.9889L269.262 82.4181C269.051 82.9517 268.822 83.3328 268.555 83.5615C268.383 83.7139 268.192 83.8283 267.963 83.8854C267.733 83.9426 267.504 83.9807 267.275 83.9807C266.95 83.9807 266.683 83.8854 266.473 83.7139C266.262 83.5424 266.167 83.2947 266.167 82.9898C266.167 82.723 266.243 82.5134 266.396 82.3609C266.549 82.2085 266.759 82.1323 267.046 82.1323C267.294 82.1323 267.485 82.2085 267.657 82.3419C267.81 82.4753 267.886 82.6658 267.886 82.9136C267.886 83.2375 267.733 83.4853 267.447 83.6568C267.466 83.6568 267.504 83.6568 267.542 83.6568C268.154 83.6568 268.612 83.2375 268.937 82.38L269.51 80.8746L266.53 73.6903C266.339 73.3092 266.148 73.0615 265.976 72.9471C265.785 72.8328 265.594 72.7566 265.422 72.7566V72.4136C265.899 72.4707 266.434 72.5089 267.046 72.5089C267.6 72.5089 268.306 72.4707 269.185 72.4136V72.7566C268.784 72.7566 268.498 72.7947 268.326 72.8519C268.154 72.909 268.058 73.0805 268.058 73.3283C268.058 73.5569 268.135 73.8237 268.249 74.1286L270.236 79.0261L272.07 74.2811C272.184 73.9571 272.242 73.7094 272.242 73.5188C272.242 73.2711 272.146 73.0805 271.936 72.9662C271.745 72.8519 271.42 72.7756 271 72.7375V72.4136C271.573 72.4517 272.051 72.4707 272.395 72.4707C272.872 72.4707 273.292 72.4707 273.655 72.4136L273.598 72.4326Z" fill="black"/>
<path d="M289.017 80.57V80.8939C288.577 80.8558 287.985 80.8367 287.259 80.8367C286.304 80.8367 285.616 80.8368 285.158 80.8939V80.57C285.578 80.5509 285.884 80.4937 286.056 80.4175C286.247 80.3413 286.323 80.1888 286.323 79.9602C286.323 79.7696 286.266 79.5219 286.132 79.1789L285.12 76.4729H281.127L280.459 78.226C280.229 78.8168 280.134 79.2741 280.134 79.579C280.134 79.922 280.248 80.1698 280.497 80.3222C280.726 80.4747 281.089 80.5509 281.567 80.57V80.8939C280.936 80.8558 280.306 80.8367 279.675 80.8367C279.179 80.8367 278.777 80.8368 278.434 80.8939V80.57C278.988 80.4366 279.427 79.9602 279.733 79.1407L283.611 69.1743H283.878L287.909 79.5219C288.176 80.2079 288.558 80.5509 289.036 80.57H289.017ZM284.986 76.168L283.133 71.2514L281.261 76.168H284.986Z" fill="black"/>
<path d="M292.873 72.4516H295.318V72.7756H292.873V79.1404C292.873 79.6359 292.968 79.9979 293.14 80.2075C293.312 80.4172 293.58 80.5315 293.924 80.5315C294.267 80.5315 294.554 80.3981 294.802 80.1123C295.051 79.8455 295.242 79.3881 295.414 78.7593L295.738 78.8355C295.471 80.3409 294.745 81.1032 293.599 81.1032C293.217 81.1032 292.911 81.0651 292.682 80.9698C292.434 80.8745 292.223 80.7411 292.032 80.5506C291.784 80.3028 291.631 80.017 291.536 79.6549C291.44 79.2928 291.402 78.8355 291.402 78.2448V72.7375H289.816V72.4135H291.402V69.8981C292.013 69.8791 292.51 69.8028 292.892 69.6694V72.4135L292.873 72.4516Z" fill="black"/>
<path d="M298.873 72.4516H301.318V72.7756H298.873V79.1404C298.873 79.6359 298.968 79.9979 299.14 80.2075C299.312 80.4362 299.58 80.5315 299.924 80.5315C300.267 80.5315 300.554 80.3981 300.802 80.1123C301.051 79.8455 301.242 79.3881 301.414 78.7593L301.738 78.8355C301.471 80.3409 300.745 81.1032 299.599 81.1032C299.217 81.1032 298.911 81.0651 298.682 80.9698C298.434 80.8745 298.223 80.7411 298.032 80.5506C297.784 80.3028 297.631 80.017 297.536 79.6549C297.44 79.3119 297.402 78.8355 297.402 78.2448V72.7375H295.816V72.4135H297.402V69.8981C298.013 69.8791 298.51 69.8028 298.892 69.6694V72.4135L298.873 72.4516Z" fill="black"/>
<path d="M309.629 73.3094C310.317 74.0526 310.66 75.1769 310.66 76.6633C310.66 78.1497 310.317 79.293 309.629 80.0172C308.941 80.7604 308.043 81.1224 306.916 81.1224C305.789 81.1224 304.891 80.7604 304.203 80.0172C303.516 79.274 303.172 78.1687 303.172 76.6633C303.172 75.1578 303.516 74.0335 304.203 73.3094C304.891 72.5662 305.789 72.2041 306.916 72.2041C308.043 72.2041 308.941 72.5662 309.629 73.3094ZM305.35 73.538C304.968 74.205 304.777 75.2531 304.777 76.6633C304.777 78.0734 304.968 79.1215 305.35 79.7885C305.732 80.4555 306.248 80.7985 306.916 80.7985C307.585 80.7985 308.101 80.4555 308.483 79.7885C308.865 79.1215 309.056 78.0734 309.056 76.6633C309.056 75.2531 308.865 74.205 308.483 73.538C308.101 72.8711 307.585 72.5281 306.916 72.5281C306.248 72.5281 305.732 72.8711 305.35 73.538Z" fill="black"/>
<path d="M318.951 72.5852C319.238 72.833 319.371 73.1379 319.371 73.4999C319.371 73.7858 319.295 74.0335 319.123 74.2241C318.951 74.4337 318.722 74.529 318.435 74.529C318.187 74.529 317.996 74.4528 317.824 74.3003C317.652 74.1479 317.576 73.9382 317.576 73.6714C317.576 73.3094 317.767 73.0045 318.13 72.7758C318.053 72.6615 317.939 72.6043 317.786 72.6043C317.366 72.6043 316.964 72.7758 316.621 73.0998C316.277 73.4428 315.99 73.843 315.799 74.3194C315.608 74.7958 315.493 75.2531 315.493 75.6914V79.1787C315.493 79.6742 315.646 80.0362 315.933 80.2268C316.219 80.4174 316.659 80.5317 317.251 80.5317V80.8747H316.85C315.723 80.8175 315.016 80.8175 314.71 80.8175C314.424 80.8175 313.774 80.8366 312.762 80.8747V80.5317C313.22 80.5317 313.545 80.4555 313.736 80.284C313.927 80.1125 314.023 79.8076 314.023 79.3502V74.205C314.023 73.7096 313.927 73.3284 313.736 73.0998C313.545 72.8711 313.22 72.7567 312.762 72.7567V72.4137C313.106 72.4518 313.449 72.4709 313.793 72.4709C314.481 72.4709 315.054 72.3947 315.513 72.2422V74.3003C315.704 73.7477 316.028 73.2713 316.468 72.833C316.907 72.4137 317.385 72.1851 317.901 72.1851C318.34 72.1851 318.703 72.3185 318.989 72.5662L318.951 72.5852Z" fill="black"/>
<path d="M328.195 72.8329C328.405 73.0616 328.558 73.3284 328.634 73.6524C328.729 73.9763 328.768 74.4337 328.768 74.9863V79.3692C328.768 79.8266 328.863 80.1315 329.054 80.303C329.245 80.4745 329.57 80.5507 330.029 80.5507V80.8937C329.016 80.8556 328.347 80.8366 328.042 80.8366C327.736 80.8366 327.125 80.8556 326.189 80.8937V80.5507C326.59 80.5507 326.876 80.4745 327.029 80.303C327.182 80.1315 327.259 79.8266 327.259 79.3692V74.6242C327.259 74.0144 327.163 73.538 326.991 73.2141C326.819 72.8901 326.456 72.7376 325.921 72.7376C325.463 72.7376 325.062 72.871 324.718 73.1378C324.374 73.4046 324.087 73.7667 323.896 74.224C323.705 74.6814 323.61 75.1769 323.61 75.7485V79.4073C323.61 79.8647 323.686 80.1696 323.839 80.3411C323.992 80.5126 324.278 80.5888 324.68 80.5888V80.9318C323.763 80.8937 323.151 80.8747 322.827 80.8747C322.502 80.8747 321.852 80.8937 320.84 80.9318V80.5888C321.298 80.5888 321.623 80.5126 321.814 80.3411C322.005 80.1696 322.101 79.8647 322.101 79.4073V74.2622C322.101 73.7667 322.005 73.3856 321.814 73.1569C321.623 72.9282 321.298 72.8139 320.84 72.8139V72.4709C321.184 72.509 321.528 72.528 321.871 72.528C322.559 72.528 323.132 72.4518 323.591 72.2994V74.2431C323.858 73.538 324.24 73.0426 324.737 72.7186C325.234 72.4137 325.768 72.2422 326.399 72.2422C327.163 72.2422 327.755 72.4518 328.156 72.871L328.195 72.8329Z" fill="black"/>
<path d="M338.721 78.931C338.53 79.5408 338.148 80.0553 337.613 80.4936C337.059 80.9319 336.409 81.1415 335.645 81.1415C334.881 81.1415 334.193 80.97 333.62 80.6079C333.047 80.2458 332.608 79.7504 332.302 79.1025C331.997 78.4546 331.844 77.7114 331.844 76.8729C331.844 75.9201 331.997 75.0816 332.302 74.3956C332.608 73.7095 333.047 73.1569 333.601 72.7758C334.155 72.3947 334.824 72.2041 335.569 72.2041C336.562 72.2041 337.326 72.509 337.842 73.0997C338.377 73.6905 338.645 74.6052 338.645 75.8248H333.487C333.448 76.1297 333.429 76.4918 333.429 76.8729C333.429 77.597 333.544 78.2259 333.792 78.7595C334.022 79.293 334.346 79.7123 334.728 79.9981C335.11 80.284 335.531 80.4364 335.951 80.4364C336.486 80.4364 336.944 80.303 337.345 80.0553C337.747 79.8075 338.091 79.3883 338.377 78.7976L338.702 78.931H338.721ZM334.174 73.2713C333.792 73.7858 333.563 74.529 333.487 75.5008H337.078C337.097 74.6433 336.983 73.9382 336.715 73.3665C336.448 72.7948 336.046 72.509 335.512 72.509C334.977 72.509 334.556 72.7567 334.174 73.2713Z" fill="black"/>
<path d="M348.235 72.4326V72.7566C348.006 72.7756 347.815 72.8709 347.643 73.0615C347.471 73.233 347.318 73.5188 347.165 73.919L344.452 80.9889L343.898 82.4181C343.688 82.9517 343.459 83.3328 343.192 83.5615C343.02 83.7139 342.829 83.8283 342.599 83.8854C342.37 83.9426 342.141 83.9807 341.912 83.9807C341.587 83.9807 341.319 83.8854 341.109 83.7139C340.899 83.5424 340.804 83.2947 340.804 82.9898C340.804 82.723 340.88 82.5134 341.033 82.3609C341.186 82.2085 341.396 82.1323 341.682 82.1323C341.931 82.1323 342.122 82.2085 342.294 82.3419C342.446 82.4753 342.523 82.6658 342.523 82.9136C342.523 83.2375 342.37 83.4853 342.084 83.6568C342.103 83.6568 342.141 83.6568 342.179 83.6568C342.79 83.6568 343.249 83.2375 343.574 82.38L344.147 80.8746L341.167 73.6903C340.976 73.3092 340.785 73.0615 340.613 72.9471C340.422 72.8328 340.231 72.7566 340.059 72.7566V72.4136C340.536 72.4707 341.071 72.5089 341.682 72.5089C342.236 72.5089 342.943 72.4707 343.822 72.4136V72.7566C343.421 72.7566 343.134 72.7947 342.962 72.8519C342.771 72.909 342.695 73.0805 342.695 73.3283C342.695 73.5569 342.752 73.8237 342.886 74.1286L344.873 79.0261L346.707 74.2811C346.821 73.9571 346.878 73.7094 346.878 73.5188C346.878 73.2711 346.783 73.0805 346.573 72.9662C346.382 72.8519 346.057 72.7756 345.637 72.7375V72.4136C346.229 72.4517 346.687 72.4707 347.031 72.4707C347.509 72.4707 347.929 72.4707 348.292 72.4136L348.235 72.4326Z" fill="black"/>
<path d="M353.584 72.3756C353.89 72.4899 354.138 72.6424 354.329 72.7948C354.444 72.8901 354.558 72.9282 354.635 72.9282C354.826 72.9282 354.959 72.6805 354.998 72.2041H355.38C355.342 72.7377 355.322 73.6714 355.322 75.0054H354.94C354.826 74.2812 354.577 73.6905 354.234 73.2141C353.89 72.7377 353.374 72.509 352.686 72.509C352.285 72.509 351.96 72.6233 351.712 72.852C351.464 73.0807 351.33 73.3856 351.33 73.7858C351.33 74.186 351.464 74.4909 351.731 74.7386C351.998 75.0054 352.419 75.3103 352.992 75.6723C353.087 75.7295 353.24 75.8248 353.431 75.9582C353.928 76.2821 354.348 76.587 354.654 76.8348C354.959 77.0825 355.208 77.3683 355.399 77.7114C355.59 78.0353 355.685 78.4164 355.685 78.8547C355.685 79.5789 355.418 80.1506 354.864 80.5507C354.329 80.9509 353.66 81.1605 352.858 81.1605C352.361 81.1605 351.922 81.0843 351.559 80.9319C351.311 80.8175 351.081 80.6651 350.89 80.4936C350.852 80.4555 350.795 80.4364 350.738 80.4364C350.661 80.4364 350.585 80.4936 350.528 80.6079C350.47 80.7222 350.413 80.8747 350.394 81.0653H350.012C350.05 80.4364 350.069 79.3502 350.069 77.7685H350.451C350.566 78.7976 350.795 79.5598 351.12 80.0743C351.444 80.5889 351.979 80.8366 352.743 80.8366C353.126 80.8366 353.469 80.7032 353.775 80.4555C354.081 80.2077 354.214 79.8075 354.214 79.274C354.214 78.8547 354.062 78.4927 353.775 78.1878C353.489 77.8829 353.011 77.5399 352.342 77.1206C351.807 76.7776 351.387 76.4918 351.101 76.2821C350.814 76.0725 350.566 75.7867 350.375 75.4818C350.184 75.1578 350.069 74.7958 350.069 74.3575C350.069 73.6714 350.298 73.1379 350.757 72.7758C351.215 72.4137 351.807 72.2422 352.514 72.2422C352.915 72.2422 353.259 72.2994 353.565 72.4137L353.584 72.3756Z" fill="black"/>
</g>
<defs>
<clipPath id="clip0_452_1827">
<rect width="461" height="84" fill="white"/>
</clipPath>
</defs>
</svg>