<svg xmlns="http://www.w3.org/2000/svg" fill="none" viewBox="0 0 400 73">
<g clip-path="url(#clip0_258_1348)">
<path d="M24.0511 0.165527C34.5599 0.165527 42.3836 2.79869 47.4888 8.04847C52.5941 13.2982 55.1633 20.8334 55.1633 30.6374C55.1633 37.0299 53.9201 42.6274 51.4172 47.4135C48.9143 52.1996 45.3008 55.9092 40.5271 58.5423C35.7699 61.1921 30.0182 62.5004 23.2554 62.5004C21.9625 62.5004 20.0564 62.4507 17.5369 62.3679C15.0008 62.2685 12.8129 62.2354 10.9233 62.2354C8.86789 62.2354 6.84568 62.2354 4.84005 62.2851C2.85099 62.3182 1.22659 62.3845 0 62.5004V60.7449C1.98906 60.629 3.51401 60.3972 4.54169 60.0494C5.56937 59.7016 6.26554 58.9895 6.61363 57.9296C6.96171 56.8697 7.14404 55.2799 7.14404 53.1766V9.50582C7.14404 7.33635 6.96171 5.72996 6.61363 4.70319C6.26554 3.67642 5.56937 2.9643 4.54169 2.5834C3.51401 2.20251 2.00564 1.98722 0 1.92097V0.165527C1.22659 0.21521 2.85099 0.298014 4.84005 0.380818C6.82911 0.463622 8.80159 0.480183 10.7409 0.4305C12.7963 0.380818 15.1169 0.314575 17.7026 0.248331C20.2884 0.198649 22.4101 0.165527 24.0511 0.165527ZM21.8631 1.75536C19.1613 1.75536 17.4043 2.25219 16.5755 3.24584C15.7467 4.25604 15.3489 6.27646 15.3489 9.32365V53.3423C15.3489 56.3894 15.7799 58.4264 16.6252 59.4201C17.4706 60.4137 19.2607 60.9105 21.9625 60.9105C28.3607 60.9105 33.3333 59.7513 36.8473 57.4328C40.3779 55.1143 42.8311 51.7359 44.2566 47.2644C45.6655 42.8096 46.3783 37.3776 46.3783 30.9852C46.3783 21.1315 44.5715 13.7951 40.9581 8.97587C37.3446 4.15668 30.9796 1.75536 21.8797 1.75536H21.8631Z" fill="black"/>
<path d="M75.5007 6.65747L88.9931 41.3855C89.5401 42.7766 90.17 43.7205 90.8662 44.1677C91.5623 44.6314 92.2088 44.8798 92.8055 44.9129V46.0225C92.0596 45.9562 91.1645 45.9066 90.1037 45.89C89.0429 45.8734 87.9655 45.8569 86.9046 45.8569C85.4626 45.8569 84.1199 45.8569 82.8768 45.89C81.617 45.9066 80.6059 45.9562 79.8435 46.0225V44.9129C81.7165 44.8467 82.9265 44.5155 83.4403 43.9524C83.9542 43.3893 83.8547 42.1638 83.1088 40.2759L72.832 12.8346L73.7105 12.1225L64.0967 37.0797C63.3177 39.067 62.953 40.6237 62.9862 41.7498C63.0193 42.8759 63.4503 43.6709 64.2625 44.1511C65.0747 44.6314 66.2516 44.8964 67.7931 44.9295V46.039C66.7654 45.9728 65.688 45.9231 64.5609 45.9066C63.4337 45.89 62.3895 45.8734 61.4447 45.8734C60.4999 45.8734 59.7374 45.8734 59.0909 45.9066C58.4445 45.9231 57.8478 45.9728 57.3008 46.039V44.9295C58.0467 44.7473 58.7926 44.3167 59.5716 43.6377C60.3507 42.9587 61.0468 41.7829 61.6767 40.1268L74.6719 6.65747H75.5504H75.5007ZM82.2469 30.1241V31.2337H65.7709L66.3179 30.1241H82.2303H82.2469Z" fill="black"/>
<path d="M112.713 6.144C115.1 6.144 117.039 6.50834 118.515 7.22045C119.99 7.93257 121.366 8.77717 122.659 9.7377C123.139 10.102 123.504 10.2842 123.769 10.2842C124.465 10.2842 124.929 9.15807 125.145 6.9058H126.421C126.355 8.26378 126.289 9.91986 126.255 11.874C126.222 13.8282 126.206 16.4117 126.206 19.6079H124.929C124.664 18.0678 124.366 16.5773 123.985 15.1365C123.603 13.6957 123.007 12.4702 122.161 11.4435C121.1 10.0855 119.692 9.02558 117.968 8.26378C116.244 7.50199 114.454 7.13765 112.614 7.13765C110.774 7.13765 109.1 7.58479 107.608 8.49564C106.116 9.40648 104.84 10.6982 103.762 12.3874C102.685 14.0766 101.873 16.1136 101.309 18.4818C100.729 20.8666 100.447 23.5328 100.447 26.5138C100.447 33.1381 101.508 37.9904 103.646 41.0707C105.785 44.151 109.1 45.6746 113.592 45.6746C114.918 45.6746 116.061 45.4759 117.039 45.095C118.017 44.7141 118.78 44.3332 119.327 43.9689C120.023 43.4886 120.471 43.0415 120.653 42.6109C120.835 42.1803 120.935 41.6338 120.935 40.9382V35.6388C120.935 34.1318 120.786 33.0056 120.487 32.2604C120.189 31.5317 119.642 31.0349 118.863 30.7699C118.067 30.5049 116.907 30.3559 115.349 30.3228V29.2132C116.012 29.2463 116.791 29.2794 117.669 29.296C118.548 29.3126 119.493 29.3291 120.471 29.3457C121.449 29.3622 122.344 29.3788 123.156 29.3788C124.366 29.3788 125.46 29.3622 126.454 29.3291C127.432 29.296 128.244 29.2629 128.908 29.2132V30.3228C127.697 30.4056 126.918 30.6871 126.587 31.2005C126.255 31.7139 126.09 33.0056 126.09 35.0592V45.9893H124.979C124.946 45.36 124.797 44.681 124.565 43.9523C124.316 43.2236 123.968 42.8593 123.487 42.8593C123.272 42.8593 123.04 42.909 122.824 43.0249C122.609 43.1408 122.211 43.3892 121.664 43.8033C120.454 44.7307 119.161 45.4593 117.802 45.9893C116.443 46.5192 114.851 46.7842 113.045 46.7842C107.326 46.7842 102.884 45.0453 99.7015 41.5675C96.519 38.0898 94.9277 33.2706 94.9277 27.1265C94.9277 22.8207 95.7068 19.0945 97.2483 15.9646C98.7898 12.8346 100.911 10.4167 103.58 8.69437C106.249 6.9886 109.299 6.12744 112.73 6.12744L112.713 6.144Z" fill="black"/>
<path d="M148.633 6.65747L162.126 41.3855C162.673 42.7766 163.303 43.7205 163.999 44.1677C164.695 44.6314 165.342 44.8798 165.938 44.9129V46.0225C165.192 45.9562 164.297 45.9066 163.237 45.89C162.176 45.8734 161.098 45.8569 160.037 45.8569C158.595 45.8569 157.253 45.8569 156.01 45.89C154.75 45.9066 153.739 45.9562 152.976 46.0225V44.9129C154.849 44.8467 156.059 44.5155 156.573 43.9524C157.087 43.3893 156.988 42.1638 156.242 40.2759L145.965 12.8346L146.843 12.1225L137.23 37.0797C136.45 39.067 136.086 40.6237 136.119 41.7498C136.152 42.8759 136.583 43.6709 137.395 44.1511C138.207 44.6314 139.384 44.8964 140.926 44.9295V46.039C139.898 45.9728 138.821 45.9231 137.694 45.9066C136.567 45.89 135.522 45.8734 134.577 45.8734C133.633 45.8734 132.87 45.8734 132.224 45.9066C131.577 45.9231 130.981 45.9728 130.434 46.039V44.9295C131.179 44.7473 131.925 44.3167 132.704 43.6377C133.483 42.9587 134.18 41.7829 134.81 40.1268L147.805 6.65747H148.683H148.633ZM155.38 30.1241V31.2337H138.904L139.451 30.1241H155.363H155.38Z" fill="black"/>
<path d="M255.544 5.53125C262.141 5.53125 267.047 7.18733 270.246 10.4829C273.445 13.7785 275.053 18.4984 275.053 24.6424C275.053 28.6501 274.274 32.161 272.699 35.1585C271.141 38.156 268.854 40.4911 265.87 42.1472C262.887 43.8033 259.273 44.6313 255.03 44.6313C254.218 44.6313 253.024 44.5982 251.433 44.5485C249.842 44.4822 248.466 44.4657 247.289 44.4657C245.996 44.4657 244.72 44.4657 243.477 44.4988C242.217 44.5154 241.206 44.5651 240.443 44.6313V43.5217C241.703 43.4555 242.648 43.3064 243.294 43.0746C243.941 42.8593 244.372 42.4121 244.587 41.7497C244.803 41.0873 244.919 40.0936 244.919 38.7688V11.3938C244.919 10.0358 244.803 9.02558 244.587 8.37971C244.372 7.73384 243.941 7.2867 243.294 7.05484C242.648 6.82299 241.703 6.67395 240.443 6.64082V5.53125C241.222 5.56437 242.234 5.61405 243.477 5.66374C244.72 5.71342 245.963 5.72998 247.173 5.69686C248.466 5.66374 249.925 5.63061 251.549 5.58093C253.173 5.54781 254.499 5.53125 255.527 5.53125H255.544ZM254.151 6.5249C252.461 6.5249 251.35 6.83955 250.836 7.46886C250.322 8.09817 250.057 9.37336 250.057 11.2778V38.8847C250.057 40.8057 250.322 42.0644 250.853 42.6937C251.383 43.323 252.494 43.6376 254.201 43.6376C258.212 43.6376 261.328 42.909 263.55 41.4516C265.754 39.9943 267.312 37.8745 268.191 35.0757C269.069 32.2769 269.517 28.882 269.517 24.8577C269.517 18.6805 268.39 14.0766 266.119 11.046C263.848 8.03193 259.87 6.50834 254.151 6.50834V6.5249Z" fill="black"/>
<path d="M294.778 5.26636L308.27 39.9944C308.817 41.3855 309.447 42.3294 310.144 42.7766C310.84 43.2403 311.486 43.4887 312.083 43.5218V44.6314C311.337 44.5651 310.442 44.5155 309.381 44.4989C308.32 44.4823 307.243 44.4658 306.182 44.4658C304.74 44.4658 303.397 44.4658 302.154 44.4989C300.894 44.5155 299.883 44.5651 299.121 44.6314V43.5218C300.994 43.4556 302.204 43.1243 302.718 42.5613C303.232 41.9982 303.132 40.7727 302.386 38.8848L292.109 11.4435L292.988 10.7314L283.374 35.6885C282.595 37.6758 282.23 39.2326 282.264 40.3587C282.297 41.4848 282.728 42.2797 283.54 42.76C284.352 43.2403 285.529 43.5052 287.07 43.5384V44.6479C286.043 44.5817 284.965 44.532 283.838 44.5154C282.711 44.4989 281.667 44.4823 280.722 44.4823C279.777 44.4823 279.015 44.4823 278.368 44.5154C277.722 44.532 277.125 44.5817 276.578 44.6479V43.5384C277.324 43.3562 278.07 42.9256 278.849 42.2466C279.628 41.5676 280.324 40.3918 280.954 38.7357L293.949 5.26636H294.828H294.778ZM301.524 28.733V29.8426H285.048L285.595 28.733H301.508H301.524Z" fill="black"/>
<path d="M331.991 4.76949C334.377 4.76949 336.317 5.13383 337.792 5.84594C339.267 6.55806 340.643 7.40266 341.936 8.36318C342.417 8.72752 342.781 8.90969 343.046 8.90969C343.743 8.90969 344.207 7.78356 344.422 5.53129H345.699C345.632 6.88927 345.566 8.54535 345.533 10.4995C345.5 12.4537 345.483 15.0372 345.483 18.2334H344.207C343.942 16.6933 343.643 15.2028 343.262 13.762C342.881 12.3212 342.284 11.0957 341.439 10.0689C340.378 8.71096 338.969 7.65107 337.245 6.88927C335.521 6.12748 333.731 5.76314 331.891 5.76314C330.051 5.76314 328.377 6.21028 326.885 7.12112C325.394 8.03197 324.117 9.32371 323.04 11.0129C321.962 12.7021 321.15 14.7391 320.587 17.1073C320.007 19.492 319.725 22.1583 319.725 25.1393C319.725 31.7636 320.786 36.6159 322.924 39.6962C325.062 42.7765 328.377 44.3001 332.869 44.3001C334.195 44.3001 335.339 44.1014 336.317 43.7205C337.295 43.3396 338.057 42.9587 338.604 42.5943C339.3 42.1141 339.748 41.6669 339.93 41.2364C340.113 40.8058 340.212 40.2593 340.212 39.5637V34.2643C340.212 32.7572 340.063 31.6311 339.764 30.8859C339.466 30.1572 338.919 29.6604 338.14 29.3954C337.344 29.1304 336.184 28.9814 334.626 28.9483V27.8387C335.289 27.8718 336.068 27.9049 336.947 27.9215C337.825 27.938 338.77 27.9546 339.748 27.9712C340.726 27.9877 341.621 28.0043 342.433 28.0043C343.643 28.0043 344.737 27.9877 345.732 27.9546C346.71 27.9215 347.522 27.8884 348.185 27.8387V28.9483C346.975 29.0311 346.196 29.3126 345.864 29.826C345.533 30.3394 345.367 31.6311 345.367 33.6846V44.6148H344.256C344.223 43.9855 344.074 43.3065 343.842 42.5778C343.593 41.8491 343.245 41.4848 342.765 41.4848C342.549 41.4848 342.317 41.5345 342.102 41.6504C341.886 41.7663 341.488 42.0147 340.941 42.4287C339.731 43.3561 338.438 44.0848 337.079 44.6148C335.72 45.1447 334.129 45.4097 332.322 45.4097C326.604 45.4097 322.161 43.6708 318.979 40.193C315.796 36.7153 314.205 31.8961 314.205 25.752C314.205 21.4462 314.984 17.72 316.526 14.59C318.067 11.4601 320.189 9.04218 322.857 7.31985C325.526 5.61409 328.576 4.75293 332.007 4.75293L331.991 4.76949Z" fill="black"/>
<path d="M372.469 0L393.934 55.2799C394.813 57.4991 395.807 58.9896 396.918 59.7182C398.028 60.4469 399.056 60.8444 400.001 60.9106V62.6661C398.824 62.5501 397.399 62.4839 395.691 62.4508C393.984 62.4176 392.293 62.4011 390.586 62.4011C388.299 62.4011 386.16 62.4011 384.171 62.4508C382.166 62.4839 380.558 62.5501 379.331 62.6661V60.9106C382.331 60.7947 384.221 60.2813 385.05 59.3705C385.879 58.4596 385.696 56.522 384.519 53.5245L368.159 9.83711L369.568 8.69442L354.269 48.4238C353.043 51.5869 352.446 54.071 352.512 55.8596C352.578 57.6481 353.241 58.9233 354.534 59.6851C355.827 60.4469 357.7 60.8609 360.153 60.9106V62.6661C358.512 62.5501 356.789 62.4839 355.015 62.4508C353.225 62.4176 351.567 62.4011 350.042 62.4011C348.517 62.4011 347.324 62.4011 346.313 62.4508C345.285 62.4839 344.34 62.5501 343.445 62.6661V60.9106C344.622 60.6125 345.816 59.9335 347.059 58.8405C348.285 57.7641 349.396 55.8927 350.39 53.2595L371.06 0H372.469ZM383.193 37.3446V39.1H356.987L357.866 37.3446H383.21H383.193Z" fill="black"/>
<path d="M222.626 5.77978C224.151 7.1212 224.913 8.94289 224.913 11.2117C224.913 12.9837 224.432 14.5239 223.471 15.8156C222.51 17.1239 221.233 18.1673 219.659 18.9291C218.25 19.5915 215.531 20.552 211.47 21.7941C213.542 22.6718 215.051 23.947 216.029 25.5699C217.007 27.2094 217.487 29.0808 217.487 31.1675C217.487 33.4529 216.808 35.6058 215.449 37.6262C214.089 39.6466 212.133 41.2861 209.581 42.5116C207.028 43.7371 204.061 44.3664 200.63 44.3664C197.431 44.3664 194.447 43.8034 191.712 42.6772C188.961 41.5511 186.79 39.9447 185.165 37.8746C183.541 35.7879 182.729 33.3701 182.729 30.6044C182.729 28.17 183.325 26.1164 184.519 24.4438C185.712 22.7712 187.088 21.496 188.629 20.6348C190.171 19.7737 191.613 19.1775 192.939 18.8462C191.132 18.0679 189.757 17.0411 188.795 15.7494C187.834 14.4576 187.353 13.1162 187.353 11.7251C187.353 10.5162 187.718 9.37347 188.43 8.33014C189.143 7.28681 190.221 6.44221 191.63 5.79634C193.055 5.15047 194.729 4.83581 196.685 4.83581C199.155 4.83581 201.078 5.38232 202.437 6.49189C203.1 7.0384 203.614 7.66771 203.962 8.3467C204.31 9.02569 204.492 9.68812 204.492 10.3009C204.492 11.1786 204.177 11.8907 203.547 12.4207C202.917 12.9506 202.205 13.2156 201.393 13.2156C200.58 13.2156 199.95 12.9672 199.37 12.4703C198.807 11.9735 198.508 11.2945 198.508 10.4499C198.508 9.60532 198.79 8.94289 199.337 8.37982C199.884 7.81675 200.597 7.48554 201.442 7.4193C201.26 6.93903 200.779 6.52501 200.033 6.17724C199.271 5.82946 198.343 5.64729 197.249 5.64729C195.326 5.64729 193.784 6.22692 192.608 7.38617C191.431 8.54543 190.834 10.1518 190.834 12.2219C190.834 14.6895 191.779 16.7927 193.652 18.515C194.945 18.2997 196.088 18.1838 197.083 18.1838C197.746 18.1838 198.276 18.2997 198.691 18.515C199.089 18.7303 199.304 19.045 199.304 19.459C199.304 19.7902 199.171 20.0552 198.89 20.2374C198.608 20.4195 198.227 20.5189 197.762 20.5189C197.166 20.5189 196.569 20.403 195.939 20.1877C195.309 19.9724 194.58 19.6743 193.735 19.3099C188.944 20.7507 186.557 23.7648 186.557 28.3687C186.557 30.8363 187.204 32.9726 188.497 34.7777C189.79 36.5829 191.563 37.9574 193.801 38.8848C196.039 39.8288 198.575 40.2925 201.376 40.2925C203.995 40.2925 206.415 39.8785 208.653 39.0504C210.874 38.2224 212.647 37.0466 213.957 35.523C215.266 33.9994 215.913 32.2108 215.913 30.1904C215.913 28.7165 215.531 27.226 214.752 25.719C213.973 24.2119 212.498 23.0361 210.327 22.1915C207.459 23.0692 205.337 23.7814 203.978 24.2947C202.437 24.8909 201.227 25.5534 200.381 26.3152C199.536 27.077 199.105 28.0044 199.105 29.0974C199.105 30.4222 199.652 31.4987 200.73 32.2936C201.823 33.1051 202.967 33.5026 204.177 33.5026C204.807 33.5026 205.487 33.3866 206.216 33.1713C206.945 32.956 207.376 32.6579 207.492 32.2936C206.796 32.1446 206.183 31.8465 205.669 31.4159C205.155 30.9688 204.89 30.3229 204.89 29.4783C204.89 28.6337 205.172 27.8884 205.752 27.3751C206.315 26.8617 207.045 26.5967 207.94 26.5967C208.835 26.5967 209.531 26.8782 210.062 27.4247C210.592 27.9712 210.857 28.6999 210.857 29.5776C210.857 31.0516 210.178 32.2108 208.818 33.0554C207.459 33.9 205.951 34.3306 204.293 34.3306C202.487 34.3306 200.895 33.7841 199.52 32.7076C198.144 31.6146 197.448 30.0082 197.448 27.8719C197.448 26.0005 198.077 24.3941 199.354 23.1024C200.63 21.7941 202.536 20.7011 205.072 19.8233L209.001 18.6641C211.205 18.0348 213.045 17.4883 214.52 17.008C215.996 16.5277 217.338 16.0143 218.548 15.4678C220.322 14.6564 221.548 13.8283 222.245 12.9837C222.941 12.1391 223.289 11.1952 223.289 10.1684C223.289 8.62823 222.659 7.30337 221.383 6.22692C220.106 5.13391 218.614 4.60396 216.874 4.60396C215.946 4.60396 215.399 4.76957 215.216 5.10078C215.697 5.31607 216.078 5.68041 216.344 6.17724C216.625 6.67406 216.758 7.15432 216.758 7.63459C216.758 8.41294 216.46 9.05881 215.846 9.5722C215.233 10.0856 214.504 10.3506 213.658 10.3506C212.879 10.3506 212.2 10.1187 211.62 9.63844C211.023 9.15818 210.741 8.47919 210.741 7.60146C210.741 6.2766 211.354 5.31607 212.598 4.70332C213.841 4.09057 215.233 3.79248 216.824 3.79248C219.145 3.79248 221.068 4.47147 222.609 5.8129L222.626 5.77978Z" fill="#6C0716"/>
<path d="M94.9454 60.48C94.5973 60.4966 94.3487 60.5297 94.1995 60.5959C94.0504 60.6456 93.9343 60.7616 93.8846 60.9272C93.8349 61.0928 93.8017 61.3577 93.8017 61.7221V68.8101C93.8017 69.1744 93.8349 69.4394 93.8846 69.5885C93.9343 69.7541 94.0504 69.8534 94.1995 69.9197C94.3653 69.9694 94.6139 70.019 94.9454 70.0356V70.3171C94.5145 70.284 93.9012 70.2675 93.1221 70.2675C92.3099 70.2675 91.6966 70.2675 91.2988 70.3171V70.0356C91.6469 70.019 91.8955 69.9859 92.0447 69.9197C92.2105 69.87 92.3099 69.7541 92.3597 69.5885C92.4094 69.4229 92.4425 69.1579 92.4425 68.8101V61.7221C92.4425 61.3577 92.4094 61.0928 92.3597 60.9272C92.3099 60.7616 92.1939 60.6622 92.0447 60.5959C91.8955 60.5463 91.6303 60.4966 91.2988 60.48V60.1985C91.6966 60.2316 92.3099 60.2482 93.1221 60.2482C93.8846 60.2482 94.4979 60.2482 94.9454 60.1985V60.48Z" fill="black"/>
<path d="M103.002 63.2954C103.184 63.4941 103.317 63.726 103.383 64.0075C103.466 64.289 103.499 64.6865 103.499 65.1667V68.9757C103.499 69.3732 103.582 69.6382 103.748 69.7872C103.913 69.9362 104.195 70.0025 104.593 70.0025V70.3006C103.714 70.2675 103.151 70.2509 102.869 70.2509C102.587 70.2509 102.073 70.2675 101.261 70.3006V70.0025C101.609 70.0025 101.858 69.9362 101.991 69.7872C102.123 69.6382 102.19 69.3732 102.19 68.9757V64.8521C102.19 64.3221 102.107 63.9081 101.957 63.6266C101.808 63.345 101.493 63.2126 101.029 63.2126C100.631 63.2126 100.283 63.3285 99.985 63.5603C99.6866 63.7922 99.438 64.1068 99.2722 64.5043C99.1065 64.9018 99.0236 65.3323 99.0236 65.8292V69.0088C99.0236 69.4063 99.0899 69.6713 99.2391 69.8203C99.3717 69.9694 99.6203 70.0356 99.9684 70.0356V70.3337C99.1728 70.3006 98.6258 70.284 98.3606 70.284C98.0954 70.284 97.5152 70.3006 96.6367 70.3337V70.0356C97.0345 70.0356 97.3163 69.9694 97.4821 69.8203C97.6478 69.6713 97.7307 69.4063 97.7307 69.0088V64.5374C97.7307 64.1068 97.6478 63.7756 97.4821 63.5769C97.3163 63.3782 97.0345 63.2788 96.6367 63.2788V62.9807C96.9351 63.0138 97.2334 63.0304 97.5152 63.0304C98.1119 63.0304 98.6092 62.9641 99.007 62.8317V64.5209C99.2391 63.9081 99.5706 63.4775 100.002 63.196C100.433 62.931 100.897 62.782 101.444 62.782C102.107 62.782 102.62 62.9642 102.952 63.3285L103.002 63.2954Z" fill="black"/>
<path d="M108.238 62.964H110.36V63.2455H108.238V68.7769C108.238 69.2074 108.321 69.5221 108.47 69.7043C108.619 69.903 108.851 69.9858 109.15 69.9858C109.448 69.9858 109.697 69.8699 109.912 69.6215C110.128 69.3896 110.293 68.9922 110.443 68.4456L110.724 68.5119C110.492 69.8202 109.862 70.4826 108.868 70.4826C108.536 70.4826 108.271 70.4495 108.072 70.3667C107.873 70.2839 107.674 70.168 107.509 70.0024C107.293 69.7871 107.161 69.5387 107.078 69.224C106.995 68.9259 106.962 68.5119 106.962 67.9985V63.2124H105.586V62.9309H106.962V60.7449C107.492 60.7283 107.923 60.6621 108.255 60.5461V62.9309L108.238 62.964Z" fill="black"/>
<path d="M117.918 68.5947C117.753 69.1247 117.421 69.5718 116.957 69.9527C116.493 70.3336 115.913 70.5158 115.25 70.5158C114.587 70.5158 113.99 70.3667 113.493 70.0521C112.995 69.7374 112.614 69.3069 112.349 68.7438C112.084 68.1807 111.951 67.5349 111.951 66.8062C111.951 65.9781 112.084 65.2495 112.349 64.6533C112.614 64.0571 112.995 63.5768 113.476 63.2456C113.957 62.9144 114.537 62.7488 115.183 62.7488C116.045 62.7488 116.708 63.0138 117.172 63.5271C117.637 64.0405 117.869 64.8354 117.869 65.8953H113.393C113.36 66.1603 113.344 66.475 113.344 66.8062C113.344 67.4355 113.443 67.982 113.658 68.4457C113.857 68.9094 114.139 69.2737 114.471 69.5221C114.802 69.7706 115.167 69.903 115.531 69.903C115.996 69.903 116.393 69.7871 116.741 69.5718C117.09 69.3565 117.388 68.9922 117.62 68.4788L117.902 68.5947H117.918ZM113.973 63.6762C113.642 64.1233 113.443 64.7692 113.377 65.6138H116.493C116.509 64.8686 116.41 64.2558 116.178 63.759C115.946 63.2622 115.598 63.0138 115.134 63.0138C114.67 63.0138 114.305 63.229 113.973 63.6762Z" fill="black"/>
<path d="M121.947 68.9757C121.947 69.3732 122.03 69.6381 122.196 69.7872C122.362 69.9362 122.644 70.0025 123.041 70.0025V70.3006C122.163 70.2675 121.583 70.2509 121.318 70.2509C121.052 70.2509 120.472 70.2675 119.594 70.3006V70.0025C119.992 70.0025 120.273 69.9362 120.439 69.7872C120.605 69.6381 120.688 69.3732 120.688 68.9757V60.8112C120.688 60.3807 120.605 60.0494 120.439 59.8507C120.273 59.652 119.992 59.5526 119.594 59.5526V59.2545C119.892 59.2876 120.19 59.3042 120.489 59.3042C121.086 59.3042 121.583 59.238 121.981 59.1055V68.9757H121.947Z" fill="black"/>
<path d="M126.754 68.9757C126.754 69.3732 126.837 69.6381 127.003 69.7872C127.168 69.9362 127.45 70.0025 127.848 70.0025V70.3006C126.97 70.2675 126.389 70.2509 126.124 70.2509C125.859 70.2509 125.279 70.2675 124.4 70.3006V70.0025C124.798 70.0025 125.08 69.9362 125.246 69.7872C125.411 69.6381 125.494 69.3732 125.494 68.9757V60.8112C125.494 60.3807 125.411 60.0494 125.246 59.8507C125.08 59.652 124.798 59.5526 124.4 59.5526V59.2545C124.699 59.2876 124.997 59.3042 125.295 59.3042C125.892 59.3042 126.389 59.238 126.787 59.1055V68.9757H126.754Z" fill="black"/>
<path d="M135.34 68.5947C135.174 69.1247 134.843 69.5718 134.379 69.9527C133.915 70.3336 133.335 70.5158 132.672 70.5158C132.009 70.5158 131.412 70.3667 130.915 70.0521C130.417 69.7374 130.036 69.3069 129.771 68.7438C129.506 68.1807 129.373 67.5349 129.373 66.8062C129.373 65.9781 129.506 65.2495 129.771 64.6533C130.036 64.0571 130.417 63.5768 130.898 63.2456C131.379 62.9144 131.959 62.7488 132.605 62.7488C133.467 62.7488 134.13 63.0138 134.594 63.5271C135.058 64.0405 135.291 64.8354 135.291 65.8953H130.815C130.782 66.1603 130.765 66.475 130.765 66.8062C130.765 67.4355 130.865 67.982 131.08 68.4457C131.279 68.9094 131.561 69.2737 131.893 69.5221C132.224 69.7706 132.589 69.903 132.953 69.903C133.417 69.903 133.815 69.7871 134.163 69.5718C134.511 69.3565 134.81 68.9922 135.042 68.4788L135.324 68.5947H135.34ZM131.395 63.6762C131.064 64.1233 130.865 64.7692 130.799 65.6138H133.915C133.931 64.8686 133.832 64.2558 133.6 63.759C133.368 63.2622 133.02 63.0138 132.556 63.0138C132.091 63.0138 131.727 63.229 131.395 63.6762Z" fill="black"/>
<path d="M142.317 63.2124C142.765 63.5105 142.997 63.8749 142.997 64.3055C142.997 64.5539 142.931 64.7526 142.781 64.8851C142.632 65.0341 142.45 65.1004 142.234 65.1004C142.019 65.1004 141.837 65.0341 141.671 64.9016C141.522 64.7692 141.439 64.6035 141.439 64.3883C141.439 64.1895 141.489 64.0239 141.605 63.8749C141.721 63.7258 141.87 63.643 142.036 63.5933C141.936 63.4277 141.77 63.2787 141.522 63.1628C141.273 63.0468 141.024 62.9972 140.743 62.9972C140.395 62.9972 140.063 63.1131 139.748 63.3284C139.433 63.5437 139.185 63.9246 138.986 64.4379C138.787 64.9513 138.687 65.6469 138.687 66.4915C138.687 67.6673 138.886 68.5285 139.267 69.075C139.649 69.6215 140.146 69.8864 140.759 69.8864C141.174 69.8864 141.555 69.7705 141.919 69.5221C142.284 69.2903 142.583 68.9094 142.831 68.4125L143.096 68.5119C142.931 69.0584 142.632 69.5221 142.185 69.9196C141.737 70.317 141.174 70.4992 140.461 70.4992C139.864 70.4992 139.334 70.3501 138.853 70.0355C138.372 69.7374 137.991 69.2903 137.709 68.7106C137.428 68.131 137.295 67.4686 137.295 66.7068C137.295 65.945 137.428 65.2494 137.709 64.6532C137.991 64.057 138.389 63.5768 138.886 63.2456C139.4 62.9143 139.964 62.7322 140.61 62.7322C141.256 62.7322 141.803 62.8812 142.268 63.1959L142.317 63.2124Z" fill="black"/>
<path d="M147.058 62.964H149.18V63.2455H147.058V68.7769C147.058 69.2074 147.141 69.5221 147.29 69.7043C147.44 69.903 147.672 69.9858 147.97 69.9858C148.268 69.9858 148.517 69.8699 148.732 69.6215C148.948 69.3896 149.114 68.9922 149.263 68.4456L149.545 68.5119C149.313 69.8202 148.683 70.4826 147.688 70.4826C147.357 70.4826 147.091 70.4495 146.893 70.3667C146.694 70.2839 146.495 70.168 146.329 70.0024C146.114 69.7871 145.981 69.5387 145.898 69.224C145.815 68.9259 145.782 68.5119 145.782 67.9985V63.2124H144.406V62.9309H145.782V60.7449C146.312 60.7283 146.743 60.6621 147.075 60.5461V62.9309L147.058 62.964Z" fill="black"/>
<path d="M157.02 68.7604C157.02 69.191 157.103 69.5222 157.268 69.7209C157.434 69.9196 157.716 70.019 158.114 70.019V70.3171C157.815 70.284 157.517 70.2674 157.235 70.2674C156.639 70.2674 156.141 70.3337 155.743 70.4661V68.7769C155.511 69.3731 155.196 69.8037 154.766 70.0853C154.351 70.3668 153.887 70.4993 153.39 70.4993C152.743 70.4993 152.246 70.3171 151.898 69.9528C151.732 69.754 151.6 69.5222 151.533 69.2241C151.467 68.926 151.434 68.5451 151.434 68.0814V64.4877C151.434 64.0571 151.351 63.7259 151.185 63.5272C151.019 63.3284 150.738 63.2291 150.34 63.2291V62.931C150.638 62.9641 150.937 62.9807 151.235 62.9807C151.832 62.9807 152.329 62.9144 152.727 62.7819V68.396C152.727 68.7604 152.743 69.0585 152.793 69.2738C152.843 69.5056 152.942 69.6878 153.091 69.8203C153.257 69.9693 153.489 70.0356 153.821 70.0356C154.185 70.0356 154.517 69.9196 154.815 69.6878C155.114 69.4559 155.346 69.1413 155.511 68.7438C155.677 68.3464 155.76 67.9158 155.76 67.4355V64.4711C155.76 64.0406 155.677 63.7093 155.511 63.5106C155.346 63.3119 155.064 63.2125 154.666 63.2125V62.9144C154.964 62.9475 155.263 62.9641 155.545 62.9641C156.141 62.9641 156.639 62.8979 157.036 62.7654V68.7438L157.02 68.7604Z" fill="black"/>
<path d="M160.136 69.9527C159.838 69.6546 159.705 69.2406 159.705 68.7106C159.705 68.28 159.821 67.9323 160.053 67.6507C160.285 67.3692 160.567 67.1539 160.882 66.9883C161.197 66.8227 161.628 66.6571 162.142 66.4749C162.672 66.2927 163.07 66.1271 163.335 65.9781C163.6 65.829 163.716 65.6138 163.716 65.3653V64.4711C163.716 63.9246 163.6 63.5437 163.368 63.3284C163.136 63.1296 162.805 63.0137 162.39 63.0137C161.727 63.0137 161.247 63.1793 160.981 63.5271C161.18 63.5768 161.329 63.6761 161.462 63.8252C161.595 63.9742 161.661 64.173 161.661 64.4048C161.661 64.6367 161.578 64.8354 161.429 64.9679C161.28 65.1004 161.081 65.1666 160.849 65.1666C160.584 65.1666 160.385 65.0838 160.252 64.9182C160.119 64.7526 160.053 64.5539 160.053 64.3055C160.053 64.057 160.103 63.8914 160.219 63.7424C160.335 63.5933 160.501 63.4443 160.716 63.2787C160.948 63.1131 161.23 62.9806 161.595 62.8812C161.943 62.7819 162.341 62.7322 162.755 62.7322C163.501 62.7322 164.064 62.9143 164.446 63.2621C164.678 63.4774 164.843 63.7424 164.926 64.057C165.009 64.3717 165.042 64.7692 165.042 65.2825V69.2571C165.042 69.489 165.076 69.6712 165.142 69.7705C165.208 69.8699 165.324 69.9196 165.49 69.9196C165.606 69.9196 165.705 69.8864 165.805 69.8368C165.904 69.7871 166.004 69.7043 166.12 69.6215L166.286 69.8699C166.037 70.0686 165.821 70.2011 165.656 70.2839C165.473 70.3667 165.258 70.3998 164.993 70.3998C164.529 70.3998 164.214 70.2839 164.031 70.052C163.849 69.8202 163.766 69.5055 163.766 69.1246C163.484 69.6049 163.153 69.9361 162.772 70.1183C162.407 70.3005 161.976 70.3998 161.512 70.3998C160.915 70.3998 160.468 70.2508 160.169 69.9527H160.136ZM163.716 68.7437V65.945C163.633 66.0775 163.517 66.1934 163.352 66.2762C163.203 66.359 162.97 66.4749 162.656 66.624C162.291 66.773 161.992 66.9221 161.777 67.0545C161.545 67.187 161.363 67.3858 161.197 67.6176C161.031 67.8495 160.948 68.1641 160.948 68.5285C160.948 68.959 161.048 69.2737 161.263 69.5055C161.479 69.7374 161.744 69.8368 162.092 69.8368C162.722 69.8368 163.269 69.4724 163.716 68.7437Z" fill="black"/>
<path d="M169.668 68.9757C169.668 69.3732 169.751 69.6381 169.917 69.7872C170.083 69.9362 170.364 70.0025 170.762 70.0025V70.3006C169.884 70.2675 169.304 70.2509 169.038 70.2509C168.773 70.2509 168.193 70.2675 167.314 70.3006V70.0025C167.712 70.0025 167.994 69.9362 168.16 69.7872C168.326 69.6381 168.408 69.3732 168.408 68.9757V60.8112C168.408 60.3807 168.326 60.0494 168.16 59.8507C167.994 59.652 167.712 59.5526 167.314 59.5526V59.2545C167.613 59.2876 167.911 59.3042 168.21 59.3042C168.806 59.3042 169.304 59.238 169.701 59.1055V68.9757H169.668Z" fill="black"/>
<path d="M179.148 66.2266V68.7935C179.148 69.1578 179.182 69.4228 179.264 69.5719C179.347 69.7375 179.48 69.8368 179.662 69.9031C179.845 69.9528 180.16 70.0024 180.59 70.019V70.3005C180.093 70.2674 179.397 70.2508 178.485 70.2508C177.673 70.2508 177.06 70.2509 176.662 70.3005V70.019C177.01 70.0024 177.259 69.9693 177.408 69.9031C177.574 69.8534 177.673 69.7375 177.723 69.5719C177.773 69.4062 177.806 69.1413 177.806 68.7935V61.7055C177.806 61.3411 177.773 61.0762 177.723 60.9106C177.673 60.7449 177.557 60.6456 177.408 60.5793C177.259 60.5297 176.994 60.48 176.662 60.4634V60.1819C177.06 60.215 177.64 60.2316 178.403 60.2316H179.944C180.126 60.215 180.325 60.1984 180.557 60.1984C181.668 60.1984 182.53 60.4469 183.11 60.9602C183.707 61.4736 183.988 62.1526 183.988 63.0138C183.988 63.5437 183.872 64.0405 183.64 64.5208C183.408 65.0011 183.011 65.3985 182.447 65.7297C181.883 66.061 181.154 66.21 180.226 66.21H179.132L179.148 66.2266ZM179.546 60.5793C179.397 60.6456 179.298 60.7615 179.231 60.9437C179.182 61.1093 179.148 61.3743 179.148 61.722V65.945H180.11C181.038 65.945 181.684 65.6966 182.049 65.1998C182.414 64.703 182.58 64.024 182.58 63.1959C182.58 62.2685 182.397 61.5896 182.033 61.159C181.668 60.7284 181.055 60.4965 180.209 60.4965C179.911 60.4965 179.695 60.5297 179.546 60.5959V60.5793Z" fill="black"/>
<path d="M190.951 63.08C191.199 63.2952 191.315 63.5602 191.315 63.8749C191.315 64.1233 191.249 64.3386 191.1 64.5042C190.951 64.6864 190.752 64.7692 190.503 64.7692C190.288 64.7692 190.122 64.7029 189.973 64.5704C189.823 64.4379 189.757 64.2558 189.757 64.0239C189.757 63.7093 189.923 63.4443 190.238 63.2456C190.171 63.1462 190.072 63.0965 189.939 63.0965C189.575 63.0965 189.227 63.2456 188.928 63.5271C188.63 63.8252 188.381 64.173 188.216 64.587C188.05 65.001 187.95 65.3985 187.95 65.7794V68.81C187.95 69.2406 188.083 69.5552 188.332 69.7208C188.58 69.8864 188.961 69.9858 189.475 69.9858V70.2839H189.127C188.149 70.2342 187.536 70.2342 187.271 70.2342C187.022 70.2342 186.459 70.2508 185.58 70.2839V69.9858C185.978 69.9858 186.26 69.9196 186.425 69.7705C186.591 69.6215 186.674 69.3565 186.674 68.959V64.4876C186.674 64.057 186.591 63.7258 186.425 63.5271C186.26 63.3284 185.978 63.229 185.58 63.229V62.9309C185.878 62.964 186.177 62.9806 186.459 62.9806C187.055 62.9806 187.553 62.9143 187.95 62.7819V64.5704C188.116 64.0902 188.398 63.6761 188.779 63.2952C189.16 62.9309 189.575 62.7322 190.022 62.7322C190.404 62.7322 190.718 62.8481 190.967 63.0634L190.951 63.08Z" fill="black"/>
<path d="M198.21 63.7093C198.807 64.3552 199.105 65.3323 199.105 66.624C199.105 67.9157 198.807 68.9094 198.21 69.5387C197.613 70.1846 196.834 70.4992 195.856 70.4992C194.878 70.4992 194.099 70.1846 193.503 69.5387C192.906 68.8928 192.607 67.9323 192.607 66.624C192.607 65.3157 192.906 64.3386 193.503 63.7093C194.099 63.0634 194.878 62.7488 195.856 62.7488C196.834 62.7488 197.613 63.0634 198.21 63.7093ZM194.497 63.908C194.166 64.4877 194 65.3985 194 66.624C194 67.8495 194.166 68.7603 194.497 69.34C194.829 69.9196 195.276 70.2177 195.856 70.2177C196.436 70.2177 196.884 69.9196 197.215 69.34C197.547 68.7603 197.713 67.8495 197.713 66.624C197.713 65.3985 197.547 64.4877 197.215 63.908C196.884 63.3284 196.436 63.0303 195.856 63.0303C195.276 63.0303 194.829 63.3284 194.497 63.908Z" fill="black"/>
<path d="M206.847 63.163C207.245 63.4445 207.576 63.842 207.792 64.3719C208.024 64.9018 208.14 65.5477 208.14 66.293C208.14 67.0382 208.024 67.7172 207.792 68.3465C207.56 68.9924 207.195 69.5057 206.698 69.9032C206.2 70.3007 205.587 70.4994 204.858 70.4994C204.493 70.4994 204.162 70.4332 203.863 70.2841C203.565 70.1351 203.333 69.9529 203.184 69.721V71.5427C203.184 71.9402 203.3 72.2052 203.532 72.3542C203.764 72.5033 204.112 72.5695 204.56 72.5695V72.8676H204.228C203.333 72.8179 202.769 72.8179 202.504 72.8179C202.272 72.8179 201.758 72.8345 200.963 72.8676V72.5695C201.311 72.5695 201.559 72.5033 201.692 72.3708C201.825 72.2383 201.891 72.0064 201.891 71.6752V64.4713C201.891 64.0407 201.808 63.7095 201.642 63.5107C201.476 63.312 201.195 63.2126 200.797 63.2126V62.9146C201.095 62.9477 201.394 62.9642 201.692 62.9642C202.289 62.9642 202.786 62.898 203.184 62.7655V64.2725C203.399 63.7757 203.698 63.3948 204.095 63.1298C204.493 62.8649 204.957 62.7158 205.471 62.7158C205.985 62.7158 206.433 62.8483 206.83 63.1298L206.847 63.163ZM206.747 66.4917C206.747 64.2891 206.2 63.1795 205.09 63.1795C204.659 63.1795 204.278 63.3286 203.93 63.6432C203.582 63.9579 203.333 64.405 203.184 64.9847V69.2739C203.316 69.5554 203.515 69.7707 203.764 69.9363C204.013 70.1019 204.327 70.1847 204.692 70.1847C206.051 70.1847 206.731 68.9592 206.731 66.4917H206.747Z" fill="black"/>
<path d="M216.145 68.5947C215.979 69.1247 215.648 69.5718 215.184 69.9527C214.703 70.3336 214.139 70.5158 213.476 70.5158C212.813 70.5158 212.217 70.3667 211.719 70.0521C211.222 69.7374 210.841 69.3069 210.576 68.7438C210.31 68.1807 210.178 67.5349 210.178 66.8062C210.178 65.9781 210.31 65.2495 210.576 64.6533C210.841 64.0571 211.222 63.5768 211.703 63.2456C212.183 62.9144 212.764 62.7488 213.41 62.7488C214.272 62.7488 214.935 63.0138 215.399 63.5271C215.863 64.0405 216.095 64.8354 216.095 65.8953H211.62C211.587 66.1603 211.57 66.475 211.57 66.8062C211.57 67.4355 211.67 67.982 211.885 68.4457C212.084 68.9094 212.366 69.2737 212.697 69.5221C213.029 69.7706 213.393 69.903 213.758 69.903C214.222 69.903 214.62 69.7871 214.968 69.5718C215.316 69.3565 215.614 68.9922 215.847 68.4788L216.128 68.5947H216.145ZM212.2 63.6762C211.868 64.1233 211.67 64.7692 211.603 65.6138H214.719C214.736 64.8686 214.637 64.2558 214.404 63.759C214.172 63.2622 213.824 63.0138 213.36 63.0138C212.896 63.0138 212.531 63.229 212.2 63.6762Z" fill="black"/>
<path d="M223.273 63.08C223.521 63.2952 223.637 63.5602 223.637 63.8749C223.637 64.1233 223.571 64.3386 223.422 64.5042C223.273 64.6864 223.074 64.7692 222.825 64.7692C222.61 64.7692 222.444 64.7029 222.295 64.5704C222.146 64.4379 222.079 64.2558 222.079 64.0239C222.079 63.7093 222.245 63.4443 222.56 63.2456C222.494 63.1462 222.394 63.0965 222.262 63.0965C221.897 63.0965 221.549 63.2456 221.251 63.5271C220.952 63.8252 220.704 64.173 220.538 64.587C220.372 65.001 220.273 65.3985 220.273 65.7794V68.81C220.273 69.2406 220.405 69.5552 220.654 69.7208C220.902 69.8864 221.284 69.9858 221.798 69.9858V70.2839H221.449C220.472 70.2342 219.858 70.2342 219.593 70.2342C219.344 70.2342 218.781 70.2508 217.902 70.2839V69.9858C218.3 69.9858 218.582 69.9196 218.748 69.7705C218.913 69.6215 218.996 69.3565 218.996 68.959V64.4876C218.996 64.057 218.913 63.7258 218.748 63.5271C218.582 63.3284 218.3 63.229 217.902 63.229V62.9309C218.201 62.964 218.499 62.9806 218.797 62.9806C219.394 62.9806 219.891 62.9143 220.289 62.7819V64.5704C220.455 64.0902 220.737 63.6761 221.118 63.2952C221.499 62.9309 221.914 62.7322 222.361 62.7322C222.742 62.7322 223.057 62.8481 223.306 63.0634L223.273 63.08Z" fill="black"/>
<path d="M227.267 62.964H229.389V63.2455H227.267V68.7769C227.267 69.2074 227.35 69.5221 227.499 69.7043C227.649 69.903 227.881 69.9858 228.179 69.9858C228.477 69.9858 228.726 69.8699 228.941 69.6215C229.157 69.3896 229.323 68.9922 229.472 68.4456L229.754 68.5119C229.522 69.8202 228.892 70.4826 227.897 70.4826C227.566 70.4826 227.3 70.4495 227.102 70.3667C226.886 70.2839 226.704 70.168 226.538 70.0024C226.323 69.7871 226.19 69.5387 226.107 69.224C226.024 68.9259 225.991 68.5119 225.991 67.9985V63.2124H224.615V62.9309H225.991V60.7449C226.521 60.7283 226.952 60.6621 227.284 60.5461V62.9309L227.267 62.964Z" fill="black"/>
<path d="M237.395 62.9475V63.229C237.196 63.2456 237.03 63.3284 236.881 63.494C236.732 63.643 236.599 63.8914 236.467 64.2392L234.113 70.3833L233.632 71.6253C233.45 72.089 233.251 72.4202 233.019 72.619C232.87 72.7515 232.704 72.8508 232.505 72.9005C232.306 72.9502 232.108 72.9833 231.909 72.9833C231.627 72.9833 231.395 72.9005 231.212 72.7515C231.03 72.6024 230.947 72.3871 230.947 72.1221C230.947 71.8903 231.014 71.7081 231.146 71.5756C231.279 71.4432 231.461 71.3769 231.71 71.3769C231.925 71.3769 232.091 71.4432 232.24 71.5591C232.373 71.675 232.439 71.8406 232.439 72.0559C232.439 72.3374 232.306 72.5527 232.058 72.7018C232.074 72.7018 232.108 72.7018 232.141 72.7018C232.671 72.7018 233.069 72.3374 233.351 71.5922L233.848 70.2839L231.262 64.0405C231.096 63.7093 230.931 63.494 230.781 63.3946C230.616 63.2952 230.45 63.229 230.301 63.229V62.9309C230.715 62.9806 231.179 63.0137 231.71 63.0137C232.19 63.0137 232.804 62.9806 233.566 62.9309V63.229C233.218 63.229 232.969 63.2621 232.82 63.3118C232.671 63.3615 232.588 63.5105 232.588 63.7258C232.588 63.9246 232.654 64.1564 232.754 64.4214L234.478 68.6775L236.069 64.5539C236.169 64.2723 236.218 64.057 236.218 63.8914C236.218 63.6761 236.135 63.5105 235.953 63.4112C235.787 63.3118 235.505 63.2456 235.141 63.2124V62.9309C235.638 62.964 236.052 62.9806 236.351 62.9806C236.765 62.9806 237.13 62.9806 237.445 62.9309L237.395 62.9475Z" fill="black"/>
<path d="M250.773 70.0191V70.3006C250.391 70.2675 249.878 70.2509 249.248 70.2509C248.419 70.2509 247.822 70.2509 247.424 70.3006V70.0191C247.789 70.0025 248.054 69.9528 248.203 69.8866C248.369 69.8204 248.436 69.6879 248.436 69.4891C248.436 69.3235 248.386 69.1082 248.27 68.8101L247.391 66.4585H243.927L243.347 67.9821C243.148 68.4955 243.065 68.8929 243.065 69.1579C243.065 69.456 243.165 69.6713 243.38 69.8038C243.579 69.9363 243.894 70.0025 244.308 70.0191V70.3006C243.761 70.2675 243.214 70.2509 242.667 70.2509C242.236 70.2509 241.888 70.2509 241.59 70.3006V70.0191C242.071 69.9032 242.452 69.4891 242.717 68.777L246.082 60.1157H246.314L249.811 69.1082C250.043 69.7044 250.375 70.0025 250.789 70.0191H250.773ZM247.275 66.1935L245.667 61.9209L244.043 66.1935H247.275Z" fill="black"/>
<path d="M254.121 62.964H256.242V63.2455H254.121V68.7769C254.121 69.2074 254.204 69.5221 254.353 69.7043C254.502 69.8864 254.734 69.9858 255.032 69.9858C255.331 69.9858 255.579 69.8699 255.795 69.6215C256.01 69.3896 256.176 68.9922 256.325 68.4456L256.607 68.5119C256.375 69.8202 255.745 70.4826 254.751 70.4826C254.419 70.4826 254.154 70.4495 253.955 70.3667C253.74 70.2839 253.557 70.168 253.391 70.0024C253.176 69.7871 253.043 69.5387 252.961 69.224C252.878 68.9093 252.844 68.5119 252.844 67.9985V63.2124H251.469V62.9309H252.844V60.7449C253.375 60.7283 253.806 60.6621 254.137 60.5461V62.9309L254.121 62.964Z" fill="black"/>
<path d="M259.324 62.964H261.446V63.2455H259.324V68.7769C259.324 69.2074 259.407 69.5221 259.556 69.7043C259.705 69.903 259.937 69.9858 260.236 69.9858C260.534 69.9858 260.783 69.8699 260.998 69.6215C261.214 69.3896 261.379 68.9922 261.528 68.4456L261.81 68.5119C261.578 69.8202 260.948 70.4826 259.954 70.4826C259.622 70.4826 259.357 70.4495 259.158 70.3667C258.943 70.2839 258.76 70.168 258.595 70.0024C258.379 69.7871 258.247 69.5387 258.164 69.224C258.081 68.9259 258.048 68.5119 258.048 67.9985V63.2124H256.672V62.9309H258.048V60.7449C258.578 60.7283 259.009 60.6621 259.341 60.5461V62.9309L259.324 62.964Z" fill="black"/>
<path d="M268.657 63.7093C269.254 64.3552 269.552 65.3323 269.552 66.624C269.552 67.9157 269.254 68.9094 268.657 69.5387C268.06 70.1846 267.281 70.4992 266.303 70.4992C265.326 70.4992 264.546 70.1846 263.95 69.5387C263.353 68.8928 263.055 67.9323 263.055 66.624C263.055 65.3157 263.353 64.3386 263.95 63.7093C264.546 63.0634 265.326 62.7488 266.303 62.7488C267.281 62.7488 268.06 63.0634 268.657 63.7093ZM264.944 63.908C264.613 64.4877 264.447 65.3985 264.447 66.624C264.447 67.8495 264.613 68.7603 264.944 69.34C265.276 69.9196 265.723 70.2177 266.303 70.2177C266.884 70.2177 267.331 69.9196 267.663 69.34C267.994 68.7603 268.16 67.8495 268.16 66.624C268.16 65.3985 267.994 64.4877 267.663 63.908C267.331 63.3284 266.884 63.0303 266.303 63.0303C265.723 63.0303 265.276 63.3284 264.944 63.908Z" fill="black"/>
<path d="M276.745 63.08C276.994 63.2952 277.11 63.5602 277.11 63.8749C277.11 64.1233 277.044 64.3386 276.895 64.5042C276.745 64.6864 276.547 64.7692 276.298 64.7692C276.082 64.7692 275.917 64.7029 275.767 64.5704C275.618 64.4379 275.552 64.2558 275.552 64.0239C275.552 63.7093 275.718 63.4443 276.033 63.2456C275.966 63.1462 275.867 63.0965 275.734 63.0965C275.37 63.0965 275.022 63.2456 274.723 63.5271C274.425 63.8252 274.176 64.173 274.01 64.587C273.845 65.001 273.745 65.3985 273.745 65.7794V68.81C273.745 69.2406 273.878 69.5552 274.127 69.7208C274.375 69.8864 274.756 69.9858 275.27 69.9858V70.2839H274.922C273.944 70.2342 273.331 70.2342 273.066 70.2342C272.817 70.2342 272.254 70.2508 271.375 70.2839V69.9858C271.773 69.9858 272.055 69.9196 272.22 69.7705C272.386 69.6215 272.469 69.3565 272.469 68.959V64.4876C272.469 64.057 272.386 63.7258 272.22 63.5271C272.055 63.3284 271.773 63.229 271.375 63.229V62.9309C271.673 62.964 271.972 62.9806 272.27 62.9806C272.867 62.9806 273.364 62.9143 273.762 62.7819V64.5704C273.928 64.0902 274.209 63.6761 274.591 63.2952C274.972 62.9309 275.386 62.7322 275.834 62.7322C276.215 62.7322 276.53 62.8481 276.779 63.0634L276.745 63.08Z" fill="black"/>
<path d="M284.768 63.2954C284.951 63.4941 285.083 63.726 285.15 64.0075C285.232 64.289 285.266 64.6865 285.266 65.1667V68.9757C285.266 69.3732 285.348 69.6382 285.514 69.7872C285.68 69.9362 285.962 70.0025 286.36 70.0025V70.3006C285.481 70.2675 284.901 70.2509 284.636 70.2509C284.37 70.2509 283.84 70.2675 283.028 70.3006V70.0025C283.376 70.0025 283.625 69.9362 283.757 69.7872C283.89 69.6382 283.956 69.3732 283.956 68.9757V64.8521C283.956 64.3221 283.873 63.9081 283.724 63.6266C283.575 63.345 283.26 63.2126 282.796 63.2126C282.398 63.2126 282.05 63.3285 281.752 63.5603C281.453 63.7922 281.205 64.1068 281.039 64.5043C280.873 64.9018 280.79 65.3323 280.79 65.8292V69.0088C280.79 69.4063 280.856 69.6713 280.989 69.8203C281.122 69.9694 281.37 70.0356 281.718 70.0356V70.3337C280.923 70.3006 280.392 70.284 280.111 70.284C279.829 70.284 279.265 70.3006 278.387 70.3337V70.0356C278.785 70.0356 279.066 69.9694 279.232 69.8203C279.398 69.6713 279.481 69.4063 279.481 69.0088V64.5374C279.481 64.1068 279.398 63.7756 279.232 63.5769C279.066 63.3782 278.785 63.2788 278.387 63.2788V62.9807C278.685 63.0138 278.983 63.0304 279.282 63.0304C279.879 63.0304 280.376 62.9641 280.774 62.8317V64.5209C281.006 63.9081 281.337 63.4775 281.768 63.196C282.199 62.931 282.663 62.782 283.21 62.782C283.873 62.782 284.387 62.9642 284.735 63.3285L284.768 63.2954Z" fill="black"/>
<path d="M293.901 68.5947C293.735 69.1247 293.403 69.5718 292.939 69.9527C292.459 70.3336 291.895 70.5158 291.232 70.5158C290.569 70.5158 289.972 70.3667 289.475 70.0521C288.978 69.7374 288.597 69.3069 288.331 68.7438C288.066 68.1807 287.934 67.5349 287.934 66.8062C287.934 65.9781 288.066 65.2495 288.331 64.6533C288.597 64.0571 288.978 63.5768 289.459 63.2456C289.939 62.9144 290.519 62.7488 291.166 62.7488C292.028 62.7488 292.691 63.0138 293.138 63.5271C293.602 64.0405 293.834 64.8354 293.834 65.8953H289.359C289.326 66.1603 289.309 66.475 289.309 66.8062C289.309 67.4355 289.409 67.982 289.624 68.4457C289.823 68.9094 290.105 69.2737 290.436 69.5221C290.768 69.7706 291.133 69.903 291.497 69.903C291.961 69.903 292.359 69.7871 292.707 69.5718C293.055 69.3565 293.354 68.9922 293.602 68.4788L293.884 68.5947H293.901ZM289.956 63.6762C289.624 64.1233 289.425 64.7692 289.359 65.6138H292.475C292.492 64.8686 292.392 64.2558 292.16 63.759C291.928 63.2622 291.58 63.0138 291.116 63.0138C290.652 63.0138 290.287 63.229 289.956 63.6762Z" fill="black"/>
<path d="M302.155 62.9475V63.229C301.956 63.2456 301.79 63.3284 301.641 63.494C301.492 63.643 301.359 63.8914 301.227 64.2392L298.873 70.3833L298.392 71.6253C298.21 72.089 298.011 72.4202 297.779 72.619C297.63 72.7515 297.464 72.8508 297.265 72.9005C297.066 72.9502 296.867 72.9833 296.668 72.9833C296.387 72.9833 296.155 72.9005 295.972 72.7515C295.79 72.6024 295.707 72.3871 295.707 72.1221C295.707 71.8903 295.773 71.7081 295.906 71.5756C296.039 71.4432 296.221 71.3769 296.469 71.3769C296.685 71.3769 296.851 71.4432 297 71.5591C297.132 71.675 297.199 71.8406 297.199 72.0559C297.199 72.3374 297.066 72.5527 296.818 72.7018C296.834 72.7018 296.867 72.7018 296.9 72.7018C297.431 72.7018 297.829 72.3374 298.11 71.5922L298.608 70.2839L296.022 64.0405C295.856 63.7093 295.69 63.494 295.541 63.3946C295.375 63.2952 295.21 63.229 295.061 63.229V62.9309C295.475 62.9806 295.939 63.0137 296.469 63.0137C296.95 63.0137 297.563 62.9806 298.326 62.9309V63.229C297.978 63.229 297.729 63.2621 297.58 63.3118C297.414 63.3615 297.348 63.5105 297.348 63.7258C297.348 63.9246 297.398 64.1564 297.514 64.4214L299.238 68.6775L300.829 64.5539C300.928 64.2723 300.978 64.057 300.978 63.8914C300.978 63.6761 300.895 63.5105 300.713 63.4112C300.547 63.3118 300.265 63.2456 299.901 63.2124V62.9309C300.414 62.964 300.812 62.9806 301.111 62.9806C301.525 62.9806 301.89 62.9806 302.205 62.9309L302.155 62.9475Z" fill="black"/>
<path d="M306.797 62.8978C307.062 62.9972 307.278 63.1297 307.443 63.2622C307.543 63.345 307.642 63.3781 307.709 63.3781C307.874 63.3781 307.99 63.1628 308.023 62.7488H308.355C308.322 63.2125 308.305 64.024 308.305 65.1832H307.974C307.874 64.5539 307.659 64.0405 307.36 63.6265C307.062 63.2125 306.615 63.0138 306.018 63.0138C305.67 63.0138 305.388 63.1131 305.172 63.3118C304.957 63.5106 304.841 63.7756 304.841 64.1233C304.841 64.4711 304.957 64.7361 305.189 64.9514C305.421 65.1832 305.786 65.4482 306.283 65.7628C306.366 65.8125 306.499 65.8953 306.664 66.0113C307.095 66.2928 307.46 66.5578 307.725 66.7731C307.99 66.9883 308.206 67.2368 308.372 67.5348C308.537 67.8164 308.62 68.1476 308.62 68.5285C308.62 69.1578 308.388 69.6546 307.907 70.0024C307.443 70.3502 306.863 70.5324 306.167 70.5324C305.736 70.5324 305.355 70.4661 305.04 70.3336C304.824 70.2343 304.625 70.1018 304.46 69.9527C304.427 69.9196 304.377 69.903 304.327 69.903C304.261 69.903 304.195 69.9527 304.145 70.0521C304.095 70.1515 304.045 70.2839 304.029 70.4496H303.697C303.73 69.903 303.747 68.9591 303.747 67.5845H304.078C304.178 68.4788 304.377 69.1412 304.659 69.5884C304.94 70.0355 305.405 70.2508 306.068 70.2508C306.399 70.2508 306.697 70.1349 306.963 69.9196C307.228 69.7043 307.344 69.3565 307.344 68.8928C307.344 68.5285 307.211 68.2138 306.963 67.9489C306.714 67.6839 306.3 67.3858 305.719 67.0215C305.255 66.7234 304.891 66.475 304.642 66.2928C304.393 66.1106 304.178 65.8622 304.012 65.5972C303.846 65.3157 303.747 65.001 303.747 64.6202C303.747 64.024 303.946 63.5603 304.344 63.2456C304.742 62.9309 305.255 62.7819 305.869 62.7819C306.217 62.7819 306.515 62.8316 306.78 62.9309L306.797 62.8978Z" fill="black"/>
</g>
<defs>
<clipPath id="clip0_258_1348">
<rect width="400" height="73" fill="white"/>
</clipPath>
</defs>
</svg>