<svg width="60" height="60" viewBox="0 0 60 60" fill="none" xmlns="http://www.w3.org/2000/svg">
<path d="M26.968 33.9303L22.2109 42.1713C20.2001 37.4298 15.4872 34.0589 9.99635 34.075C9.99548 34.075 9.99462 34.075 9.99375 34.075L9.99766 35.325C9.16628 35.3252 8.34381 35.4116 7.54222 35.5794L8.35096 34.1788C7.44109 34.2934 6.54689 34.502 5.68257 34.8003L26.968 33.9303ZM43.0639 51.3127L23.0672 16.6802C23.0671 16.6801 23.0671 16.68 23.067 16.6799C22.0062 14.842 21.719 12.6579 22.2684 10.6081C22.818 8.55821 24.1593 6.81059 25.9973 5.74967C27.8353 4.68876 30.0195 4.40145 32.0694 4.95096C34.1193 5.50047 35.8669 6.84178 36.9278 8.67982L36.9279 8.67998L56.9223 43.3128C57.9534 45.1486 58.2211 47.3156 57.6659 49.344C57.1094 51.377 55.7733 53.1084 53.9478 54.1621C52.1223 55.2158 49.9548 55.5067 47.916 54.9717C45.8803 54.4374 44.1372 53.1228 43.0639 51.3127ZM10 55.325C7.87827 55.325 5.84344 54.4822 4.34315 52.9819C2.84285 51.4816 2 49.4467 2 47.325C2 45.2033 2.84285 43.1684 4.34315 41.6682C5.84344 40.1679 7.87827 39.325 10 39.325C12.1217 39.325 14.1566 40.1679 15.6569 41.6682C17.1571 43.1684 18 45.2033 18 47.325C18 49.4467 17.1571 51.4816 15.6569 52.9819C14.1566 54.4822 12.1217 55.325 10 55.325Z" stroke="black" stroke-width="4"/>
</svg>
