<svg width="60" height="60" viewBox="0 0 60 60" fill="none" xmlns="http://www.w3.org/2000/svg">
<mask id="mask0_386_1653" style="mask-type:luminance" maskUnits="userSpaceOnUse" x="2" y="7" width="56" height="46">
<path d="M51.25 10H8.75C6.67893 10 5 11.6789 5 13.75V46.25C5 48.3211 6.67893 50 8.75 50H51.25C53.3211 50 55 48.3211 55 46.25V13.75C55 11.6789 53.3211 10 51.25 10Z" stroke="white" stroke-width="5" stroke-linejoin="round"/>
<path d="M5 13.75C5 12.7554 5.39509 11.8016 6.09835 11.0983C6.80161 10.3951 7.75544 10 8.75 10H51.25C52.2446 10 53.1984 10.3951 53.9016 11.0983C54.6049 11.8016 55 12.7554 55 13.75V25H5V13.75Z" fill="white" stroke="white" stroke-width="5"/>
<path d="M10 17.5C10 16.1193 11.1193 15 12.5 15C13.8807 15 15 16.1193 15 17.5C15 18.8807 13.8807 20 12.5 20C11.1193 20 10 18.8807 10 17.5Z" fill="black"/>
<path d="M17.5 17.5C17.5 16.1193 18.6193 15 20 15C21.3807 15 22.5 16.1193 22.5 17.5C22.5 18.8807 21.3807 20 20 20C18.6193 20 17.5 18.8807 17.5 17.5Z" fill="black"/>
</mask>
<g mask="url(#mask0_386_1653)">
<path d="M0 0H60V60H0V0Z" fill="black"/>
</g>
</svg>
