<svg width="60" height="60" viewBox="0 0 60 60" fill="none" xmlns="http://www.w3.org/2000/svg">
<g clip-path="url(#clip0_386_1663)">
<path d="M53.4375 7.87497C52.7928 7.4579 52.0556 7.20559 51.2905 7.1402C50.5255 7.07481 49.7561 7.19835 49.05 7.49997L25.9125 16.6125C25.3653 16.8373 24.7791 16.952 24.1875 16.95H9.375C8.1318 16.95 6.93951 17.4438 6.06044 18.3229C5.18136 19.202 4.6875 20.3943 4.6875 21.6375V22.0125H0V33.2625H4.6875V33.75C4.71688 34.9736 5.22367 36.1372 6.09959 36.992C6.9755 37.8469 8.15105 38.3253 9.375 38.325L15 50.25C15.3809 51.053 15.9805 51.7323 16.7301 52.2099C17.4797 52.6875 18.3487 52.944 19.2375 52.95H21.6C22.8367 52.9401 24.0194 52.4419 24.8903 51.5639C25.7613 50.6858 26.25 49.4992 26.25 48.2625V38.775L49.05 47.8875C49.6116 48.1081 50.2092 48.2225 50.8125 48.225C51.7486 48.2077 52.6599 47.9213 53.4375 47.4C54.0543 46.9835 54.563 46.4262 54.9217 45.7741C55.2804 45.122 55.4786 44.3939 55.5 43.65V11.7375C55.4966 10.9744 55.3069 10.2237 54.9475 9.5506C54.588 8.87748 54.0697 8.30228 53.4375 7.87497ZM21.5625 21.6375V33.75H9.375V21.6375H21.5625ZM21.5625 48.2625H19.2L14.5875 38.325H21.5625V48.2625ZM27.6375 34.3125C27.1922 34.0851 26.7279 33.8969 26.25 33.75V21.375C26.7232 21.2766 27.1874 21.1386 27.6375 20.9625L50.8125 11.7375V43.5375L27.6375 34.3125ZM55.6125 22.95V32.325C56.8557 32.325 58.048 31.8311 58.9271 30.952C59.8061 30.073 60.3 28.8807 60.3 27.6375C60.3 26.3943 59.8061 25.202 58.9271 24.3229C58.048 23.4438 56.8557 22.95 55.6125 22.95Z" fill="black"/>
</g>
<defs>
<clipPath id="clip0_386_1663">
<rect width="60" height="60" fill="white"/>
</clipPath>
</defs>
</svg>
