<svg width="60" height="60" viewBox="0 0 60 60" fill="none" xmlns="http://www.w3.org/2000/svg">
<path d="M30 20C27.25 20 24.8958 20.9792 22.9375 22.9375C20.9792 24.8958 20 27.25 20 30C20 31.875 20.4692 33.6042 21.4075 35.1875C22.3458 36.7708 23.6475 38 25.3125 38.875C25.9792 39.2083 26.4483 39.6975 26.72 40.3425C26.9917 40.9875 26.9808 41.6442 26.6875 42.3125C26.3958 42.8958 25.9583 43.3333 25.375 43.625C24.7917 43.9167 24.2083 43.9167 23.625 43.625C21 42.375 18.9067 40.5208 17.345 38.0625C15.7833 35.6042 15.0017 32.9167 15 30C15 25.8333 16.4583 22.2917 19.375 19.375C22.2917 16.4583 25.8333 15 30 15C32.9583 15 35.6775 15.7817 38.1575 17.345C40.6375 18.9083 42.4808 21.0433 43.6875 23.75C43.9375 24.3333 43.9275 24.9167 43.6575 25.5C43.3875 26.0833 42.96 26.5 42.375 26.75C41.7083 27.0417 41.0417 27.0417 40.375 26.75C39.7083 26.4583 39.2083 25.9792 38.875 25.3125C38 23.6458 36.7708 22.3442 35.1875 21.4075C33.6042 20.4708 31.875 20.0017 30 20ZM30 10C24.4167 10 19.6875 11.9375 15.8125 15.8125C11.9375 19.6875 10 24.4167 10 30C10 35.25 11.7292 39.75 15.1875 43.5C18.6458 47.25 22.9792 49.375 28.1875 49.875C28.8958 49.9583 29.51 50.2708 30.03 50.8125C30.55 51.3542 30.79 51.9792 30.75 52.6875C30.71 53.3958 30.4492 53.9792 29.9675 54.4375C29.4858 54.8958 28.8925 55.1042 28.1875 55.0625C24.9375 54.8542 21.9058 54.0417 19.0925 52.625C16.2792 51.2083 13.8208 49.3642 11.7175 47.0925C9.61417 44.8208 7.96834 42.2167 6.78 39.28C5.59167 36.3433 4.99834 33.25 5 30C5 26.5417 5.65667 23.2917 6.97 20.25C8.28334 17.2083 10.0642 14.5625 12.3125 12.3125C14.5608 10.0625 17.2067 8.28167 20.25 6.97C23.2933 5.65833 26.5433 5.00167 30 5C36.5417 5 42.24 7.22917 47.095 11.6875C51.95 16.1458 54.6058 21.6458 55.0625 28.1875C55.1458 28.8542 54.9483 29.4275 54.47 29.9075C53.9917 30.3875 53.3975 30.6475 52.6875 30.6875C51.9775 30.7275 51.3425 30.4983 50.7825 30C50.2225 29.5017 49.8992 28.8975 49.8125 28.1875C49.1875 23.1875 47.0108 18.9067 43.2825 15.345C39.5542 11.7833 35.1267 10.0017 30 10ZM48.875 53.75L40.625 45.5625L38.75 51.25C38.5417 51.8333 38.1458 52.115 37.5625 52.095C36.9792 52.075 36.5833 51.7725 36.375 51.1875L30.6875 32.25C30.5208 31.7917 30.625 31.375 31 31C31.375 30.625 31.7917 30.5208 32.25 30.6875L51.1875 36.375C51.7708 36.5833 52.0733 36.9792 52.095 37.5625C52.1167 38.1458 51.835 38.5417 51.25 38.75L45.5625 40.625L53.8125 48.875C54.5208 49.5833 54.875 50.3958 54.875 51.3125C54.875 52.2292 54.5208 53.0417 53.8125 53.75C53.1042 54.4583 52.2817 54.8125 51.345 54.8125C50.4083 54.8125 49.585 54.4583 48.875 53.75Z" fill="black"/>
</svg>
