<svg width="60" height="48" viewBox="0 0 60 48" fill="none" xmlns="http://www.w3.org/2000/svg">
<path d="M28.418 47.4375C31.2851 47.4375 33.6094 45.1657 33.6094 42.3633C33.6094 39.5609 31.2851 37.2891 28.418 37.2891C25.5508 37.2891 23.2266 39.5609 23.2266 42.3633C23.2266 45.1657 25.5508 47.4375 28.418 47.4375Z" fill="black"/>
<path d="M44.5195 47.4375C47.3867 47.4375 49.7109 45.1657 49.7109 42.3633C49.7109 39.5609 47.3867 37.2891 44.5195 37.2891C41.6524 37.2891 39.3281 39.5609 39.3281 42.3633C39.3281 45.1657 41.6524 47.4375 44.5195 47.4375Z" fill="black"/>
<path d="M54.7158 7.24219H18.7626C18.6806 7.24219 18.5986 7.26562 18.5166 7.26562L17.6025 2.69531C17.4384 1.48828 16.6064 0.761719 15.0478 0.550781H1.93452C-1.05376 0.5625 -1.13579 7.92187 5.69624 6.97266L12.3056 6.91406L13.4775 12.4102V12.4219L17.04 30.0234C17.04 32.8711 19.4189 35.2031 22.3251 35.2031H51.1533C54.0595 35.2031 56.4384 32.8711 56.4384 30.0234L60.0009 12.4219C60.0009 9.57422 57.622 7.24219 54.7158 7.24219ZM23.8251 30.0352L23.708 30.0469C22.7353 30.1641 21.8212 29.4961 21.6923 28.5703L19.6533 14.707C19.5126 13.7578 20.2275 12.8789 21.2353 12.7617L21.3525 12.75C22.3251 12.6328 23.2392 13.3008 23.3681 14.2266L25.4072 28.0898C25.5478 29.0391 24.833 29.918 23.8251 30.0352ZM33.0361 30.082L32.9072 30.0937C31.9228 30.1641 31.0439 29.4492 30.9736 28.5117L29.8134 14.5781C29.7314 13.6289 30.4931 12.7852 31.5009 12.7266L31.6298 12.7148C32.6142 12.6445 33.4931 13.3594 33.5634 14.2969L34.7236 28.2305C34.8056 29.1914 34.0439 30.0234 33.0361 30.082ZM43.7119 28.418C43.7001 29.3672 42.8681 30.1289 41.872 30.1172H41.7431C40.747 30.1055 39.9384 29.3203 39.9501 28.3711L40.1845 14.4023C40.1962 13.4531 41.0283 12.6914 42.0244 12.7031H42.1533C43.1494 12.7148 43.958 13.5 43.9462 14.4492L43.7119 28.418ZM54.3408 14.7773L51.9619 28.5938C51.8095 29.5078 50.8837 30.1523 49.9111 30.0234L49.7939 30.0117C48.7861 29.8711 48.0947 28.9805 48.2587 28.0312L50.6259 14.2148C50.7783 13.3008 51.704 12.6562 52.6767 12.7852L52.7939 12.7969C53.8134 12.9375 54.5048 13.8281 54.3408 14.7773Z" fill="black"/>
</svg>
