<svg width="60" height="60" viewBox="0 0 60 60" fill="none" xmlns="http://www.w3.org/2000/svg">
<path d="M54.2742 21.775C57.3992 18.65 55.9742 15 54.2742 13.225L46.7742 5.72501C43.6242 2.60001 39.9992 4.02501 38.2242 5.72501L33.9742 10H27.4992C22.7492 10 19.9992 12.5 18.5992 15.375L7.49921 26.475V36.475L5.72421 38.225C2.59921 41.375 4.02421 45 5.72421 46.775L13.2242 54.275C14.5742 55.625 16.0242 56.125 17.3992 56.125C19.1742 56.125 20.7992 55.25 21.7742 54.275L28.5242 47.5H37.4992C41.7492 47.5 43.8992 44.85 44.6742 42.25C47.4992 41.5 49.0492 39.35 49.6742 37.25C53.5492 36.25 54.9992 32.575 54.9992 30V22.5H53.5242L54.2742 21.775ZM49.9992 30C49.9992 31.125 49.5242 32.5 47.4992 32.5H44.9992V35C44.9992 36.125 44.5242 37.5 42.4992 37.5H39.9992V40C39.9992 41.125 39.5242 42.5 37.4992 42.5H26.4742L18.2742 50.7C17.4992 51.425 17.0492 51 16.7742 50.725L9.29921 43.275C8.57421 42.5 8.99921 42.05 9.27421 41.775L12.4992 38.525V28.525L17.4992 23.525V27.5C17.4992 30.525 19.4992 35 24.9992 35C30.4992 35 32.4992 30.525 32.4992 27.5H49.9992V30ZM50.7242 18.225L46.4742 22.5H27.4992V27.5C27.4992 28.625 27.0242 30 24.9992 30C22.9742 30 22.4992 28.625 22.4992 27.5V20C22.4992 18.85 22.9242 15 27.4992 15H36.0242L41.7242 9.30001C42.4992 8.57501 42.9492 9.00001 43.2242 9.27501L50.6992 16.725C51.4242 17.5 50.9992 17.95 50.7242 18.225Z" fill="black"/>
</svg>
