<svg width="226" height="200" viewBox="0 0 226 200" fill="none" xmlns="http://www.w3.org/2000/svg">
<path d="M18.2 87.5L46.275 59.425C47.4417 58.2583 48.0667 56.825 48.15 55.125C48.2333 53.425 47.6083 51.9083 46.275 50.575C44.9417 49.2416 43.4667 48.575 41.85 48.575C40.2333 48.575 38.7583 49.2416 37.425 50.575L7.575 80.425C5.55 82.45 4.5375 84.8083 4.5375 87.5C4.5375 90.1917 5.55 92.55 7.575 94.575L37.425 124.425C38.5917 125.592 40.025 126.217 41.725 126.3C43.425 126.383 44.9417 125.758 46.275 124.425C47.6083 123.092 48.275 121.617 48.275 120C48.275 118.383 47.6083 116.908 46.275 115.575L18.2 87.5ZM207.812 87.5L179.738 115.575C178.563 116.742 177.937 118.175 177.862 119.875C177.787 121.575 178.413 123.092 179.738 124.425C181.063 125.758 182.533 126.425 184.15 126.425C185.767 126.425 187.242 125.758 188.575 124.425L218.438 94.575C220.454 92.55 221.462 90.1917 221.462 87.5C221.462 84.8083 220.454 82.4542 218.438 80.4375L188.575 50.575C187.408 49.4083 185.975 48.7833 184.275 48.7C182.575 48.6166 181.063 49.2416 179.738 50.575C178.413 51.9083 177.746 53.3833 177.738 55C177.729 56.6166 178.396 58.0916 179.738 59.425L207.812 87.5ZM0.5 34.625V20.1875C0.5 14.4291 2.42917 9.62082 6.2875 5.76249C10.1458 1.90415 14.9458 -0.0166812 20.6875 -1.45434e-05H205.312C211.062 -1.45434e-05 215.863 1.92498 219.713 5.77498C223.563 9.62498 225.492 14.4291 225.5 20.1875V34.625C225.5 36.4083 224.904 37.8958 223.713 39.0875C222.521 40.2792 221.033 40.875 219.25 40.875C217.467 40.875 215.979 40.2792 214.787 39.0875C213.596 37.8958 213 36.4042 213 34.6125V20.1875C213 17.9458 212.279 16.1042 210.837 14.6625C209.396 13.2208 207.554 12.5 205.312 12.5H20.6875C18.4458 12.5 16.6042 13.2208 15.1625 14.6625C13.7208 16.1042 13 17.95 13 20.2V34.6125C13 36.3958 12.4042 37.8833 11.2125 39.075C10.0208 40.2667 8.53333 40.8625 6.75 40.8625C4.96667 40.8625 3.47917 40.2667 2.2875 39.075C1.09583 37.8833 0.5 36.4083 0.5 34.625ZM85.6 200C82.7 200 80.2917 199.042 78.375 197.125C76.4583 195.208 75.5 192.8 75.5 189.9V175H20.7C14.9417 175 10.1375 173.075 6.2875 169.225C2.4375 165.375 0.508333 160.567 0.5 154.8V140.45C0.5 138.675 1.09583 137.204 2.2875 136.037C3.4875 134.871 4.975 134.287 6.75 134.287C8.525 134.287 10.0125 134.883 11.2125 136.075C12.4125 137.267 13.0083 138.75 13 140.525V154.8C13 157.05 13.7208 158.896 15.1625 160.337C16.6042 161.779 18.45 162.5 20.7 162.5H205.312C207.554 162.5 209.396 161.779 210.837 160.337C212.279 158.896 213 157.05 213 154.8V140.45C213 138.675 213.596 137.204 214.787 136.037C215.979 134.871 217.467 134.287 219.25 134.287C221.033 134.287 222.521 134.883 223.713 136.075C224.904 137.267 225.5 138.75 225.5 140.525V154.8C225.5 160.558 223.571 165.362 219.713 169.212C215.854 173.062 211.054 174.992 205.312 175H150.5V189.9C150.5 192.808 149.542 195.217 147.625 197.125C145.708 199.033 143.3 199.992 140.4 200H85.6Z" fill="#595A5A"/>
</svg>
