<svg width="300" height="300" viewBox="0 0 300 300" fill="none" xmlns="http://www.w3.org/2000/svg">
<path d="M55.2 137.5L83.275 109.425C84.4417 108.258 85.0667 106.825 85.15 105.125C85.2333 103.425 84.6083 101.908 83.275 100.575C81.9417 99.2416 80.4667 98.575 78.85 98.575C77.2333 98.575 75.7583 99.2416 74.425 100.575L44.575 130.425C42.55 132.45 41.5375 134.808 41.5375 137.5C41.5375 140.192 42.55 142.55 44.575 144.575L74.425 174.425C75.5917 175.592 77.025 176.217 78.725 176.3C80.425 176.383 81.9417 175.758 83.275 174.425C84.6083 173.092 85.275 171.617 85.275 170C85.275 168.383 84.6083 166.908 83.275 165.575L55.2 137.5ZM244.812 137.5L216.738 165.575C215.563 166.742 214.937 168.175 214.862 169.875C214.787 171.575 215.413 173.092 216.738 174.425C218.063 175.758 219.533 176.425 221.15 176.425C222.767 176.425 224.242 175.758 225.575 174.425L255.438 144.575C257.454 142.55 258.462 140.192 258.462 137.5C258.462 134.808 257.454 132.454 255.438 130.437L225.575 100.575C224.408 99.4083 222.975 98.7833 221.275 98.7C219.575 98.6166 218.063 99.2416 216.738 100.575C215.413 101.908 214.746 103.383 214.738 105C214.729 106.617 215.396 108.092 216.738 109.425L244.812 137.5ZM37.5 84.625V70.1875C37.5 64.4291 39.4292 59.6208 43.2875 55.7625C47.1458 51.9042 51.9458 49.9833 57.6875 50H242.312C248.062 50 252.863 51.925 256.713 55.775C260.563 59.625 262.492 64.4291 262.5 70.1875V84.625C262.5 86.4083 261.904 87.8958 260.713 89.0875C259.521 90.2792 258.033 90.875 256.25 90.875C254.467 90.875 252.979 90.2792 251.787 89.0875C250.596 87.8958 250 86.4042 250 84.6125V70.1875C250 67.9458 249.279 66.1042 247.837 64.6625C246.396 63.2208 244.554 62.5 242.312 62.5H57.6875C55.4458 62.5 53.6042 63.2208 52.1625 64.6625C50.7208 66.1042 50 67.95 50 70.2V84.6125C50 86.3958 49.4042 87.8833 48.2125 89.075C47.0208 90.2667 45.5333 90.8625 43.75 90.8625C41.9667 90.8625 40.4792 90.2667 39.2875 89.075C38.0958 87.8833 37.5 86.4083 37.5 84.625ZM122.6 250C119.7 250 117.292 249.042 115.375 247.125C113.458 245.208 112.5 242.8 112.5 239.9V225H57.7C51.9417 225 47.1375 223.075 43.2875 219.225C39.4375 215.375 37.5083 210.567 37.5 204.8V190.45C37.5 188.675 38.0958 187.204 39.2875 186.037C40.4875 184.871 41.975 184.287 43.75 184.287C45.525 184.287 47.0125 184.883 48.2125 186.075C49.4125 187.267 50.0083 188.75 50 190.525V204.8C50 207.05 50.7208 208.896 52.1625 210.337C53.6042 211.779 55.45 212.5 57.7 212.5H242.312C244.554 212.5 246.396 211.779 247.837 210.337C249.279 208.896 250 207.05 250 204.8V190.45C250 188.675 250.596 187.204 251.787 186.037C252.979 184.871 254.467 184.287 256.25 184.287C258.033 184.287 259.521 184.883 260.713 186.075C261.904 187.267 262.5 188.75 262.5 190.525V204.8C262.5 210.558 260.571 215.362 256.713 219.212C252.854 223.062 248.054 224.992 242.312 225H187.5V239.9C187.5 242.808 186.542 245.217 184.625 247.125C182.708 249.033 180.3 249.992 177.4 250H122.6Z" fill="#595A5A"/>
</svg>
