<svg width="251" height="240" viewBox="0 0 251 240" fill="none" xmlns="http://www.w3.org/2000/svg">
<path d="M127.5 80.1005L127.499 80.1001C125.97 79.2828 124.113 79.301 122.6 80.1544C121.082 81.0113 120.106 82.6049 120.106 84.374V115.24H95.3155C95.5995 113.51 95.7421 111.759 95.7421 109.996C95.7421 91.4767 80.1092 76.5435 61.0529 76.5435C41.9629 76.5435 26.2953 91.4729 26.2953 109.996C26.2953 111.768 26.4397 113.519 26.7275 115.239H2V38.9759C2 18.6651 19.2375 2 40.5935 2H120.106V32.867C120.106 34.6446 121.092 36.2484 122.628 37.1014C124.153 37.9492 126.024 37.9542 127.553 37.1111C131.002 35.2114 135.049 34.193 139.263 34.193C152.902 34.193 163.966 45.1724 163.966 58.6205C163.966 72.0685 152.902 83.048 139.263 83.048C135.171 83.048 131.101 82.0282 127.5 80.1005Z" stroke="black" stroke-width="4"/>
<path d="M86.1775 123.096L86.1739 123.092C86.0434 122.951 85.9162 122.797 85.7955 122.63C85.7947 122.629 85.7938 122.627 85.793 122.626C84.8432 121.308 84.6167 119.608 85.2112 118.087C86.2663 115.384 86.7994 112.566 86.7994 109.705C86.7994 96.7066 75.7886 86 62.0958 86C48.3611 86 37.3239 96.7114 37.3239 109.705C37.3239 112.606 37.8715 115.395 38.9467 118.003L38.9468 118.003C39.5749 119.527 39.3728 121.251 38.4235 122.592L86.1775 123.096ZM86.1775 123.096C87.1276 124.119 88.4725 124.696 89.877 124.696H121.149V148.355C119.32 148.071 117.468 147.929 115.604 147.929C96.5188 147.929 80.8464 162.824 80.8464 181.315M86.1775 123.096L80.8464 181.315M80.8464 181.315C80.8464 199.838 96.5147 214.768 115.603 214.768C117.478 214.768 119.33 214.624 121.148 214.337M80.8464 181.315L121.148 214.337M121.148 214.337V237.935H41.6365C20.2805 237.935 3.04297 221.27 3.04297 200.959V124.696H34.316C34.518 124.696 34.7203 124.684 34.9218 124.66C34.923 124.66 34.9241 124.66 34.9253 124.659L121.148 214.337Z" stroke="black" stroke-width="4"/>
<path d="M166.044 121.849L166.043 121.85C164.988 124.552 164.455 127.369 164.455 130.23C164.455 143.228 175.466 153.935 189.159 153.935C202.894 153.935 213.931 143.223 213.931 130.23C213.931 127.331 213.383 124.542 212.307 121.933C212.15 121.553 212.045 121.16 211.991 120.762C211.826 119.566 212.121 118.346 212.832 117.342C213.542 116.341 214.588 115.66 215.745 115.381L215.745 115.381C216.132 115.288 216.534 115.24 216.939 115.24H248.212V38.9759C248.211 18.6651 230.973 2 209.617 2H130.105V25.6397C133.058 24.85 136.146 24.4453 139.276 24.4453C158.376 24.4453 173.965 39.7439 173.965 58.6199C173.965 77.4952 158.376 92.7944 139.276 92.7944C136.175 92.7944 133.086 92.3797 130.105 91.5749V115.239H161.378C162.98 115.239 164.512 115.993 165.459 117.305L166.044 121.849ZM166.044 121.849C166.636 120.33 166.414 118.628 165.46 117.307L166.044 121.849Z" stroke="black" stroke-width="4"/>
<path d="M155.621 124C155.337 125.73 155.194 127.481 155.194 129.244C155.194 147.763 170.826 162.696 189.883 162.696C208.972 162.696 224.641 147.767 224.641 129.244C224.641 127.471 224.496 125.721 224.208 124.001H248.936V200.264C248.936 220.575 231.698 237.24 210.342 237.24H130.83V207.293C130.83 205.642 129.978 204.134 128.612 203.242L128.608 203.239C128.269 203.019 127.909 202.843 127.536 202.711L127.532 202.709C126.595 202.38 125.576 202.33 124.605 202.571L124.605 202.571C124.406 202.62 124.213 202.681 124.027 202.752L124.025 202.752C121.285 203.794 118.351 204.326 115.299 204.326C101.564 204.326 90.5273 193.614 90.5273 180.62C90.5273 167.668 101.559 156.98 115.299 156.98C118.31 156.98 121.272 157.498 124.109 158.519C125.62 159.064 127.313 158.864 128.65 157.974C129.995 157.079 130.83 155.58 130.83 153.946V124H155.621Z" stroke="black" stroke-width="4"/>
</svg>
