<svg width="292" height="176" viewBox="0 0 292 176" fill="none" xmlns="http://www.w3.org/2000/svg">
<path d="M204.335 175.5C195.526 175.5 187.092 174.236 179.033 171.708C170.973 169.181 163.55 165.52 156.764 160.727C166.758 151.248 174.473 140.208 179.908 127.608C185.352 114.999 188.074 101.796 188.074 88C188.074 74.2042 185.352 61.0014 179.908 48.3917C174.463 35.7819 166.753 24.7472 156.778 15.2875C163.545 10.475 170.963 6.80486 179.033 4.27708C187.102 1.75903 195.536 0.5 204.335 0.5C228.66 0.5 249.324 9.00208 266.328 26.0063C283.333 43.0104 291.835 63.675 291.835 88C291.835 112.325 283.333 132.99 266.328 149.994C249.324 166.998 228.66 175.5 204.335 175.5ZM87.668 175.5C63.343 175.5 42.6784 166.998 25.6742 149.994C8.67005 132.99 0.167969 112.325 0.167969 88C0.167969 63.675 8.67005 43.0104 25.6742 26.0063C42.6784 9.00208 63.343 0.5 87.668 0.5C96.4763 0.5 104.915 1.76389 112.985 4.29167C121.054 6.81945 128.467 10.4847 135.224 15.2875C133.338 17.0083 131.554 18.841 129.872 20.7854L124.855 26.6333C119.615 22.9778 113.85 20.1389 107.56 18.1167C101.269 16.0944 94.6388 15.0833 87.668 15.0833C67.4944 15.0833 50.3006 22.1951 36.0867 36.4188C21.8728 50.6424 14.761 67.8361 14.7513 88C14.7416 108.164 21.8534 125.362 36.0867 139.596C50.32 153.829 67.5138 160.936 87.668 160.917C94.6388 160.917 101.274 159.906 107.574 157.883C113.855 155.861 119.615 153.022 124.855 149.367L129.872 155.2C131.554 157.164 133.338 159.006 135.224 160.727C128.467 165.53 121.054 169.195 112.985 171.723C104.915 174.241 96.4763 175.5 87.668 175.5ZM146.001 152.779C136.824 144.612 129.668 134.89 124.535 123.613C119.401 112.335 116.835 100.464 116.835 88C116.835 75.5361 119.401 63.6653 124.535 52.3875C129.668 41.1097 136.824 31.3875 146.001 23.2208C155.179 31.3875 162.335 41.1097 167.468 52.3875C172.601 63.6653 175.168 75.5361 175.168 88C175.168 100.464 172.601 112.335 167.468 123.613C162.335 134.89 155.179 144.612 146.001 152.779Z" fill="#595A5A"/>
</svg>
