<svg width="60" height="60" viewBox="0 0 60 60" fill="none" xmlns="http://www.w3.org/2000/svg">
<path d="M33.9194 32.0332C33.8313 31.946 33.7123 31.897 33.5883 31.897C33.4643 31.897 33.3454 31.946 33.2573 32.0332L29.3549 35.9355L24.0639 30.6445L27.9721 26.7363C28.1537 26.5547 28.1537 26.2559 27.9721 26.0742L25.8393 23.9414C25.7512 23.8542 25.6322 23.8052 25.5082 23.8052C25.3843 23.8052 25.2653 23.8542 25.1772 23.9414L21.269 27.8496L18.7495 25.3301C18.7057 25.2863 18.6536 25.2518 18.5962 25.2286C18.5388 25.2055 18.4773 25.1942 18.4155 25.1953C18.2983 25.1953 18.1752 25.2422 18.0815 25.3301L12.1166 31.3008C9.93013 33.4816 8.69569 36.4392 8.68305 39.5273C8.67133 41.8418 9.3393 44.1621 10.6928 46.1543L6.23383 50.6133C6.14659 50.7014 6.09766 50.8204 6.09766 50.9443C6.09766 51.0683 6.14659 51.1873 6.23383 51.2754L8.7182 53.7598C8.81195 53.8535 8.92914 53.8945 9.05219 53.8945C9.17523 53.8945 9.29242 53.8477 9.38617 53.7598L13.8452 49.3008C15.8198 50.6426 18.1166 51.3106 20.4135 51.3106C23.4135 51.3106 26.4135 50.168 28.7045 47.877L34.6752 41.9063C34.8569 41.7246 34.8569 41.4258 34.6752 41.2441L32.1557 38.7246L36.0639 34.8164C36.2455 34.6348 36.2455 34.3359 36.0639 34.1543L33.9194 32.0332ZM25.8803 45.0645C25.1632 45.7853 24.3103 46.3568 23.371 46.746C22.4316 47.1352 21.4244 47.3344 20.4077 47.332C18.3393 47.332 16.3998 46.5293 14.935 45.0645C13.476 43.6055 12.6674 41.6602 12.6674 39.5918C12.6674 37.5234 13.4702 35.584 14.935 34.1191L18.4155 30.6387L29.3608 41.584L25.8803 45.0645ZM53.7709 8.71875L51.2866 6.23438C51.1928 6.14063 51.0756 6.09961 50.9526 6.09961C50.8295 6.09961 50.7123 6.14648 50.6186 6.23438L46.1596 10.6934C44.2212 9.38 41.9327 8.67977 39.5913 8.68359C36.5913 8.68359 33.5913 9.82617 31.3002 12.1172L25.3295 18.0879C25.2423 18.176 25.1934 18.295 25.1934 18.4189C25.1934 18.5429 25.2423 18.6619 25.3295 18.75L41.2495 34.6699C41.3432 34.7637 41.4604 34.8047 41.5834 34.8047C41.7006 34.8047 41.8237 34.7578 41.9174 34.6699L47.8881 28.6992C51.9252 24.6562 52.3998 18.4043 49.312 13.8457L53.7709 9.38672C53.9526 9.19922 53.9526 8.90039 53.7709 8.71875ZM45.0639 25.8809L41.5834 29.3613L30.6381 18.416L34.1186 14.9355C35.5776 13.4766 37.5229 12.668 39.5913 12.668C41.6596 12.668 43.5991 13.4707 45.0639 14.9355C46.5229 16.3945 47.3315 18.3398 47.3315 20.4082C47.3315 22.4766 46.5229 24.416 45.0639 25.8809Z" fill="black"/>
</svg>
