<svg width="60" height="60" viewBox="0 0 60 60" fill="none" xmlns="http://www.w3.org/2000/svg">
<g clip-path="url(#clip0_373_1140)">
<path d="M3.75 13.125C3.75 10.6386 4.73772 8.25403 6.49587 6.49587C8.25403 4.73772 10.6386 3.75 13.125 3.75H39.375C41.8614 3.75 44.246 4.73772 46.0041 6.49587C47.7623 8.25403 48.75 10.6386 48.75 13.125V23.37C47.5275 23.895 46.3837 24.6562 45.3862 25.6537L45 26.04V18.75H7.5V39.375C7.5 40.8668 8.09263 42.2976 9.14752 43.3525C10.2024 44.4074 11.6332 45 13.125 45H26.1975C25.3463 46.125 24.6975 47.3963 24.285 48.75H13.125C10.6386 48.75 8.25403 47.7623 6.49587 46.0041C4.73772 44.246 3.75 41.8614 3.75 39.375V13.125ZM38.8275 30.5475C39.1425 30.8625 39.3187 31.26 39.3638 31.6725L29.8013 41.2388C29.4501 41.2005 29.1169 41.0638 28.84 40.8444C28.5631 40.6251 28.3538 40.3319 28.2363 39.9988C28.1187 39.6657 28.0976 39.3062 28.1755 38.9616C28.2533 38.617 28.4269 38.3015 28.6762 38.0513L34.845 31.875L28.6725 25.7025C28.4982 25.5282 28.3599 25.3212 28.2655 25.0934C28.1712 24.8657 28.1226 24.6215 28.1226 24.375C28.1226 24.1285 28.1712 23.8843 28.2655 23.6566C28.3599 23.4288 28.4982 23.2218 28.6725 23.0475C28.8468 22.8732 29.0538 22.7349 29.2816 22.6405C29.5093 22.5462 29.7535 22.4976 30 22.4976C30.2465 22.4976 30.4907 22.5462 30.7184 22.6405C30.9462 22.7349 31.1532 22.8732 31.3275 23.0475L38.8275 30.5475ZM23.8275 23.0475C24.0021 23.2217 24.1406 23.4286 24.2352 23.6564C24.3297 23.8842 24.3784 24.1284 24.3784 24.375C24.3784 24.6216 24.3297 24.8658 24.2352 25.0936C24.1406 25.3214 24.0021 25.5283 23.8275 25.7025L17.6512 31.875L23.8275 38.0475C24.1796 38.3996 24.3774 38.8771 24.3774 39.375C24.3774 39.8729 24.1796 40.3504 23.8275 40.7025C23.4754 41.0546 22.9979 41.2524 22.5 41.2524C22.0021 41.2524 21.5246 41.0546 21.1725 40.7025L13.6725 33.2025C13.4979 33.0283 13.3594 32.8214 13.2648 32.5936C13.1703 32.3658 13.1216 32.1216 13.1216 31.875C13.1216 31.6284 13.1703 31.3842 13.2648 31.1564C13.3594 30.9286 13.4979 30.7217 13.6725 30.5475L21.1725 23.0475C21.3467 22.8729 21.5536 22.7344 21.7814 22.6398C22.0092 22.5453 22.2534 22.4966 22.5 22.4966C22.7466 22.4966 22.9908 22.5453 23.2186 22.6398C23.4464 22.7344 23.6533 22.8729 23.8275 23.0475ZM29.925 46.4137L48.0375 28.3013C49.3533 26.9864 51.1375 26.2482 52.9977 26.2489C54.8578 26.2496 56.6414 26.9892 57.9562 28.305C59.2711 29.6208 60.0093 31.405 60.0086 33.2652C60.0079 35.1253 59.2683 36.9089 57.9525 38.2238L39.84 56.3325C38.7845 57.3877 37.4626 58.1368 36.015 58.5L30.3975 59.9025C29.8389 60.0417 29.2539 60.0341 28.6991 59.8803C28.1444 59.7266 27.6388 59.432 27.2316 59.0251C26.8243 58.6183 26.5293 58.113 26.375 57.5584C26.2207 57.0038 26.2126 56.4187 26.3512 55.86L27.7575 50.2425C28.1207 48.7949 28.8698 47.473 29.925 46.4175" fill="black"/>
</g>
<defs>
<clipPath id="clip0_373_1140">
<rect width="60" height="60" fill="white"/>
</clipPath>
</defs>
</svg>
