<svg width="60" height="60" viewBox="0 0 60 60" fill="none" xmlns="http://www.w3.org/2000/svg">
<path d="M51.5625 10.3125H34.125L30.1875 18.1875H8.25V49.6875H55.5V10.3125H51.5625ZM51.5625 18.1875H36.1875L38.25 14.25H51.5625V18.1875Z" fill="black"/>
<path d="M33.4165 37.3913C36.7746 38.5704 40.3168 39.1388 43.8752 39.0694C47.4343 39.1358 50.9764 38.5643 54.334 37.3819C56.959 36.36 57.8852 35.2238 57.8852 34.5694V29.5781C56.9685 30.1914 55.9854 30.699 54.9546 31.0913C51.4021 32.3645 47.6486 32.9851 43.8752 32.9231C40.1024 32.9822 36.3497 32.363 32.7959 31.095C31.7642 30.703 30.7809 30.1941 29.8652 29.5781V34.5713C29.8652 35.2369 30.7971 36.375 33.4165 37.3913ZM33.4165 46.8206C34.6028 47.2733 35.8261 47.6221 37.0727 47.8631C41.5688 48.7101 46.1835 48.7101 50.6796 47.8631C51.9262 47.6221 53.1496 47.2733 54.3359 46.8206C56.9609 45.7988 57.8871 44.6625 57.8871 44.0081V39.2419C57.1297 39.6981 56.3335 40.0865 55.5077 40.4025C51.7773 41.7239 47.8396 42.3634 43.8827 42.2906C39.9254 42.361 35.9877 41.7189 32.2577 40.395C31.432 40.079 30.6357 39.6906 29.8784 39.2344V44.0063C29.8652 44.6625 30.7971 45.7931 33.4165 46.8206Z" fill="#868686"/>
<path d="M43.8757 58.125C51.6101 58.125 57.8857 55.6725 57.8857 52.6481V48.66C57.1962 49.0742 56.4745 49.4322 55.7276 49.7306L55.5063 49.8188C51.7766 51.1439 47.8389 51.7873 43.8813 51.7181C39.9238 51.7873 35.9861 51.1439 32.2563 49.8188L32.0351 49.7306C31.2882 49.4322 30.5665 49.0742 29.877 48.66V52.65C29.8657 55.6725 36.1413 58.125 43.8757 58.125Z" fill="#868686"/>
<path d="M43.8752 29.7037C51.6127 29.7037 57.8852 27.2517 57.8852 24.2269C57.8852 21.2021 51.6127 18.75 43.8752 18.75C36.1377 18.75 29.8652 21.2021 29.8652 24.2269C29.8652 27.2517 36.1377 29.7037 43.8752 29.7037Z" fill="#868686"/>
</svg>
