<svg width="60" height="60" viewBox="0 0 60 60" fill="none" xmlns="http://www.w3.org/2000/svg">
<path d="M39.7891 15.0128C39.7891 15.9252 39.9688 16.8285 40.3179 17.6714C40.667 18.5143 41.1787 19.2801 41.8238 19.9252C42.4689 20.5703 43.2348 21.082 44.0776 21.4312C44.9205 21.7803 45.8239 21.96 46.7362 21.96C47.6485 21.96 48.5519 21.7803 49.3948 21.4312C50.2376 21.082 51.0035 20.5703 51.6486 19.9252C52.2937 19.2801 52.8054 18.5143 53.1545 17.6714C53.5037 16.8285 53.6833 15.9252 53.6833 15.0128C53.6833 13.1704 52.9514 11.4033 51.6486 10.1005C50.3457 8.79763 48.5787 8.0657 46.7362 8.0657C44.8937 8.0657 43.1267 8.79763 41.8238 10.1005C40.521 11.4033 39.7891 13.1704 39.7891 15.0128Z" stroke="black" stroke-width="3.29" stroke-linecap="round" stroke-linejoin="round"/>
<path d="M36.3138 35.8585V32.3871C36.3138 29.6222 37.4122 26.9706 39.3673 25.0155C41.3223 23.0605 43.974 21.9621 46.7388 21.9621C49.5037 21.9621 52.1554 23.0605 54.1104 25.0155C56.0655 26.9706 57.1639 29.6222 57.1639 32.3871V35.8585M28.2867 35.8671H57.1639M15.4467 24.0514C17.3932 24.0514 19.26 23.2782 20.6364 21.9018C22.0127 20.5254 22.786 18.6586 22.786 16.7121C22.786 14.7656 22.0127 12.8988 20.6364 11.5225C19.26 10.1461 17.3932 9.37283 15.4467 9.37283C13.5002 9.37283 11.6334 10.1461 10.257 11.5225C8.88067 12.8988 8.10742 14.7656 8.10742 16.7121C8.10742 18.6586 8.88067 20.5254 10.257 21.9018C11.6334 23.2782 13.5002 24.0514 15.4467 24.0514Z" stroke="black" stroke-width="3.29" stroke-linecap="round" stroke-linejoin="round"/>
<path d="M28.2858 36.8957C28.2858 33.4898 26.9328 30.2233 24.5245 27.8149C22.1161 25.4066 18.8497 24.0536 15.4437 24.0536C12.0378 24.0536 8.77131 25.4066 6.36294 27.8149C3.95457 30.2233 2.60156 33.4898 2.60156 36.8957V42.3986H8.10871L9.94299 57.0728H20.9487L22.783 42.3986H28.2858V36.8957Z" stroke="black" stroke-width="3.29" stroke-linecap="round" stroke-linejoin="round"/>
</svg>
