<svg width="60" height="60" viewBox="0 0 60 60" fill="none" xmlns="http://www.w3.org/2000/svg">
<path d="M15 24.7125C14.0176 24.9979 13.07 25.392 12.175 25.8875L12.5 31.55L6.8 31.25C6.30446 32.145 5.91035 33.0926 5.625 34.075L9.8375 37.8875L5.625 41.6375C5.90732 42.621 6.30156 43.5689 6.8 44.4625L12.5 44.2375L12.2125 49.9125C13.1081 50.4037 14.0556 50.7936 15.0375 51.075L18.85 46.8625L22.6 51.075C23.5833 50.7977 24.5313 50.4076 25.425 49.9125L25.1375 44.2375L30.8125 44.525C31.3076 43.6313 31.6977 42.6833 31.975 41.7L27.7625 37.95L31.975 34.1375C31.702 33.1346 31.3162 32.166 30.825 31.25L25.15 31.5375L25.4375 25.875C24.5439 25.3766 23.596 24.9823 22.6125 24.7L18.8625 28.9125L15 24.7125Z" stroke="black" stroke-width="2.25" stroke-linecap="round" stroke-linejoin="round"/>
<path d="M18.8133 42.85C21.5471 42.85 23.7633 40.6338 23.7633 37.9C23.7633 35.1662 21.5471 32.95 18.8133 32.95C16.0795 32.95 13.8633 35.1662 13.8633 37.9C13.8633 40.6338 16.0795 42.85 18.8133 42.85Z" stroke="black" stroke-width="2.25" stroke-linecap="round" stroke-linejoin="round"/>
<path d="M40.3867 5.92499C39.4005 6.20548 38.4487 6.5954 37.5492 7.08749L37.8492 12.7625L32.1742 12.475C31.6791 13.3687 31.289 14.3167 31.0117 15.3L35.2117 19.05L31.0117 22.8625C31.2887 23.8659 31.6787 24.8346 32.1742 25.75L37.8492 25.4625L37.5492 31.125C38.4482 31.6214 39.4 32.0155 40.3867 32.3L44.1367 28.0875L47.8867 32.3C48.8692 32.0146 49.8167 31.6205 50.7117 31.125L50.4992 25.45L56.1617 25.7375C56.6573 24.8425 57.0514 23.8949 57.3367 22.9125L53.1242 19.1L57.3367 15.35C57.0544 14.3665 56.6602 13.4186 56.1617 12.525L50.4992 12.7625L50.7867 7.08749C49.9031 6.59881 48.9683 6.20896 47.9992 5.92499L44.2492 10.1375L40.3867 5.92499Z" stroke="black" stroke-width="2.25" stroke-linecap="round" stroke-linejoin="round"/>
<path d="M44.1883 24.05C46.9221 24.05 49.1383 21.8338 49.1383 19.1C49.1383 16.3662 46.9221 14.15 44.1883 14.15C41.4545 14.15 39.2383 16.3662 39.2383 19.1C39.2383 21.8338 41.4545 24.05 44.1883 24.05Z" stroke="black" stroke-width="2.25" stroke-linecap="round" stroke-linejoin="round"/>
</svg>
