<svg width="60" height="60" viewBox="0 0 60 60" fill="none" xmlns="http://www.w3.org/2000/svg">
<path d="M35 45.8C32.2733 44.4821 29.9315 42.4847 28.2 40H7.5V10H52.5V15.65C54.523 17.0737 56.2261 18.9045 57.5 21.025V10C57.5 8.67392 56.9732 7.40215 56.0355 6.46447C55.0979 5.52678 53.8261 5 52.5 5H7.5C6.17392 5 4.90215 5.52678 3.96447 6.46447C3.02678 7.40215 2.5 8.67392 2.5 10V40C2.5 41.3261 3.02678 42.5979 3.96447 43.5355C4.90215 44.4732 6.17392 45 7.5 45H25V50H20V55H40V50H35V45.8Z" fill="black"/>
<path d="M42.5 15C39.5333 15 36.6332 15.8797 34.1665 17.528C31.6997 19.1762 29.7771 21.5189 28.6418 24.2597C27.5065 27.0006 27.2094 30.0166 27.7882 32.9264C28.367 35.8361 29.7956 38.5088 31.8934 40.6066C33.9912 42.7044 36.6639 44.133 39.5737 44.7118C42.4834 45.2906 45.4994 44.9935 48.2403 43.8582C50.9811 42.7229 53.3238 40.8003 54.972 38.3336C56.6203 35.8668 57.5 32.9667 57.5 30C57.5 26.0218 55.9197 22.2064 53.1066 19.3934C50.2936 16.5804 46.4783 15 42.5 15ZM42.5 33.75C41.7583 33.75 41.0333 33.5301 40.4166 33.118C39.7999 32.706 39.3193 32.1203 39.0355 31.4351C38.7516 30.7498 38.6774 29.9958 38.8221 29.2684C38.9668 28.541 39.3239 27.8728 39.8484 27.3483C40.3728 26.8239 41.041 26.4667 41.7684 26.3221C42.4958 26.1774 43.2498 26.2516 43.9351 26.5355C44.6203 26.8193 45.206 27.2999 45.618 27.9166C46.0301 28.5333 46.25 29.2583 46.25 30C46.25 30.9946 45.8549 31.9484 45.1517 32.6517C44.4484 33.3549 43.4946 33.75 42.5 33.75Z" fill="black"/>
</svg>
