<svg width="60" height="60" viewBox="0 0 60 60" fill="none" xmlns="http://www.w3.org/2000/svg">
<path d="M42.5004 30V42.5004M32.4996 42.5004V37.5M7.5 37.5L14.5752 30.4248M20.0004 17.4996C18.0113 17.4996 16.1036 18.2897 14.6971 19.6963C13.2906 21.1028 12.5004 23.0104 12.5004 24.9996C12.5004 26.9887 13.2906 28.8964 14.6971 30.3029C16.1036 31.7094 18.0113 32.4996 20.0004 32.4996C21.9895 32.4996 23.8972 31.7094 25.3037 30.3029C26.7102 28.8964 27.5004 26.9887 27.5004 24.9996C27.5004 23.0104 26.7102 21.1028 25.3037 19.6963C23.8972 18.2897 21.9895 17.4996 20.0004 17.4996Z" stroke="#404040" stroke-width="2.4" stroke-linecap="round" stroke-linejoin="round"/>
<path d="M20.0008 7.5H50.0008C50.6637 7.5 51.2995 7.76335 51.7683 8.23212C52.2371 8.70088 52.5004 9.33667 52.5004 9.9996V50.0004C52.5004 50.6633 52.2371 51.2991 51.7683 51.7679C51.2995 52.2367 50.6637 52.5 50.0008 52.5H20.0008C19.6724 52.5002 19.3473 52.4356 19.0439 52.3101C18.7405 52.1845 18.4648 52.0004 18.2325 51.7683C18.0003 51.5362 17.8161 51.2606 17.6904 50.9572C17.5647 50.6539 17.5 50.3288 17.5 50.0004V42.5004" stroke="black" stroke-width="3.4" stroke-linecap="round" stroke-linejoin="round"/>
</svg>
