<svg width="60" height="60" viewBox="0 0 60 60" fill="none" xmlns="http://www.w3.org/2000/svg">
<path d="M7.0125 30L9.6375 19.725C9.83691 18.9182 10.2987 18.2005 10.9503 17.6846C11.6019 17.1687 12.4065 16.884 13.2375 16.875H54.2625C54.8313 16.8754 55.3926 17.0053 55.9038 17.2547C56.415 17.5041 56.8628 17.8665 57.2132 18.3145C57.5637 18.7625 57.8077 19.2844 57.9266 19.8406C58.0456 20.3968 58.0365 20.9728 57.9 21.525L57.0787 24.8062M22.5 50.625H7.5C6.00816 50.625 4.57742 50.0324 3.52252 48.9775C2.46763 47.9226 1.875 46.4918 1.875 45V13.125C1.875 12.1304 2.27009 11.1766 2.97335 10.4733C3.67661 9.77009 4.63044 9.375 5.625 9.375H24.375C25.3696 9.375 26.3234 9.77009 27.0266 10.4733C27.7299 11.1766 28.125 12.1304 28.125 13.125V16.875" stroke="black" stroke-width="3.75" stroke-linecap="round" stroke-linejoin="round"/>
<path d="M28.125 46.2488L33.8925 52.5L47.7412 37.5M41.97 49.9988L44.28 52.5L58.125 37.5" stroke="#868686" stroke-width="3.75" stroke-linecap="round" stroke-linejoin="round"/>
</svg>
