<svg xmlns="http://www.w3.org/2000/svg" fill="none" viewBox="69.5 81.5 407.53 110">
<path fill-rule="evenodd" clip-rule="evenodd" d="M71.0494 82C69.5411 83.2318 69.7638 83.8396 71.0494 84.8531C74.7703 84.1874 82.4412 84.2254 83.3571 89.7034C84.2731 95.1814 83.7388 137.826 83.3571 158.464C83.548 160.746 80.7811 167.023 71.0494 164.455C69.6173 165.905 69.7159 166.577 71.0494 167.594C71.0494 167.594 111.503 169.02 120.28 168.164C120.357 168.157 120.43 168.15 120.502 168.143C120.584 168.135 120.664 168.127 120.74 168.12C121.546 168.042 122.057 167.993 122.564 167.912C123.447 167.771 124.314 167.533 126.694 166.881L126.712 166.876C126.939 166.814 127.18 166.748 127.436 166.678V189.848C128.39 190.989 129.53 191.734 130.871 189.848C130.923 189.565 130.972 189.288 131.019 189.017C131.558 185.917 131.945 183.686 136.595 184.998C141.652 186.424 142.702 186.71 142.702 186.71L149.476 188.992C149.476 188.992 159.955 191.438 166.363 189.848C178.1 186.936 186.962 181.057 187.83 167.594C188.615 157.097 187.815 150.733 159.702 136.209C160.847 132.585 161.497 128.68 161.497 124.512C161.707 115.665 160.923 111.303 157.204 105.06C158.721 105.187 160.342 105.478 162.07 105.966C172.088 108.819 176.95 115.625 178.957 129.077C180.075 130.25 180.702 130.318 181.819 129.077V99.9747C180.675 98.6465 179.954 98.7909 178.957 99.9747C178.168 103.299 176.476 105.966 173.519 105.966C172.682 105.966 170.748 105.147 168.336 104.126C164.424 102.469 159.256 100.28 155.487 100.196C150.048 91.4153 136.595 82 121.425 82H71.0494ZM136.595 105.966C130.027 110.688 126.674 116.475 127.436 124.512C128.293 133.549 136.178 140.235 142.893 141.916C136.325 158.121 112.34 167.948 96.2376 161.031V127.65H109.976C115.056 128.949 116.728 131.168 116.846 138.777C118.013 140.129 118.734 140.362 120.281 138.777V109.961C118.84 108.451 118.099 108.548 116.846 109.961C116.401 116.797 115.113 119.625 109.976 121.944H96.2376V89.7034C104.889 86.1075 109.842 85.6948 118.849 87.4209C130.906 91.5859 136.056 94.9811 142.034 103.108C141.81 103.207 141.588 103.304 141.365 103.402C139.83 104.073 138.296 104.744 136.595 105.966ZM138.313 119.091C138.514 124.168 141.44 127.917 146.327 129.362C146.538 121.636 146.159 116.092 144.896 108.467C142.893 109.961 138.119 114.218 138.313 119.091ZM150.334 183.571C140.878 180.427 136.251 177.586 133.486 164.455C140.103 161.44 147.279 156.311 152.711 149.334C169.236 157.635 174.211 161.994 176.095 169.306C176.939 177.913 172.771 180.953 166.363 183.571C160.571 185.938 156.273 185.545 150.334 183.571Z" fill="black"/>
<path d="M71.0494 82C69.5411 83.2318 69.7638 83.8396 71.0494 84.8531C74.7703 84.1874 82.4412 84.2254 83.3571 89.7034C84.2731 95.1814 83.7388 137.826 83.3571 158.464C83.548 160.746 80.7811 167.023 71.0494 164.455C69.6173 165.905 69.7159 166.577 71.0494 167.594C71.0494 167.594 111.503 169.02 120.28 168.164C120.357 168.157 120.43 168.15 120.502 168.143C120.584 168.135 120.664 168.127 120.74 168.12C121.546 168.042 122.057 167.993 122.564 167.912C123.447 167.771 124.314 167.533 126.694 166.881M71.0494 82C71.0494 82 106.255 82 121.425 82M71.0494 82H121.425M146.327 129.362C141.44 127.917 138.514 124.168 138.313 119.091C138.119 114.218 142.893 109.961 144.896 108.467M146.327 129.362C145.464 136.42 144.766 137.798 142.893 141.916M146.327 129.362C146.538 121.636 146.159 116.092 144.896 108.467M142.893 141.916C136.178 140.235 128.293 133.549 127.436 124.512C126.674 116.475 130.027 110.688 136.595 105.966C138.296 104.744 139.83 104.073 141.365 103.402C141.588 103.304 141.81 103.207 142.034 103.108M142.893 141.916C136.325 158.121 112.34 167.948 96.2376 161.031V127.65H109.976C115.056 128.949 116.728 131.168 116.846 138.777C118.013 140.129 118.734 140.362 120.281 138.777V109.961C118.84 108.451 118.099 108.548 116.846 109.961C116.401 116.797 115.113 119.625 109.976 121.944H96.2376V89.7034C104.889 86.1075 109.842 85.6948 118.849 87.4209C130.906 91.5859 136.056 94.9811 142.034 103.108M121.425 82C136.595 82 150.048 91.4153 155.487 100.196M155.487 100.196C151.21 100.101 146.794 100.995 142.034 103.108M155.487 100.196C159.256 100.28 164.424 102.469 168.336 104.126C170.748 105.147 172.682 105.966 173.519 105.966C176.476 105.966 178.168 103.299 178.957 99.9747C179.954 98.7909 180.675 98.6465 181.819 99.9747V129.077C180.702 130.318 180.075 130.25 178.957 129.077C176.95 115.625 172.088 108.819 162.07 105.966C160.342 105.478 158.721 105.187 157.204 105.06M157.204 105.06C160.923 111.303 161.707 115.665 161.497 124.512C161.497 128.68 160.847 132.585 159.702 136.209M157.204 105.06C151.899 104.619 146.899 106.973 144.896 108.467M159.702 136.209C187.815 150.733 188.615 157.097 187.83 167.594C186.962 181.057 178.1 186.936 166.363 189.848C159.955 191.438 149.476 188.992 149.476 188.992L142.702 186.71C142.702 186.71 141.652 186.424 136.595 184.998C131.945 183.686 131.558 185.917 131.019 189.017C130.972 189.288 130.923 189.565 130.871 189.848C129.53 191.734 128.39 190.989 127.436 189.848M159.702 136.209C158.152 141.113 155.695 145.502 152.711 149.334M127.436 189.848C127.436 189.848 127.436 175.726 127.436 166.678M127.436 189.848V166.678M127.436 166.678C129.348 166.155 131.389 165.411 133.486 164.455M127.436 166.678C127.18 166.748 126.939 166.814 126.712 166.876M133.486 164.455C136.251 177.586 140.878 180.427 150.334 183.571C156.273 185.545 160.571 185.938 166.363 183.571C172.771 180.953 176.939 177.913 176.095 169.306C174.211 161.994 169.236 157.635 152.711 149.334M133.486 164.455C140.103 161.44 147.279 156.311 152.711 149.334M126.694 166.881L126.712 166.876M126.694 166.881C126.7 166.879 126.706 166.878 126.712 166.876" stroke="white"/>
<path d="M210.689 148.5V126.304H217.513L224.867 137.659V126.304H228.204V148.5H224.585L213.977 132.28V148.5H210.689ZM238.364 132.928C238.364 133.99 238.525 134.837 238.846 135.468C239.167 136.088 239.593 136.397 240.124 136.397C240.81 136.397 241.353 135.999 241.751 135.202C242.16 134.394 242.365 133.31 242.365 131.948C242.365 130.875 242.199 130.028 241.867 129.408C241.535 128.788 241.092 128.479 240.539 128.479C239.864 128.479 239.333 128.877 238.945 129.674C238.558 130.46 238.364 131.544 238.364 132.928ZM240.771 138.805C240.296 138.938 239.869 139.037 239.493 139.104C239.117 139.159 238.774 139.187 238.464 139.187C236.66 139.187 235.238 138.677 234.197 137.659C233.157 136.63 232.637 135.235 232.637 133.476C232.637 131.317 233.434 129.502 235.027 128.03C236.632 126.558 238.613 125.822 240.971 125.822C243.24 125.822 245.049 126.453 246.399 127.715C247.75 128.977 248.425 130.67 248.425 132.795C248.425 134.588 247.694 137.012 246.233 140.066C246.101 140.343 246.001 140.548 245.935 140.681L242.232 148.5H235.907L240.771 138.805ZM269.459 129.06V136.729H270.854C272.337 136.729 273.432 136.447 274.141 135.883C274.849 135.318 275.203 134.444 275.203 133.26C275.203 132.009 274.788 130.996 273.958 130.222C273.139 129.447 272.06 129.06 270.721 129.06H269.459ZM263.416 148.5V126.304H272.281C275.126 126.304 277.334 126.929 278.905 128.18C280.477 129.43 281.263 131.185 281.263 133.442C281.263 135.291 280.632 136.763 279.37 137.858C278.119 138.943 276.426 139.485 274.29 139.485H269.459V148.5H263.416ZM292.319 141.295C292.319 139.292 292.115 137.786 291.705 136.779C291.307 135.772 290.698 135.269 289.879 135.269C289.115 135.269 288.545 135.75 288.169 136.713C287.793 137.665 287.604 139.109 287.604 141.046C287.604 143.06 287.809 144.576 288.219 145.595C288.628 146.602 289.237 147.105 290.045 147.105C290.809 147.105 291.379 146.624 291.755 145.661C292.131 144.698 292.319 143.243 292.319 141.295ZM289.979 149.048C287.82 149.048 286.022 148.262 284.583 146.69C283.144 145.119 282.425 143.149 282.425 140.78C282.425 138.522 283.111 136.713 284.483 135.352C285.856 133.99 287.688 133.31 289.979 133.31C292.126 133.31 293.913 134.101 295.341 135.684C296.78 137.255 297.499 139.225 297.499 141.594C297.499 143.874 296.818 145.689 295.457 147.039C294.107 148.378 292.281 149.048 289.979 149.048ZM318.749 133.774H321.256L318.068 145.678C317.758 146.807 317.327 147.653 316.773 148.218C316.231 148.771 315.562 149.048 314.765 149.048C313.99 149.048 313.348 148.777 312.839 148.234C312.33 147.692 311.915 146.851 311.594 145.711L310.166 140.481L308.854 145.678C308.567 146.785 308.146 147.626 307.593 148.201C307.039 148.766 306.37 149.048 305.584 149.048C304.809 149.048 304.167 148.782 303.658 148.251C303.149 147.72 302.723 146.873 302.38 145.711L298.927 133.774H304.023L306.979 144.864L308.987 136.563L308.141 133.774H313.204L316.06 144.416L318.749 133.774ZM327.282 148.5C326.142 148.5 325.334 148.251 324.858 147.753C324.394 147.244 324.161 146.369 324.161 145.13V137.145C324.161 135.905 324.394 135.036 324.858 134.538C325.334 134.029 326.142 133.774 327.282 133.774H334.122V135.982H330.486C329.878 135.982 329.468 136.093 329.258 136.314C329.059 136.536 328.959 136.973 328.959 137.626V140.033H333.574V142.241H328.959V144.698C328.959 145.34 329.059 145.766 329.258 145.977C329.457 146.187 329.867 146.292 330.486 146.292H334.354V148.5H327.282ZM338.14 148.5V133.774H344.564C346.546 133.774 348.051 134.151 349.08 134.903C350.109 135.645 350.624 136.729 350.624 138.157C350.624 139.142 350.392 139.945 349.927 140.564C349.473 141.184 348.787 141.621 347.868 141.876L352.185 148.5H346.573L343.236 141.561V141.295C344.155 141.162 344.825 140.869 345.245 140.415C345.677 139.95 345.893 139.292 345.893 138.439C345.893 137.576 345.666 136.923 345.212 136.48C344.758 136.038 344.089 135.816 343.203 135.816C343.07 135.816 342.965 135.822 342.888 135.833C342.81 135.833 342.738 135.839 342.672 135.85V148.5H338.14ZM367.275 142.855C367.729 143.929 368.294 144.754 368.969 145.329C369.655 145.905 370.408 146.192 371.227 146.192C372.068 146.192 372.759 145.943 373.302 145.445C373.844 144.947 374.115 144.322 374.115 143.569C374.115 142.961 373.91 142.413 373.501 141.926C373.091 141.428 372.422 140.924 371.492 140.415C371.293 140.304 371 140.144 370.612 139.934C368.598 138.86 367.386 138.146 366.977 137.792C366.135 137.062 365.538 136.337 365.184 135.617C364.84 134.887 364.669 134.035 364.669 133.061C364.669 130.924 365.383 129.181 366.811 127.831C368.249 126.47 370.12 125.789 372.422 125.789C374.038 125.789 375.454 126.16 376.672 126.901C377.889 127.632 378.841 128.689 379.527 130.072L377.004 131.832C376.561 130.77 375.997 129.973 375.311 129.441C374.635 128.91 373.827 128.645 372.887 128.645C372.101 128.645 371.448 128.888 370.928 129.375C370.419 129.862 370.164 130.471 370.164 131.201C370.164 131.821 370.374 132.363 370.795 132.828C371.227 133.293 372.051 133.835 373.269 134.455C373.357 134.499 373.495 134.571 373.684 134.671C375.952 135.8 377.319 136.558 377.784 136.945C378.603 137.62 379.19 138.334 379.544 139.087C379.909 139.828 380.092 140.697 380.092 141.693C380.092 143.874 379.328 145.65 377.801 147.022C376.285 148.395 374.309 149.081 371.874 149.081C370.136 149.081 368.598 148.699 367.259 147.936C365.931 147.172 364.918 146.093 364.221 144.698L367.275 142.855ZM386.55 148.5C385.41 148.5 384.602 148.251 384.126 147.753C383.661 147.244 383.429 146.369 383.429 145.13V137.145C383.429 135.905 383.661 135.036 384.126 134.538C384.602 134.029 385.41 133.774 386.55 133.774H393.39V135.982H389.754C389.145 135.982 388.736 136.093 388.525 136.314C388.326 136.536 388.227 136.973 388.227 137.626V140.033H392.842V142.241H388.227V144.698C388.227 145.34 388.326 145.766 388.525 145.977C388.725 146.187 389.134 146.292 389.754 146.292H393.622V148.5H386.55ZM397.407 148.5V133.774H403.832C405.813 133.774 407.318 134.151 408.348 134.903C409.377 135.645 409.892 136.729 409.892 138.157C409.892 139.142 409.659 139.945 409.194 140.564C408.741 141.184 408.054 141.621 407.136 141.876L411.452 148.5H405.841L402.504 141.561V141.295C403.423 141.162 404.092 140.869 404.513 140.415C404.944 139.95 405.16 139.292 405.16 138.439C405.16 137.576 404.933 136.923 404.479 136.48C404.026 136.038 403.356 135.816 402.471 135.816C402.338 135.816 402.233 135.822 402.155 135.833C402.078 135.833 402.006 135.839 401.939 135.85V148.5H397.407ZM425.646 133.774L422.409 145.678C422.088 146.873 421.657 147.736 421.114 148.268C420.572 148.788 419.847 149.048 418.939 149.048C418.021 149.048 417.296 148.799 416.765 148.301C416.244 147.803 415.802 146.939 415.437 145.711L411.983 133.774H417.08L420.135 145.13L423.123 133.774H425.646ZM428.552 148.5V133.774H433.35V148.5H428.552ZM428.452 127.731C428.452 127.034 428.696 126.442 429.183 125.955C429.681 125.457 430.273 125.208 430.959 125.208C431.667 125.208 432.265 125.451 432.752 125.938C433.239 126.425 433.482 127.023 433.482 127.731C433.482 128.429 433.233 129.021 432.735 129.508C432.248 129.995 431.656 130.238 430.959 130.238C430.273 130.238 429.681 129.995 429.183 129.508C428.696 129.01 428.452 128.418 428.452 127.731ZM450.084 144.831C449.464 146.203 448.629 147.249 447.577 147.969C446.526 148.688 445.303 149.048 443.908 149.048C441.761 149.048 440.007 148.323 438.646 146.873C437.295 145.423 436.62 143.542 436.62 141.229C436.62 138.904 437.317 137.006 438.712 135.534C440.118 134.051 441.894 133.31 444.041 133.31C445.524 133.31 446.764 133.631 447.76 134.272C448.756 134.903 449.475 135.839 449.918 137.078L447.843 138.273C447.61 137.355 447.256 136.669 446.78 136.215C446.315 135.75 445.74 135.518 445.054 135.518C444.024 135.518 443.233 135.999 442.68 136.962C442.137 137.914 441.866 139.303 441.866 141.129C441.866 143.088 442.099 144.516 442.563 145.412C443.028 146.298 443.77 146.74 444.788 146.74C445.541 146.74 446.227 146.469 446.847 145.927C447.466 145.384 447.915 144.654 448.191 143.735L450.084 144.831ZM456.077 148.5C454.937 148.5 454.129 148.251 453.653 147.753C453.188 147.244 452.956 146.369 452.956 145.13V137.145C452.956 135.905 453.188 135.036 453.653 134.538C454.129 134.029 454.937 133.774 456.077 133.774H462.917V135.982H459.281C458.673 135.982 458.263 136.093 458.053 136.314C457.854 136.536 457.754 136.973 457.754 137.626V140.033H462.369V142.241H457.754V144.698C457.754 145.34 457.854 145.766 458.053 145.977C458.252 146.187 458.661 146.292 459.281 146.292H463.149V148.5H456.077ZM466.42 148.5V146.292H470.338C471.245 146.292 471.876 146.17 472.23 145.927C472.596 145.672 472.778 145.252 472.778 144.665C472.778 143.912 472.042 143.315 470.57 142.872C470.128 142.739 469.779 142.634 469.524 142.557C468.075 142.081 467.078 141.544 466.536 140.946C466.005 140.349 465.739 139.535 465.739 138.506C465.739 136.967 466.243 135.794 467.25 134.986C468.268 134.178 469.74 133.774 471.666 133.774H475.501V135.982H472.181C471.638 135.982 471.212 136.082 470.902 136.281C470.592 136.469 470.438 136.735 470.438 137.078C470.438 137.687 471.079 138.19 472.363 138.589C472.651 138.688 472.867 138.76 473.011 138.805C474.582 139.314 475.645 139.895 476.198 140.548C476.752 141.201 477.028 142.119 477.028 143.304C477.028 144.92 476.519 146.192 475.501 147.122C474.494 148.041 473.099 148.5 471.317 148.5H466.42Z" fill="black"/>
</svg>