<svg width="251" height="196" viewBox="0 0 251 196" fill="none" xmlns="http://www.w3.org/2000/svg">
<path d="M127.466 30.954L131.781 28.3149C135.177 26.2383 137.431 22.4701 137.431 18.25C137.431 11.7163 132.114 6.38892 125.5 6.38892C118.886 6.38892 113.569 11.7163 113.569 18.25C113.569 22.5059 115.816 26.2342 119.219 28.3149L123.534 30.954L121.264 35.4745L96.2951 85.2141C90.7587 96.2428 76.431 99.3748 66.7774 91.6947L66.7735 91.6916L27.947 60.7455L23.7727 57.4184L26.9734 53.1466C28.4765 51.1405 29.3611 48.6842 29.3611 46.0278C29.3611 39.494 24.0441 34.1667 17.4306 34.1667C10.817 34.1667 5.5 39.494 5.5 46.0278C5.5 52.5616 10.817 57.8889 17.4306 57.8889H17.7356H22.3226L23.1462 62.4014L43.0606 171.516L43.0615 171.521C44.9807 182.087 54.2399 189.833 65.1031 189.833H185.897C196.712 189.833 205.977 182.133 207.939 171.516L207.941 171.506M127.466 30.954L213.35 172.503L207.941 171.506M127.466 30.954L129.736 35.4745L154.705 85.2141C160.241 96.2428 174.569 99.3748 184.223 91.6947L184.226 91.6916L223.053 60.7455L227.227 57.4184L224.027 53.1466C222.524 51.1405 221.639 48.6842 221.639 46.0278C221.639 39.494 226.956 34.1667 233.569 34.1667C240.183 34.1667 245.5 39.494 245.5 46.0278C245.5 52.5616 240.183 57.8889 233.569 57.8889H233.264H228.677L227.854 62.4014L207.941 171.506M127.466 30.954L207.941 171.506" stroke="#595A5A" stroke-width="11"/>
</svg>
