<svg xmlns="http://www.w3.org/2000/svg" fill="none" viewBox="21 15 264 277.17">
<path d="M146.605 23.2237C150.724 21.5921 155.29 21.5921 159.395 23.2237C172.632 28.5001 175.224 48.8031 190.843 49.9347C201.843 50.7242 212.646 41.5661 223.685 44.3162C228.133 45.4215 231.975 48.2636 234.396 52.2111C241.778 64.3429 232.251 82.1721 244.291 92.2381C252.66 99.2119 266.489 98.3172 273.765 106.883C276.831 110.488 278.331 115.199 277.936 119.949C276.779 134.068 258.778 142.897 262.739 158.108C265.463 168.634 277.015 176.042 277.936 187.213C278.135 189.559 277.868 191.92 277.152 194.162C276.437 196.404 275.286 198.483 273.765 200.28C264.62 211.043 244.857 207.503 239.159 222.083C235.146 232.32 240.291 245.267 234.396 254.938C232.007 258.883 228.158 261.724 223.685 262.846C209.975 266.268 196.053 251.53 182.869 259.846C173.448 265.768 170.079 279.689 159.395 283.926C155.292 285.58 150.708 285.58 146.605 283.926C135.921 279.689 132.552 265.768 123.131 259.846C110.104 251.636 95.7884 266.202 82.3145 262.846C77.844 261.728 73.9953 258.891 71.6038 254.952C64.2221 242.82 73.7486 224.991 61.7089 214.925C53.3403 207.951 39.5111 208.845 32.2346 200.28C30.7143 198.483 29.5633 196.404 28.8476 194.162C28.1318 191.92 27.8654 189.559 28.0635 187.213C28.9846 176.042 40.5243 168.634 43.2743 158.108C47.1823 143.055 29.2083 133.857 28.0635 119.949C27.8654 117.604 28.1318 115.243 28.8476 113.001C29.5633 110.759 30.7143 108.68 32.2346 106.883C41.3795 96.1198 61.1431 99.6725 66.8405 85.0801C70.8538 74.8431 65.7089 61.8955 71.6038 52.2242C74.0117 48.2636 77.8539 45.4215 82.3145 44.3162C93.3673 41.553 104.157 50.7374 115.157 49.9347C130.776 48.8031 133.368 28.5001 146.605 23.2237Z" stroke="#595A5A" stroke-width="14" stroke-linecap="round" stroke-linejoin="round"/>
<path d="M113.527 171.121C113.527 171.121 125.041 171.121 136.554 193.056C136.554 193.056 173.134 138.226 205.634 127.265" stroke="#595A5A" stroke-width="14" stroke-linecap="round" stroke-linejoin="round"/>
</svg>