<svg width="200" height="200" viewBox="0 0 200 200" fill="none" xmlns="http://www.w3.org/2000/svg">
<g clip-path="url(#clip0_327_1732)">
<path d="M193.75 112.5C190.569 112.5 187.5 115.238 187.5 118.75V187.5H12.5V12.5H81.25C84.5687 12.5 87.5 9.56875 87.5 6.25C87.5 2.93125 84.375 0 81.25 0H12.5C5.59375 0 0 5.59375 0 12.5V187.5C0 194.406 5.59375 200 12.5 200H187.5C194.406 200 200 194.406 200 187.5V118.656C200 115.194 197.462 112.5 193.75 112.5Z" fill="#121313" fill-opacity="0.7"/>
<path d="M193.75 0H131.25C127.8 0 125 2.8 125 6.25C125 9.7 127.8 12.5 131.25 12.5H178.725L51.7621 139.456C49.3371 141.881 49.3371 145.812 51.7621 148.238C54.1871 150.663 58.1184 150.663 60.5371 148.238L187.5 21.275V68.75C187.5 72.2 190.3 75 193.75 75C197.2 75 200 72.2 200 68.75V6.25C200 2.8875 197.112 0 193.75 0Z" fill="#121313" fill-opacity="0.7"/>
</g>
<defs>
<clipPath id="clip0_327_1732">
<rect width="200" height="200" fill="white"/>
</clipPath>
</defs>
</svg>
