<svg width="300" height="300" viewBox="0 0 300 300" fill="none" xmlns="http://www.w3.org/2000/svg">
<path d="M50 137.5H250M150 262.5V25M50 140.65C50 236.737 136.475 270.487 148.588 274.75C149.529 275.083 150.471 275.083 151.413 274.75C163.55 270.625 250 237.725 250 140.663V53.8C250.003 52.6829 249.631 51.5971 248.945 50.7158C248.258 49.8344 247.296 49.2084 246.213 48.9375L151.213 25.15C150.416 24.951 149.584 24.951 148.788 25.15L53.7875 48.9375C52.7037 49.2084 51.7419 49.8344 51.0554 50.7158C50.3689 51.5971 49.9974 52.6829 50 53.8V140.65Z" stroke="#595A5A" stroke-width="11" stroke-miterlimit="10" stroke-linecap="round" stroke-linejoin="round"/>
</svg>
