<svg width="212" height="262" viewBox="0 0 212 262" fill="none" xmlns="http://www.w3.org/2000/svg">
<path d="M6.00001 118.5H206M106 243.5V6M6.00001 121.65C6.00001 217.737 92.475 251.487 104.588 255.75C105.529 256.083 106.471 256.083 107.413 255.75C119.55 251.625 206 218.725 206 121.663V34.8C206.003 33.6829 205.631 32.5971 204.945 31.7158C204.258 30.8344 203.296 30.2084 202.213 29.9375L107.213 6.15C106.416 5.95101 105.584 5.95101 104.788 6.15L9.78751 29.9375C8.70374 30.2084 7.74189 30.8344 7.05542 31.7158C6.36895 32.5971 5.99739 33.6829 6.00001 34.8V121.65Z" stroke="#595A5A" stroke-width="11" stroke-miterlimit="10" stroke-linecap="round" stroke-linejoin="round"/>
</svg>
