<svg xmlns="http://www.w3.org/2000/svg" fill="none" viewBox="8 8 250 250">
<path d="M243.5 20V79.5H24V20H243.5ZM237.167 8H28.8333C23.308 8 18.0089 10.1949 14.1019 14.1019C10.1949 18.0089 8 23.308 8 28.8333V70.5C8 76.0253 10.1949 81.3244 14.1019 85.2314C18.0089 89.1384 23.308 91.3333 28.8333 91.3333H237.167C242.692 91.3333 247.991 89.1384 251.898 85.2314C255.805 81.3244 258 76.0253 258 70.5V28.8333C258 23.308 255.805 18.0089 251.898 14.1019C247.991 10.1949 242.692 8 237.167 8ZM80.5 123V247.167H18.8333V123H80.5ZM70.5 112.167H28.8333C23.308 112.167 18.0089 114.362 14.1019 118.269C10.1949 122.176 8 127.475 8 133V237.167C8 242.692 10.1949 247.991 14.1019 251.898C18.0089 255.805 23.308 258 28.8333 258H70.5C76.0253 258 81.3244 255.805 85.2314 251.898C89.1384 247.991 91.3333 242.692 91.3333 237.167V133C91.3333 127.475 89.1384 122.176 85.2314 118.269C81.3244 114.362 76.0253 112.167 70.5 112.167ZM247.167 123V247.167H123V123H247.167ZM237.167 112.167H133C127.475 112.167 122.176 114.362 118.269 118.269C114.362 122.176 112.167 127.475 112.167 133V237.167C112.167 242.692 114.362 247.991 118.269 251.898C122.176 255.805 127.475 258 133 258H237.167C242.692 258 247.991 255.805 251.898 251.898C255.805 247.991 258 242.692 258 237.167V133C258 127.475 255.805 122.176 251.898 118.269C247.991 114.362 242.692 112.167 237.167 112.167Z" fill="#595A5A"/>
</svg>