<svg xmlns="http://www.w3.org/2000/svg" fill="none" viewBox="51.46 187.09 397.08 138.71">
<path d="M148.12 310.518V308.706H160.769V310.518H155.466V325.572H153.423V310.518H148.12ZM163.921 325.572V308.706H165.963V316.216H174.956V308.706H176.998V325.572H174.956V318.028H165.963V325.572H163.921ZM181.087 325.572V308.706H191.266V310.518H183.129V316.216H190.739V318.028H183.129V323.76H191.397V325.572H181.087ZM200.547 310.518V308.706H213.196V310.518H207.892V325.572H205.85V310.518H200.547ZM215.069 325.572H212.928L219.121 308.706H221.229L227.422 325.572H225.281L220.241 311.374H220.109L215.069 325.572ZM215.86 318.983H224.49V320.795H215.86V318.983ZM232.091 308.706V325.572H230.049V308.706H232.091ZM236.186 325.572V308.706H238.228V323.76H246.068V325.572H236.186ZM262.804 317.139C262.804 318.918 262.483 320.455 261.84 321.75C261.198 323.046 260.317 324.045 259.197 324.748C258.077 325.451 256.798 325.802 255.359 325.802C253.921 325.802 252.642 325.451 251.522 324.748C250.402 324.045 249.521 323.046 248.878 321.75C248.236 320.455 247.915 318.918 247.915 317.139C247.915 315.36 248.236 313.823 248.878 312.527C249.521 311.232 250.402 310.232 251.522 309.53C252.642 308.827 253.921 308.475 255.359 308.475C256.798 308.475 258.077 308.827 259.197 309.53C260.317 310.232 261.198 311.232 261.84 312.527C262.483 313.823 262.804 315.36 262.804 317.139ZM260.827 317.139C260.827 315.678 260.583 314.446 260.094 313.441C259.611 312.437 258.955 311.676 258.126 311.16C257.303 310.644 256.38 310.386 255.359 310.386C254.338 310.386 253.413 310.644 252.584 311.16C251.761 311.676 251.105 312.437 250.616 313.441C250.133 314.446 249.891 315.678 249.891 317.139C249.891 318.599 250.133 319.832 250.616 320.836C251.105 321.841 251.761 322.601 252.584 323.117C253.413 323.634 254.338 323.892 255.359 323.892C256.38 323.892 257.303 323.634 258.126 323.117C258.955 322.601 259.611 321.841 260.094 320.836C260.583 319.832 260.827 318.599 260.827 317.139ZM266.238 325.572V308.706H271.937C273.254 308.706 274.336 308.931 275.181 309.381C276.027 309.826 276.652 310.438 277.059 311.218C277.465 311.997 277.668 312.884 277.668 313.878C277.668 314.871 277.465 315.753 277.059 316.521C276.652 317.29 276.029 317.894 275.189 318.333C274.349 318.767 273.276 318.983 271.969 318.983H267.358V317.139H271.904C272.804 317.139 273.529 317.007 274.078 316.744C274.632 316.48 275.033 316.107 275.28 315.624C275.533 315.135 275.659 314.553 275.659 313.878C275.659 313.202 275.533 312.612 275.28 312.107C275.027 311.602 274.624 311.212 274.069 310.938C273.515 310.658 272.782 310.518 271.871 310.518H268.28V325.572H266.238ZM274.176 317.995L278.327 325.572H275.955L271.871 317.995H274.176ZM287.593 308.706H290.031L295.763 322.706H295.96L301.692 308.706H304.13V325.572H302.219V312.758H302.054L296.784 325.572H294.939L289.669 312.758H289.504V325.572H287.593V308.706ZM308.916 325.572H306.775L312.968 308.706H315.076L321.269 325.572H319.128L314.088 311.374H313.956L308.916 325.572ZM309.707 318.983H318.337V320.795H309.707V318.983ZM329.1 325.572H323.896V308.706H329.331C330.967 308.706 332.367 309.044 333.531 309.719C334.695 310.389 335.587 311.352 336.207 312.61C336.828 313.861 337.138 315.36 337.138 317.106C337.138 318.863 336.825 320.375 336.199 321.643C335.573 322.906 334.662 323.878 333.465 324.559C332.268 325.234 330.813 325.572 329.1 325.572ZM325.938 323.76H328.969C330.363 323.76 331.519 323.491 332.436 322.953C333.352 322.415 334.036 321.649 334.486 320.655C334.936 319.661 335.161 318.478 335.161 317.106C335.161 315.744 334.939 314.572 334.494 313.589C334.05 312.601 333.385 311.844 332.501 311.317C331.618 310.784 330.517 310.518 329.199 310.518H325.938V323.76ZM340.564 325.572V308.706H350.742V310.518H342.606V316.216H350.215V318.028H342.606V323.76H350.874V325.572H340.564Z" fill="#6E6F71"/>
<path d="M328.538 264.861C317.839 264.861 294.057 264.861 283.358 264.861C282.145 264.861 280.918 264.842 279.696 264.662C276.7 264.217 274.381 262.162 273.853 259.199C273.571 257.611 273.654 255.921 273.973 254.412C276.33 243.393 278.95 232.458 281.159 221.389C282.409 215.111 287.497 209.875 295.77 209.935C306.182 210.014 329.682 210.042 340.085 210.055C342.788 201.292 350.659 191.912 358.182 187.528C341.714 187.528 310.367 187.523 293.899 187.542C291.7 187.542 289.473 187.731 287.418 188.254C270.765 192.472 260.094 202.667 256.015 219.342C255.395 221.87 254.862 224.43 254.307 226.981C251.95 237.787 249.182 248.467 247.353 259.426C244.751 275.004 255.7 287.254 271.922 287.296C290.126 287.342 323.047 287.347 341.247 287.347C337.149 284.361 327.483 273.805 328.543 264.87L328.538 264.861Z" fill="#20427D"/>
<path d="M119.756 287.324C166.913 287.088 195.682 287.074 204.714 287.319C205.265 287.333 206.821 287.528 208.821 287.176C225.39 284.264 236.228 274.606 241.344 258.546C243.307 252.389 243.233 245.805 240.075 239.185C239.418 237.801 239.52 237.106 240.413 236.134C246.548 229.454 250.529 221.565 250.793 211.597C251.075 200.963 244.418 191.528 234.284 188.625C231.774 187.907 229.131 187.56 226.617 187.555C220.885 187.541 191.034 187.546 185.302 187.537C184.867 188.148 175.325 202.643 169.973 210.028C179.469 210.028 210.506 210.028 220.001 210.028C224.793 210.028 226.557 212.273 225.561 217.028C225.348 218.032 225.135 219.041 224.895 220.032C223.955 223.856 221.08 226.125 217.103 226.129C204.274 226.134 194.029 226.139 181.196 226.129C181.177 226.153 160.483 226.171 160.464 226.194C155.51 233.954 154.649 234.847 145.881 248.69C162.941 248.69 194.649 248.69 211.71 248.69C216.548 248.69 218.288 250.856 217.302 255.629C217.08 256.704 216.913 257.801 216.608 258.842C216.006 260.903 215.001 262.514 213.548 263.546C211.848 264.75 209.983 264.829 209.131 264.833C205.057 264.866 175.77 264.926 135.51 264.856C130.26 272.342 125.006 279.833 119.756 287.319V287.324Z" fill="#F06F38"/>
<path d="M382.227 187.093H448.537C448.537 187.093 436.014 209.648 427.111 209.648H381.773C376.426 209.648 371.07 214.046 369.894 219.407L362.056 255.148C360.88 260.509 364.301 264.912 369.653 264.912H429.829C429.829 264.912 429.213 273 413.343 281.62C406.236 285.481 398.246 287.468 390.158 287.468H360.204C343.334 287.468 332.579 273.643 336.292 256.736L344.829 217.824C348.537 200.912 365.357 187.093 382.227 187.093Z" fill="#20427D"/>
<path d="M76.4497 275.37C69.0979 248.639 51.459 187.685 51.459 187.685H68.6488C76.5469 187.685 80.2368 193.25 81.9127 201.097C82.0701 201.833 82.2275 202.569 82.4127 203.301L97.8062 263.588L141.862 196.028C144.913 190.842 150.339 187.685 156.19 187.685H178.815L121.741 275.463C121.565 275.708 120.69 276.967 119.565 278.592C115.626 284.268 109.297 287.634 102.561 287.634H92.1025C84.834 287.634 78.4451 282.634 76.4497 275.375V275.37Z" fill="#20427D"/>
</svg>