<svg xmlns="http://www.w3.org/2000/svg" fill="none" viewBox="51.46 187.09 397.08 138.71">
<path d="M148.12 310.518V308.706H160.769V310.518H155.466V325.571H153.423V310.518H148.12ZM163.921 325.571V308.706H165.963V316.216H174.956V308.706H176.998V325.571H174.956V318.028H165.963V325.571H163.921ZM181.087 325.571V308.706H191.266V310.518H183.129V316.216H190.739V318.028H183.129V323.76H191.397V325.571H181.087ZM200.547 310.518V308.706H213.196V310.518H207.892V325.571H205.85V310.518H200.547ZM215.069 325.571H212.928L219.121 308.706H221.229L227.422 325.571H225.281L220.241 311.374H220.109L215.069 325.571ZM215.86 318.983H224.49V320.795H215.86V318.983ZM232.091 308.706V325.571H230.049V308.706H232.091ZM236.186 325.571V308.706H238.228V323.76H246.068V325.571H236.186ZM262.804 317.139C262.804 318.917 262.483 320.455 261.84 321.75C261.198 323.046 260.317 324.045 259.197 324.748C258.077 325.451 256.798 325.802 255.359 325.802C253.921 325.802 252.642 325.451 251.522 324.748C250.402 324.045 249.521 323.046 248.878 321.75C248.236 320.455 247.915 318.917 247.915 317.139C247.915 315.36 248.236 313.823 248.878 312.527C249.521 311.231 250.402 310.232 251.522 309.529C252.642 308.827 253.921 308.475 255.359 308.475C256.798 308.475 258.077 308.827 259.197 309.529C260.317 310.232 261.198 311.231 261.84 312.527C262.483 313.823 262.804 315.36 262.804 317.139ZM260.827 317.139C260.827 315.678 260.583 314.446 260.094 313.441C259.611 312.436 258.955 311.676 258.126 311.16C257.303 310.644 256.38 310.386 255.359 310.386C254.338 310.386 253.413 310.644 252.584 311.16C251.761 311.676 251.105 312.436 250.616 313.441C250.133 314.446 249.891 315.678 249.891 317.139C249.891 318.599 250.133 319.831 250.616 320.836C251.105 321.841 251.761 322.601 252.584 323.117C253.413 323.633 254.338 323.891 255.359 323.891C256.38 323.891 257.303 323.633 258.126 323.117C258.955 322.601 259.611 321.841 260.094 320.836C260.583 319.831 260.827 318.599 260.827 317.139ZM266.238 325.571V308.706H271.937C273.254 308.706 274.336 308.931 275.181 309.381C276.027 309.826 276.652 310.438 277.059 311.218C277.465 311.997 277.668 312.884 277.668 313.877C277.668 314.871 277.465 315.752 277.059 316.521C276.652 317.29 276.029 317.893 275.189 318.333C274.349 318.766 273.276 318.983 271.969 318.983H267.358V317.139H271.904C272.804 317.139 273.529 317.007 274.078 316.743C274.632 316.48 275.033 316.106 275.28 315.623C275.533 315.135 275.659 314.553 275.659 313.877C275.659 313.202 275.533 312.612 275.28 312.107C275.027 311.602 274.624 311.212 274.069 310.938C273.515 310.658 272.782 310.518 271.871 310.518H268.28V325.571H266.238ZM274.176 317.995L278.327 325.571H275.955L271.871 317.995H274.176ZM287.593 308.706H290.031L295.763 322.705H295.96L301.692 308.706H304.13V325.571H302.219V312.757H302.054L296.784 325.571H294.939L289.669 312.757H289.504V325.571H287.593V308.706ZM308.916 325.571H306.775L312.968 308.706H315.076L321.269 325.571H319.128L314.088 311.374H313.956L308.916 325.571ZM309.707 318.983H318.337V320.795H309.707V318.983ZM329.1 325.571H323.896V308.706H329.331C330.967 308.706 332.367 309.043 333.531 309.719C334.695 310.389 335.587 311.352 336.207 312.609C336.828 313.861 337.138 315.36 337.138 317.106C337.138 318.862 336.825 320.375 336.199 321.643C335.573 322.906 334.662 323.878 333.465 324.558C332.268 325.234 330.813 325.571 329.1 325.571ZM325.938 323.76H328.969C330.363 323.76 331.519 323.491 332.436 322.953C333.352 322.415 334.036 321.649 334.486 320.655C334.936 319.661 335.161 318.478 335.161 317.106C335.161 315.744 334.939 314.572 334.494 313.589C334.05 312.601 333.385 311.843 332.501 311.316C331.618 310.784 330.517 310.518 329.199 310.518H325.938V323.76ZM340.564 325.571V308.706H350.742V310.518H342.606V316.216H350.215V318.028H342.606V323.76H350.874V325.571H340.564Z" fill="#6E6F71"/>
<path d="M328.536 264.861C317.837 264.861 294.055 264.861 283.356 264.861C282.143 264.861 280.916 264.843 279.694 264.662C276.698 264.218 274.379 262.162 273.851 259.199C273.569 257.611 273.652 255.921 273.971 254.412C276.328 243.394 278.948 232.458 281.157 221.389C282.407 215.111 287.495 209.875 295.768 209.935C306.18 210.014 329.68 210.042 340.083 210.056C342.786 201.292 350.657 191.912 358.18 187.528C341.712 187.528 310.365 187.523 293.897 187.542C291.698 187.542 289.471 187.732 287.416 188.255C270.763 192.472 260.092 202.667 256.013 219.343C255.393 221.87 254.86 224.431 254.305 226.982C251.948 237.787 249.18 248.468 247.351 259.426C244.749 275.005 255.698 287.255 271.921 287.296C290.124 287.343 323.046 287.347 341.245 287.347C337.147 284.361 327.481 273.806 328.541 264.87L328.536 264.861Z" fill="#20427D"/>
<path d="M119.754 287.324C166.911 287.088 195.68 287.074 204.712 287.32C205.263 287.333 206.819 287.528 208.819 287.176C225.388 284.264 236.226 274.607 241.342 258.546C243.305 252.389 243.231 245.806 240.073 239.185C239.416 237.801 239.518 237.107 240.411 236.134C246.546 229.454 250.527 221.565 250.791 211.597C251.073 200.963 244.416 191.528 234.282 188.625C231.772 187.907 229.129 187.56 226.615 187.556C220.884 187.542 191.032 187.546 185.3 187.537C184.865 188.148 175.323 202.644 169.972 210.028C179.467 210.028 210.504 210.028 219.999 210.028C224.791 210.028 226.555 212.273 225.559 217.028C225.346 218.032 225.134 219.042 224.893 220.032C223.953 223.857 221.078 226.125 217.101 226.13C204.272 226.134 194.027 226.139 181.194 226.13C181.175 226.153 160.481 226.171 160.462 226.195C155.509 233.954 154.647 234.847 145.879 248.69C162.939 248.69 194.647 248.69 211.708 248.69C216.546 248.69 218.286 250.857 217.3 255.63C217.078 256.704 216.911 257.801 216.606 258.843C216.004 260.903 214.999 262.514 213.546 263.546C211.846 264.75 209.981 264.829 209.129 264.833C205.055 264.866 175.768 264.926 135.509 264.857C130.259 272.343 125.004 279.833 119.754 287.32V287.324Z" fill="#F06F38"/>
<path d="M382.227 187.093H448.537C448.537 187.093 436.014 209.648 427.111 209.648H381.773C376.426 209.648 371.07 214.046 369.894 219.408L362.056 255.148C360.88 260.509 364.301 264.912 369.653 264.912H429.829C429.829 264.912 429.213 273 413.343 281.621C406.236 285.482 398.246 287.468 390.158 287.468H360.204C343.334 287.468 332.579 273.644 336.292 256.736L344.829 217.824C348.537 200.912 365.357 187.093 382.227 187.093Z" fill="#20427D"/>
<path d="M76.4478 275.371C69.0959 248.639 51.457 187.686 51.457 187.686H68.6468C76.545 187.686 80.2348 193.25 81.9107 201.098C82.0681 201.834 82.2255 202.57 82.4107 203.301L97.8043 263.588L141.86 196.028C144.911 190.843 150.337 187.686 156.189 187.686H178.814L121.739 275.463C121.564 275.709 120.689 276.968 119.564 278.593C115.624 284.269 109.295 287.635 102.559 287.635H92.1006C84.832 287.635 78.4431 282.635 76.4478 275.375V275.371Z" fill="#20427D"/>
</svg>